<svg xmlns="http://www.w3.org/2000/svg" width="1em" height="1em" style="flex:none;line-height:1" viewBox="0 0 24 24"><title>Bing</title><path fill="url(#a)" d="M11.97 7.569a.92.92 0 0 0-.805.863c-.013.195-.01.209.43 1.347 1 2.59 1.242 3.214 1.283 3.302q.15.322.41.592c.134.138.222.212.37.311.26.176.39.224 1.405.527.989.295 1.529.49 1.994.723.603.302 1.024.644 1.29 1.051.191.292.36.815.434 1.342.029.206.029.661 0 .847a2.5 2.5 0 0 1-.376 1.026c-.1.151-.065.126.081-.058.415-.52.838-1.408 1.054-2.213a6.7 6.7 0 0 0 .102-3.012 6.63 6.63 0 0 0-3.291-4.53 104 104 0 0 0-1.322-.698l-.254-.133-1.575-.827c-.548-.29-.78-.406-.846-.426a1.4 1.4 0 0 0-.29-.045l-.093.01z"/><path fill="url(#b)" d="M13.164 17.24a4 4 0 0 0-.202.125 512 512 0 0 0-1.795 1.115 163 163 0 0 1-.989.614l-.463.288a99 99 0 0 1-1.502.941c-.326.2-.704.334-1.09.387-.18.024-.52.024-.7 0a2.8 2.8 0 0 1-1.318-.538 3.7 3.7 0 0 1-.543-.545 2.8 2.8 0 0 1-.506-1.141 2 2 0 0 0-.041-.182c-.008-.008.006.138.032.33.027.199.085.487.147.733a6.13 6.13 0 0 0 3.705 4.195 6.3 6.3 0 0 0 1.658.412c.22.025.844.035 1.074.017 1.054-.08 1.972-.393 2.913-.992l.937-.596.384-.244.684-.435.234-.149.009-.005.025-.017.013-.007.172-.11.597-.38c.76-.481.987-.65 1.34-.998.148-.146.37-.394.381-.425.002-.007.042-.068.088-.136a2.5 2.5 0 0 0 .373-1.023 4 4 0 0 0 0-.847 4.3 4.3 0 0 0-.318-1.137c-.224-.472-.7-.9-1.383-1.245a3 3 0 0 0-.406-.181c-.01 0-.646.392-1.413.87l-1.658 1.031-.439.274z"/><path fill="url(#c)" d="m4.003 14.946.004 3.33.042.193c.134.604.366 1.04.77 1.445a2.7 2.7 0 0 0 1.955.814c.536 0 1-.135 1.479-.43l.703-.435.556-.346V8.003c0-2.306-.004-3.675-.012-3.782a2.73 2.73 0 0 0-.797-1.765c-.145-.144-.268-.24-.637-.496L5.762.362C5.406.115 5.38.098 5.271.059a.943.943 0 0 0-1.254.696C4.003.818 4 1.659 4 6.223v5.394z"/><defs><radialGradient id="a" cx="93.717%" cy="77.818%" r="143.691%" fx="93.717%" fy="77.818%" gradientTransform="matrix(-.65226 -.54167 .758 -.4661 .958 1.648)"><stop offset="0%" stop-color="#00cacc"/><stop offset="100%" stop-color="#048fce"/></radialGradient><radialGradient id="b" cx="13.893%" cy="71.448%" r="149.21%" fx="13.893%" fy="71.448%" gradientTransform="matrix(.55476 -.39619 .23938 .91817 -.11 .113)"><stop offset="0%" stop-color="#00bbec"/><stop offset="100%" stop-color="#2756a9"/></radialGradient><linearGradient id="c" x1="50%" x2="50%" y1="0%" y2="100%"><stop offset="0%" stop-color="#00bbec"/><stop offset="100%" stop-color="#2756a9"/></linearGradient></defs></svg>