<svg xmlns="http://www.w3.org/2000/svg" width="512" height="512" fill="none" viewBox="0 0 512 512"><path fill="#fff" d="M0 0h512v512H0z"/><path fill="#a5ccff" fill-rule="evenodd" d="M76.653 112.652c38.908-18.969 85.82-2.809 104.807 36.104l40.538 83.082c9.485 19.439 1.423 42.89-18.007 52.379l-.024.012c-19.454 9.484-42.91 1.404-52.404-18.052z" clip-rule="evenodd"/><path fill="#a5ccff" fill-rule="evenodd" d="M36 191.819c30.612-30.599 80.214-30.599 110.826 0l67.792 67.764c15.289 15.282 15.3 40.07.024 55.366l-.024.024c-15.305 15.299-40.107 15.299-55.413 0z" clip-rule="evenodd" opacity=".648"/><path fill="#006eff" fill-rule="evenodd" d="M316.854 126.333c87.482 0 158.399 70.889 158.399 158.334 0 42.693-21.949 86.073-49.432 114.55l-11.379-13.641a93.77 93.77 0 0 1-18.589-84.267q2.136-8.004 2.137-14.707c0-45.103-36.579-81.667-81.701-81.667s-81.7 36.564-81.7 81.667 36.579 81.667 81.7 81.667a81.7 81.7 0 0 0 24.26-3.661 66.05 66.05 0 0 1 65.34 15.457l19.932 19.152C397.52 425.628 358.626 443 316.854 443c-87.481 0-158.398-70.888-158.398-158.333s70.917-158.334 158.398-158.334" clip-rule="evenodd"/><path fill="#006eff" fill-rule="evenodd" d="M158.456 68c43.28 0 78.365 35.102 78.365 78.401v56.531c0 43.3-35.085 78.401-78.365 78.401z" clip-rule="evenodd"/></svg>