<svg xmlns="http://www.w3.org/2000/svg" width="1707" height="1550"><path fill="#ff3904" d="M596 213h365v2l1.75.625c3.056 1.868 4.288 4.403 6.25 7.375a259 259 0 0 0 5 4v2h2c4 5.412 4 5.412 4 8l3 1v2l1.938.813C987 242 987 242 988 245h2l1 4h2c1.656 1.68 1.656 1.68 3.5 3.875 1.79 2.115 3.54 4.165 5.5 6.125v3l3 1v2l3 1v2h2c3 3.462 3 3.462 3 6h2c4 4.47 4 4.47 4 7l1.75.688c2.847 1.66 4.37 3.627 6.25 6.312v2h2a174 174 0 0 1 4 5l2 2c6 6 6 6 6 9l3 1v2h2c3 3.462 3 3.462 3 6h2a174 174 0 0 1 4 5l2.188 2.063C1059 324 1059 324 1060 328h10v-2l6.152-.684c1.86-.135 1.86-.135 2.848-1.316 1.985-.217 3.976-.372 5.969-.5l3.668-.25 7.726-.5 3.668-.25 3.393-.219c2.505-.001 2.505-.001 3.576-1.281 1.623-.1 3.25-.13 4.875-.133l2.984-.004 3.141.012 3.14-.012 2.985.004 2.758.004C1129 321 1129 321 1130 322a93 93 0 0 0 4.883.465l3.039.236q3.168.234 6.336.461c5.512.433 10.498 1.063 15.742 2.838v2l1.723.113c5.361.457 9.444 1.522 14.277 3.887v2l6 1v2h2v2l2.313.313c2.871.734 3.917 1.359 5.687 3.687v2h3c1.648 1.574 1.648 1.574 3.375 3.688 2.1 2.519 4.183 4.93 6.563 7.187C1207 358 1207 358 1207 360h2v2h2q2.007 2.494 4 5l2.75 2.188L1220 371v2h2q2.007 2.494 4 5l2.688 2.063c2.416 2.024 2.983 2.87 3.312 5.937l1.75.188c3.156 1.14 4.284 3.148 6.25 5.812l1.75 1.688C1243 395 1243 395 1243 397l1.766.781c2.414 1.317 4.051 2.77 5.984 4.719l1.86 1.844C1254 406 1254 406 1254 408h2c3 3.462 3 3.462 3 6l3 1v2l3 1v2h2v2l3 1v2l3 1c-.383 5.363-1.317 9.011-3.879 13.703-2.225 4.559-3.607 9.465-5.121 14.297h-2l-.187 2.75c-.784 5.758-3.47 10.986-5.813 16.25h-2l-1 8h-2l-.312 2.938c-.41 3.031-1.227 5.643-2.313 8.5-1.634 4.592-1.324 7.818-.375 12.562h2l1 9h2l.734 2.492c1.553 5.172 3.095 10.283 5.204 15.258 1.884 4.516 3.229 9.113 4.562 13.813 1.523 5.357 3.183 10.413 5.586 15.453 2.338 5.075 4.462 10.319 3.914 15.984h2l1 9h2c3.968 8.888 2.45 14.853 0 24h-2l-1 12h-2l-.148 2.195-.227 2.93c-.07.951-.14 1.903-.21 2.883-.444 3.202-1.357 5.942-2.415 8.992a313 313 0 0 0-1.625 6.875c-.39 1.729-.39 1.729-.79 3.492L1267 652h-2l-.148 2.195c-.407 5.262-1 9.83-2.852 14.805-.37 1.994-.713 3.993-1 6h-2l-.078 1.95c-.422 6.727-1.828 12.626-3.985 19.007-.927 3.01-1.49 5.929-1.937 9.043h-2l-.148 2.414c-.391 5.54-.893 10.361-2.852 15.586-1.051 3.988-2.027 7.993-3 12h-2l-1 12h-2l-.148 2.16-.227 2.903-.21 2.847c-.472 3.515-1.386 6.696-2.415 10.09q-.633 2.221-1.254 4.445l-.65 2.325-.659 2.355-.67 2.379c-1.064 3.814-2.07 7.594-2.767 11.496h-2l-.148 2.379-.227 3.183c-.07 1.033-.14 2.066-.21 3.13-.452 3.603-1.366 6.833-2.415 10.308-.693 2.66-1.345 5.33-2 8a358 358 0 0 1-4 15h-2l.188 2.813c.017 4.422-1.222 8.369-2.454 12.585-.803 2.846-1.338 5.673-1.734 8.602h-2l-.113 2.125c-.371 5.353-1.025 9.818-3.121 14.75-1.521 4.221-2.075 8.705-2.766 13.125h-2l-1 12h-2l-.113 2.16c-.411 5.99-1.464 10.316-3.887 15.84-.824 3.979-1.438 7.977-2 12h-2l-.148 2.195-.227 2.93-.21 2.883c-.444 3.2-1.354 5.946-2.415 8.992a253 253 0 0 0-1.437 6.125c-1.425 6.317-2.968 12.599-4.563 18.875h-2l-.148 2.16-.227 2.903-.21 2.847c-.472 3.515-1.385 6.696-2.415 10.09-.865 3.018-1.713 6.04-2.562 9.063l-.67 2.353c-1.172 4.178-2.155 8.278-2.768 12.584h-2l-1 12h-2l-1 12h-2l-.078 1.95c-.422 6.727-1.828 12.626-3.985 19.007-.927 3.01-1.49 5.929-1.937 9.043h-2l-1 11h-2l-.148 1.758c-.448 4.681-1.15 8.817-2.852 13.242h-2l-1 10h-2l-1 8h-2l-.25 3c-.526 3.816-1.958 6.759-3.812 10.105-.965 1.95-1.486 3.773-1.938 5.895h-2l-1 6h-2l-1 6h-2l-.375 1.75c-.631 2.273-1.514 4.175-2.625 6.25h-2l-1 5h-2l-1 4h-2l-.375 1.813C1117 1160 1117 1160 1115 1163h-2l-1 4h-2l-1 3h-2l-.7 1.656c-1.672 3.015-3.784 5.303-6.112 7.844l-2.583 2.844c-2.417 2.464-4.804 4.64-7.605 6.656h-2l-1 3h-2l-1 3h-2v2h-3v2c-4.353 4-4.353 4-8 4l-1 3h-2v2h-3v2c-5.412 4-5.412 4-8 4v2l-5 1v2c-1.898 1.508-1.898 1.508-4.375 3.125l-2.46 1.633C1043 1225 1043 1225 1041 1225v2l-3 1-1 2a226 226 0 0 1-5.02 2.848c-2.037 1.185-3.898 2.5-5.793 3.902C1023 1239 1023 1239 1021 1239v2h-3v2c-2.336 1.727-2.336 1.727-5.375 3.625l-3.023 1.914C1007 1250 1007 1250 1005 1250v2h-3v2l-5 1-1 3h-3v2c-1.898 1.508-1.898 1.508-4.375 3.125l-2.46 1.633C984 1266 984 1266 982 1266v2l-5 1v2l-5 1-1 3h-3v2c-4.385 3-4.385 3-7 3v2l-3 1-1.5 1.563C955 1286 955 1286 952 1286v2c-1.898 1.508-1.898 1.508-4.375 3.125l-2.46 1.633C943 1294 943 1294 941 1294v2l-5 1v2h-3l-1 3c-2.92 2.075-4.375 3-8 3v2l-5 1-1 3c-1.777 1.387-1.777 1.387-3.937 2.688l-2.153 1.324C910 1316 910 1316 908 1316v2l-5 1v2l-4 1v2c-2.23 1.656-2.23 1.656-5.187 3.5l-2.918 1.844A50 50 0 0 1 883 1333v2h-3v2l-5 1v2c-5.294 4-5.294 4-9 4v2a97 97 0 0 1-6.25 4.063l-1.777 1.103c-2.928 1.78-5.565 3.286-8.973 3.834v2c-4.385 3-4.385 3-7 3v2c-6.75 4-6.75 4-9 4v2l-5 1v2c-2.955 2.744-3.775 3-8 3l-1 3h-3v2l-5 1v2c-11.04 5.723-19.849 9.151-32.5 9.125l-3.781.008c-3.672-.131-7.099-.545-10.719-1.133v-2l-8-1v-2l-6-1v-2h-3v-2l-6-1v-2l-5-1v-2l-2.437-.812L731 1372l-1-3-5-1v-2l-5-1v-2l-4-1v-2l-1.75-.375c-2.273-.631-4.175-1.514-6.25-2.625v-2l-5-1v-2l-2.078-.734c-3.465-1.501-6.53-3.446-9.672-5.516l-1.854-1.211q-1.84-1.203-3.676-2.413a427 427 0 0 0-4.634-2.981l-2.461-1.582-2.148-1.372L675 1335v-2l-5-1v-2l-1.687-.312c-2.79-.83-4.927-2.031-7.313-3.688v-2l-2.137-.781c-3.106-1.322-5.823-2.916-8.676-4.719l-2.957-1.844L645 1315v-2h-3v-2l-2.437-.375L637 1310l-1-2-3-1v-2l-5-1v-2l-2.437-.812L623 1300l-1-3-5-1v-2l-5-1v-2l-1.812-.375C608 1290 608 1290 605 1288v-2l-4-1v-2l-1.687-.312c-2.79-.83-4.927-2.031-7.313-3.688v-2h-3v-2l-5-1v-2l-2.125-.75c-3.27-1.422-6.016-3.122-8.875-5.25v-2l-2.437-.375L568 1263l-1-2-3-1v-2l-5-1v-2l-2.437-.812L554 1253l-1-3-5-1v-2l-2.125-.75c-3.27-1.422-6.016-3.122-8.875-5.25v-2l-5-1v-2l-4-1v-2l-2.375-.937C523 1231 523 1231 521 1230v-2l-4-1v-2l-5-1v-2l-2.125-.75c-3.27-1.422-6.016-3.122-8.875-5.25v-2l-2.437-.375L496 1213l-1-2-3-1v-2l-2.187-.75c-3.09-1.373-5.323-2.974-7.813-5.25v-2l-1.687-.187c-3.304-1.161-5.032-3.215-7.313-5.813v-2l-2.312-.312c-2.872-.735-3.918-1.36-5.688-3.688v-2l-3-1v-2h-2c-1.625-1.375-1.625-1.375-3-3v-2l-3-1v-2l-3-1v-2h-2l-1-5-3-1v-2l-1.937-.75C441 1162 441 1162 440.25 1159.875L440 1158h-2l-1-5h-2c-2.042-2.905-3-4.401-3-8l-3-1c-2.218-3.696-3-5.63-3-10h-2l-1-6h-2c-6.386-14.716-6.386-14.716-9-22-.425-1.128-.85-2.256-1.29-3.418l-1.397-3.77-1.325-3.542c-.904-2.991-1.203-5.18-.988-8.27h-2l-.367-1.758c-.769-3.582-1.558-7.024-2.758-10.492-.877-2.757-1.044-4.88-.875-7.75h-2l-.805-3.473-1.07-4.59-.527-2.279c-.826-3.53-1.686-7.027-2.723-10.502-.888-3.203-1.036-5.85-.875-9.156h-2l-1-12h-2l-.332-2.125c-.746-4.464-1.454-8.696-3.23-12.875-1.992-4.827-2.163-9.834-2.438-15h-2l-1-13h-2l-1-11h-2l-.805-3.691-1.07-4.871-.527-2.424A200 200 0 0 0 368 946c-3.436-11.618-3.436-11.618-3-17h-2l-.805-3.727-1.07-4.898-.527-2.45c-.77-3.509-1.585-6.887-2.723-10.3-.998-2.995-1.024-5.489-.875-8.625h-2l-1-12h-2l-.805-3.473-1.07-4.59-.527-2.279c-.826-3.53-1.686-7.027-2.723-10.502-.888-3.203-1.036-5.85-.875-9.156h-2l-.367-2.195c-.885-5.103-1.859-9.925-3.633-14.805-1.45-4.513-2.232-8.253-2-13h-2l-.367-2.195c-1.06-6.136-1.06-6.136-2.758-12.117-.984-3.022-1.025-5.53-.875-8.688h-2l-1-13h-2c-2.174-7.478-3.939-15.014-5.554-22.628-.714-3.317-1.482-6.48-2.56-9.704-1.001-3.015-1.036-5.511-.886-8.668h-2a688 688 0 0 1-1.5-5.625l-.844-3.164c-.647-3.168-.772-5.988-.656-9.211h-2l-.367-2.16c-.752-4.298-1.522-8.463-2.758-12.653-.883-3.215-1.037-5.871-.875-9.187h-2l-.805-3.508-1.07-4.617-.527-2.305c-.783-3.363-1.61-6.608-2.723-9.883-1.079-3.314-1.013-6.225-.875-9.687h-2l-.367-2.195c-1.06-6.136-1.06-6.136-2.758-12.117-.984-3.022-1.025-5.53-.875-8.688h-2l-.805-3.727-1.07-4.898-.527-2.45c-.77-3.509-1.585-6.887-2.723-10.3-.998-2.995-1.024-5.489-.875-8.625h-2l-1-12h-2c-3.168-11.145-4.324-19.113 0-30h2l.313-3.437c.578-4.757 2.038-9.082 3.687-13.563h2l.148-1.793c.417-4.398.902-8.176 2.852-12.207h2l1-9h2l.375-3.687c.42-3.402 1.26-6.157 2.625-9.313.369-1.66.713-3.325 1-5h2l.25-2.812c.617-4.447 2.207-8.464 3.813-12.637.8-2.178 1.429-4.29 1.937-6.551h2v-13h-2l-1-7h-2l-.734-2.09c-1.657-4.645-3.35-9.197-5.454-13.66-1.744-3.796-2.458-7.096-2.812-11.25h-2l-1-8h-2a923 923 0 0 1-3-7.625l-.867-2.16c-1.622-4.208-2.61-7.63-2.133-12.215 1.375-2.375 1.375-2.375 3-4h2l1-3h2l.688-1.625c2.96-5.357 7.029-9.08 11.675-12.93 2.184-1.928 3.883-4.128 5.637-6.445 1.625-1.812 1.625-1.812 3-3h2v-2h2l.75-1.687c2.092-3.87 4.913-7.431 8.25-10.313h2l1-3h2l1-3h2l.813-1.937C337 371 337 371 340 370l1-3h2l1-3h2l.813-1.937C348 360 348 360 351 359l1-3h2l1-3h2l1-3h2l.813-1.937C362 346 362 346 365 345l1-3h2v-2c2.905-2.042 4.401-3 8-3v-2c1.245-.677 2.496-1.34 3.75-2l2.11-1.125C384 331 384 331 388 331v-2l10-1v-2h6v-2l2.095-.168q4.673-.379 9.342-.77l3.3-.263 3.134-.264 2.904-.238c2.194-.064 2.194-.064 3.225-1.297 1.623-.1 3.25-.13 4.875-.133l2.984-.004 3.141.012 3.14-.012 2.985.004 2.758.004C450 321 450 321 451 322c1.985.217 3.976.372 5.969.5l3.668.25 3.863.25q3.766.243 7.531.5l3.393.219C478 324 478 324 479 325c1.347.23 2.704.412 4.063.563L487 326v2h8l1-2h2l1-3h2l.938-1.875L504 317h2l.688-1.625c1.768-3.2 3.849-5.665 6.312-8.375h2l.938-1.875L518 301h2l1-3h2l1-3h2l.75-2.187c1.854-4.171 4.219-7.008 7.813-9.813 2.575-2.114 3.776-4.153 5.437-7h2l1-3h2l1-3h2l.75-2.187c1.871-4.211 4.759-7.798 8.25-10.813h2l.938-1.875L562 251h2l1-3h2l1-3h2l1-4h2l.75-1.687c1.48-2.737 3.185-4.99 5.25-7.313h2l1-3h2v-3h2l1-3h2l.875-1.812C591 219 591 219 593 216h2z"/><path fill="#b7b7b7" d="m759.438-.203 4.919-.021C769.57-.244 774.785-.25 780-.25l2.69-.001c25.448-.007 50.789.052 76.101 2.995 2.34.271 4.68.532 7.02.792C943.446 12.268 1019.267 31.586 1166 99l2.955 1.683c33.585 19.21 65.435 40.671 96.045 64.317l2.068 1.591c8.29 6.384 16.292 13.047 24.19 19.906 1.715 1.48 3.44 2.943 5.172 4.401 12.39 10.46 24.21 21.532 35.57 33.102 3.415 3.422 6.843 6.832 10.273 10.238l4.546 4.526q1.55 1.542 3.1 3.08c5.92 5.87 11.672 11.806 17.081 18.156q2.18 2.412 4.375 4.813c3.821 4.238 7.467 8.586 11.055 13.023a606 606 0 0 0 5.828 7.078c7.358 8.833 14.466 17.796 21.262 27.069a1246 1246 0 0 0 4.414 5.966c14.687 19.918 28.58 40.682 41.066 62.051l1.385 2.363c43.296 74.127 74.395 153.675 104.888 328.688l.182 2.034c.197 2.304.374 4.609.545 6.915l.26 3.512c.681 9.922.916 19.798.943 29.742l.021 4.86c.02 5.15.025 10.299.026 15.448l.001 2.657c.007 24.954-.05 49.79-2.995 74.606a1157 1157 0 0 0-.792 6.96c-9.462 84.031-31.93 165.46-110.605 322.212q-2.363 3.82-4.703 7.655c-23.033 37.564-50.496 73.164-80.488 105.434a293 293 0 0 0-5.953 6.723c-3.918 4.494-8.102 8.689-12.34 12.879l-2.234 2.22a4481 4481 0 0 1-4.282 4.25 1798 1798 0 0 0-11.004 11.022l-4.668 4.695c-.768.777-1.537 1.555-2.33 2.355-4.786 4.807-9.714 9.35-14.857 13.77a1251 1251 0 0 0-4.812 4.375c-4.344 3.919-8.812 7.646-13.36 11.324-2.847 2.317-5.65 4.68-8.453 7.051-6.902 5.76-14.04 11.198-21.212 16.615q-3.128 2.367-6.245 4.744a570 570 0 0 1-26 18.597 1372 1372 0 0 0-5.414 3.677c-18.923 12.83-38.472 24.61-58.504 35.617l-3.184 1.764C1107.629 1483.06 1053.263 1505.087 997 1521l-3.62 1.03c-39.94 11.269-80.607 18.974-121.817 23.72l-2.631.306c-28.055 3.231-55.944 4.324-84.157 4.262q-3.94-.008-7.88-.011c-24.308-.035-48.512-.24-72.686-3.05-2.34-.272-4.68-.533-7.02-.793-83.957-9.443-165.657-31.32-293.858-92.148a464 464 0 0 0-6.85-3.78c-19.82-10.782-38.865-22.802-57.481-35.536l-2.518-1.718c-13.157-9.004-25.88-18.52-38.482-28.282l-2.055-1.583c-8.294-6.387-16.3-13.051-24.204-19.914a569 569 0 0 0-5.17-4.401c-11.768-9.936-23.026-20.409-33.825-31.391-1.823-1.849-1.823-1.849-4.371-3.774-2.149-1.752-3.737-3.454-5.523-5.558-3.757-4.336-7.759-8.364-11.852-12.379-4.676-4.586-9.175-9.237-13.45-14.2-1.933-2.244-3.927-4.427-5.925-6.612-3.821-4.239-7.467-8.587-11.055-13.024a601 601 0 0 0-5.828-7.078c-7.358-8.833-14.466-17.796-21.262-27.069a1246 1246 0 0 0-4.414-5.966c-14.687-19.918-28.58-40.682-41.066-62.051l-1.385-2.363c-40.803-69.86-71.306-144.903-104.853-328.512l-.192-2.082C.388 823.613-.167 810.257-.203 796.78l-.022-4.85a4232 4232 0 0 1-.026-18.087C-.252 747.78-.053 721.914 3 696l.602-5.292C10.042 634.866 22.032 580.27 40 527l.665-1.977C49.285 499.435 59.595 474.468 71 450l1.277-2.758c6.114-13.148 12.625-26.057 19.41-38.867l1.054-1.996C97.848 396.722 103.293 387.314 109 378l1.875-3.073a792.5 792.5 0 0 1 62.624-88.09 1154 1154 0 0 0 4.013-4.946 352 352 0 0 1 13.379-15.567 355 355 0 0 0 5.484-6.199c7.418-8.49 15.058-16.704 23.122-24.585 2.525-2.483 4.921-4.984 7.163-7.727 1.89-2.273 3.634-4.08 5.903-5.938 3.669-3.121 7.057-6.449 10.437-9.875 3.884-3.928 7.811-7.717 12.02-11.3 2.307-1.98 4.546-4.026 6.792-6.075 4.32-3.897 8.766-7.598 13.29-11.254a383 383 0 0 0 7.486-6.309c7.216-6.202 14.741-11.914 22.394-17.563a558 558 0 0 0 5.784-4.362A645 645 0 0 1 365 118l2.359-1.45C438.757 72.768 516.052 40.352 759.438-.203M709 98l-2.298.264C672.636 102.205 639.191 108.4 606 117l-3.292.846C528.655 137.092 457.06 169.692 394 213l-2.307 1.581c-16.9 11.615-33.093 23.963-48.933 36.98a604 604 0 0 1-4.748 3.834c-6.257 5.025-12.156 10.353-18.016 15.828a214 214 0 0 1-7.121 6.34c-5.234 4.522-10.02 9.516-14.875 14.437q-4.906 4.912-9.836 9.8l-5.539 5.512c-.92.913-1.84 1.825-2.79 2.764-5.16 5.144-10.123 10.367-14.835 15.924q-1.407 1.625-2.816 3.246c-11.685 13.551-23.101 27.27-33.682 41.706q-1.516 2.067-3.043 4.127c-19.572 26.409-36.711 54.51-52.163 83.504a443 443 0 0 1-3.51 6.405C156.758 488.567 146.435 513.815 137 539l-1.193 3.151c-25.439 67.43-40.764 141.786-41.01 213.986l-.021 4.203c-.02 4.449-.025 8.898-.026 13.347l-.001 2.301c-.007 22.73.244 45.311 2.995 67.905.27 2.225.531 4.45.792 6.676C103.711 894.232 112.644 937.1 126 979l1.097 3.47c8.555 26.904 19.131 52.884 30.903 78.53l1.308 2.862c6.299 13.719 13.315 26.972 20.692 40.138l1.477 2.656c10.814 19.43 22.67 38.197 35.523 56.344l1.558 2.202c7.208 10.155 14.626 20.104 22.442 29.798l2.297 2.852c8.228 10.125 16.625 20.08 25.457 29.683a221 221 0 0 1 5.433 6.215c5.363 6.185 11.325 11.838 17.14 17.593 3.553 3.519 7.078 7.066 10.599 10.618l4.387 4.414c.72.73 1.442 1.46 2.185 2.21A243 243 0 0 0 323 1282l3.246 2.816c45.587 39.31 95.007 72.086 148.754 99.184l3.32 1.677c71.493 35.858 150.742 57.845 252.68 68.323l3.526.29c15.358 1.093 30.772.956 46.162.96l2.293.001c23.792.008 47.37-.428 71.019-3.251l2.27-.264c73.71-8.596 145.473-27.65 225.73-64.736l3.452-1.66c15.66-7.57 30.857-15.703 45.762-24.667 2.725-1.636 5.459-3.255 8.196-4.868 10.082-5.963 19.946-12.158 29.59-18.805l2.312-1.585c25.31-17.394 49.593-36.364 72.211-57.157a253 253 0 0 1 6.415-5.633c5.156-4.475 9.898-9.383 14.692-14.239 3.638-3.68 7.314-7.323 10.987-10.968l5.258-5.23c.873-.865 1.745-1.73 2.645-2.62 5.043-5.024 9.872-10.143 14.48-15.568q1.407-1.624 2.816-3.246c11.14-12.922 22.135-25.958 32.184-39.754l2.805-3.79c14.473-19.67 27.959-40.076 40.195-61.21l1.506-2.583c43.787-75.213 72.18-158.16 87.237-265.17q.252-2.199.51-4.397c5.37-45.75 5.134-94.118-.253-139.85l-.52-4.545c-8.406-72.34-28.1-142.29-58.48-208.455l-1.488-3.251c-21.747-47.24-49.867-92.262-82.512-132.749l-2.297-2.852c-8.152-10.03-16.456-19.914-25.219-29.418a323 323 0 0 1-5.773-6.543c-3.764-4.314-7.764-8.353-11.836-12.375l-2.09-2.076a3956 3956 0 0 0-4.016-3.983c-3.511-3.48-6.997-6.983-10.476-10.495l-4.105-4.133-2.042-2.066c-4.546-4.568-9.249-8.872-14.146-13.059l-3.246-2.816c-45.587-39.31-95.007-72.086-148.754-99.184l-3.32-1.677c-72.193-36.209-152.053-58.232-283.746-69.526l-4.187-.021c-4.436-.02-8.873-.025-13.31-.026l-2.295-.001C756.982 94.74 733.021 95.19 709 98"/><path fill="#fffefd" d="M763 394h29v2l2.23-.035 2.957-.027 2.918-.036c2.75.093 5.22.477 7.895 1.098v2h6v2l11 1v2l10 1v2l1.871.078c5.51.37 9.674 1.375 14.613 3.8C856.467 413.1 861.77 414.48 867 416v2l2.188-.125c3.078.137 4.974.96 7.812 2.125q2.643.824 5.313 1.563l2.675.753c7.473 1.696 14.758 1.839 22.387 1.809l2.96.012a149 149 0 0 0 16.428-.914c2.96-.295 5.888-.32 8.862-.286l3.102.028L941 423v-2l1.688-.148c5.275-.517 10.201-1.483 15.312-2.852 6.162-1.62 11.618-2.203 18-2v-2l6.152-.684c1.86-.135 1.86-.135 2.848-1.316a123 123 0 0 1 5.504-.684l3.435-.373 7.165-.75c6.15-.67 11.93-1.573 17.896-3.193 5.145-1.1 9.77-1.816 15-1 3.96 3.095 6.596 6.602 9 11v2l1.805.762c2.497 1.409 3.622 2.751 5.32 5.05l1.797 2.403L1054 430a927 927 0 0 0 2.64 3.379l1.371 1.753q1.347 1.72 2.7 3.438c1.923 2.478 3.288 4.428 4.289 7.43l1.563 1.563L1068 449v2h2c2.918 3.113 5.412 6.61 8 10l1.548 2.012q2.484 3.237 4.952 6.488l1.638 2.14 1.518 2.016 1.37 1.807C1090 477 1090 477 1090 479l1.75.563c3.242 2.07 4.529 5.116 6.25 8.437 1.867 3.665 1.867 3.665 5 6v2h2c9 10.103 9 10.103 9 15h2c1.508 1.898 1.508 1.898 3.125 4.375l1.633 2.46C1122 520 1122 520 1122 522h2l.188 1.688c.706 2.573.706 2.573 3.312 4.687 2.832 2.974 3.22 4.604 3.5 8.625l4 1 1 5h2l1.313 2.813c1.427 3.074 1.427 3.074 3.187 4.687 2.188 2.188 3.248 4.697 4.5 7.5v2h2l1.75 3.563a136 136 0 0 0 4.375 8.125c2.506 4.427 3.875 7.193 3.875 12.312h2c4.95 11.139 4.608 26.421 1 38-1.167 2.53-2.448 4.673-4 7h-2l.297 2.188c-.417 3.947-2.17 5.152-5.047 7.812-3.39 3.172-6.414 6.32-9.25 10-1.625 1.813-1.625 1.813-3 3h-2v2l-2.062 1.625c-3.806 3.077-6.787 6.647-9.938 10.375l-3.25 3.813-1.39 1.644c-1.404 1.593-2.777 3.126-4.36 4.543h-2l-.824 1.781c-2.33 4.397-5.733 8.072-9.613 11.157-2.932 2.359-5.173 5-7.61 7.855-2.066 2.335-4.232 4.52-6.453 6.707-4.048 4-7.817 8.164-11.5 12.5l-3.25 3.813-1.39 1.644c-1.404 1.593-2.777 3.126-4.36 4.543h-2l-.75 1.75c-1.867 3.361-4.595 5.634-7.375 8.25-1.814 1.935-2.72 3.648-3.875 6l-4 1-.863 1.766c-1.386 2.723-3.12 4.374-5.324 6.484-2.899 2.829-5.683 5.67-8.313 8.75-3.326 3.887-6.916 7.455-10.582 11.02-2.081 2.03-2.081 2.03-3.918 4.98h-2a174 174 0 0 0-4.125 8.75l-1.07 2.422L1014 789h-2c-.108 10.066.023 19.971 1 30l1.86.168c2.14.832 2.14.832 3.406 3.195l.984 2.95 1.016 2.925C1021 831 1021 831 1021 835h2v6h2l.586 1.828.789 2.422.773 2.39c.788 2.333.788 2.333 1.852 4.329 6.841 13.896 6.155 34.754 1.656 49.25L1030 903h-2l-1 8h-2v3h-2l-.25 2.625c-1.396 6.284-5.328 9.953-9.75 14.375l-2.187 3.313L1009 937h-2l-.187 1.75c-1.145 3.17-3.139 4.244-5.813 6.25l-2.625 2.688C996 950 996 950 993 951v2a94 94 0 0 1-5.375 3.438c-4.414 2.625-4.414 2.625-7.625 6.562-5.698 3.664-11.247 5.813-18 6l-2.59.152c-6.736.237-12.11-.864-18.41-3.152l-3.516-1.184c-8.706-3.016-16.719-6.885-24.815-11.272-4.757-2.572-9.469-4.807-14.544-6.692-6.183-2.478-11.832-6.217-17.398-9.836-1.865-1.178-1.865-1.178-4.727-2.016v-2l-1.766-.355c-12.682-3.659-25.955-17.43-36-25.805-2.202-1.86-2.202-1.86-4.53-3.461L832 902v-2l-1.687-.687c-2.96-1.68-4.937-3.88-7.313-6.313a252 252 0 0 0-3.312-2.625L817 888v-3l-2.625-.5c-4.742-2.107-6.526-5.283-9.375-9.5a892 892 0 0 0-4.187-5.875l-1.981-2.805c-1.794-2.518-1.794-2.518-4.832-4.32-.687-3.125-.687-3.125-1-6h-2a280 280 0 0 1-.125-4.312l-.07-2.426C791 847 791 847 793 844h2l.75-2.23c1.369-3.034 2.879-4.768 5.25-7.082l2.125-2.114C805 831 805 831 807 831v-2a105 105 0 0 1 5.875-4.625l1.684-1.273C818.738 820 818.738 820 821 820v-2c2.448-1.679 4.773-2.917 7.563-3.937 2.526-.921 2.526-.921 4.269-2.926 2.284-2.25 4.538-3.759 7.293-5.387l2.633-1.578C845 803 845 803 847 803v-2l1.547-.848c9.34-5.15 18.507-10.365 27.191-16.574C883.733 778 883.733 778 887 778v-2c6.625-4 6.625-4 10-4l.746-1.828c1.479-2.561 2.796-3.41 5.317-4.922C908.17 762 912.702 758.264 917 754l1.738-1.723c1.893-3.416 1.657-6.791 1.574-10.59l.01-2.224c-.081-8.368-2.804-14.854-6.76-22.088l-1.197-2.234c-1.643-3.052-3.303-6.043-5.15-8.977C906 704 906 704 906 701h-2l-.77-1.793c-2.162-4.964-4.48-9.542-7.457-14.074-2.066-3.203-3.703-5.92-4.898-9.57L890 673l-3-1c-2.218-3.696-3-5.63-3-10h-2l-.844-2.125A692 692 0 0 0 877.5 651q-1.254-2.999-2.5-6c-.36-.784-.722-1.567-1.094-2.375-2.116-6.13-2.11-12.758-2.156-19.187l-.062-2.17c-.06-8.148 3.13-13.583 8.535-19.467 2.128-2.157 4.276-4.086 6.777-5.801h2v-2c6.132-4.818 13.232-7.257 20.535-9.707 3.334-1.244 6.257-2.714 9.34-4.48 3.591-2.054 6.719-3.438 10.82-4.247 4.464-1.097 8.745-2.906 13.035-4.543 3.003-.94 5.16-1.246 8.27-1.023v-2l2.52-.805 3.293-1.07 3.269-1.055c3.051-.99 3.051-.99 5.918-3.07h4v-2a895 895 0 0 1 4.813-1.5l2.707-.844C980 557 980 557 983 557v-2l5.438-1.812 3.324-1.114a393 393 0 0 1 5.758-1.867c3.697-1.172 7.106-2.461 10.543-4.27 5.755-2.986 11.404-4.264 17.937-3.937v-2l6-1 1-3c1.89-.914 1.89-.914 4.25-1.625l2.45-.746c2.418-.661 4.824-1.23 7.3-1.629v-4c-13.342-2.192-26.63-3.686-40.105-4.762-4.782-.393-9.557-.845-14.332-1.3l-2.563-.241-2.434-.232-2.095-.2c-2.017-.216-4.029-.49-6.037-.781-5.308-.667-10.606-.665-15.95-.687l-3.31-.017q-3.453-.014-6.908-.02c-3.491-.01-6.982-.041-10.473-.072q-3.373-.01-6.746-.016l-3.117-.038c-9.64.03-18.326 2.406-27.43 5.428-5.374 1.7-10.657 2.762-16.234 3.543-2.227.164-2.227.164-3.266 1.395-1.666.04-3.334.043-5 0v2h-5v2l-1.649.411c-2.494.627-4.985 1.264-7.476 1.902l-2.594.646c-4.79 1.234-8.856 2.795-13.281 5.041-2.174.517-4.364.975-6.562 1.375-5.415 1.18-8.294 2.02-11.438 6.625-1.263 3.611-1.114 7.158-1.098 10.953l.005 2c.005 2.1.018 4.198.03 6.297q.008 2.14.014 4.281.017 5.235.049 10.469h2l1 19h2c2.173 9.5 3.927 19.043 5.554 28.65a470 470 0 0 0 4.665 23.838c2.372 10.71 4.21 21.17 5.04 32.11.567 6.873 1.957 13.233 3.839 19.859a57 57 0 0 1 1.46 7.93c.042 3.418.042 3.418 1.442 4.613.282 4.619.232 9.249.25 13.875.03 1.959.03 1.959.063 3.957l.015 3.785.028 3.488C859 748 859 748 857.604 749.899 856 751 856 751 854 751v2c-5.539 3.505-10.44 5.624-16.934 6.64-2.12.268-2.12.268-4.066 1.36-2.88.233-5.741.42-8.625.563l-2.43.13q-2.972.159-5.945.307v2l-3.187.375c-3.611.434-3.611.434-5.989 1.563-15.251 5.737-32.274 4.824-47.93 1.785-3.012-.56-5.91-.976-8.957-1.223-3.707-.47-6.328-1.353-9.726-2.75-2.621-.89-5.16-1.285-7.899-1.687-5.65-.85-10.896-2.36-16.324-4.122a88 88 0 0 0-7.55-2.004c-3.38-.921-4.89-1.631-7.438-3.937-5.132-9.92-3.397-21.923-1.566-32.469.536-3.345.92-6.672 1.27-10.04.623-5.977 1.393-11.492 3.573-17.124 1.369-4.483 1.702-9.172 2.262-13.812.351-2.709.77-5.28 1.399-7.93 2.754-11.648 4.393-23.373 5.416-35.288.549-6.24.549-6.24 1.646-7.337.23-1.347.412-2.704.563-4.062L716 620h2c1.442-8.32 1.442-8.32 2.563-16.687C721 600 721 600 722 599c.354-2.306.657-4.62.938-6.937.533-4.35 1.133-8.616 2.187-12.875 1.006-4.78 1.128-9.508 1.188-14.375l.053-2.306c-.006-5.23-.911-8.87-3.366-13.507-2.18-1.809-2.18-1.809-5-3l-1.715-.922c-5.546-2.949-11.358-5.03-17.285-7.078v-2l-3.312.125c-5.35.02-10.466-1.05-15.688-2.125v-2l-2.98-.348c-4.253-.608-8.24-1.814-12.332-3.09-6.19-1.872-12.305-3.482-18.688-4.562q-3.032-.527-6.062-1.062l-2.786-.473C635 522 635 522 634 521a82 82 0 0 0-4.89-.13l-3.171-.009-3.478.006-3.597-.003q-3.801 0-7.602.006-5.692.005-11.383-.007c-11.602-.003-23.188.091-34.781.582-.926.04-1.851.078-2.805.118-5.809.278-11.452.936-17.18 1.968-3.786.57-7.542.78-11.363.969-5.797.29-11.113 1.136-16.75 2.5-3.562.125-3.562.125-6 0v4c3.44 2.636 7.214 3.881 11.313 5.188l3.238 1.042L528 538v2l3.504.324c4.432.557 8.297 1.848 12.433 3.489l2.127.817c3.593 1.396 7.127 2.87 10.624 4.495 3.543 1.643 7.13 2.77 10.875 3.875 5.192 1.535 9.66 3.481 14.437 6 1.325.367 2.657.709 4 1v2l3.25.125c3.947.477 6.821 1.812 10.313 3.688 5.896 3.124 11.556 4.728 17.988 6.308 3.973 1.012 7.658 2.332 11.449 3.879v2l2.375.25c12.772 2.643 26.271 9.965 36.828 17.523 1.778 1.286 1.778 1.286 3.84 2.176 2.249 1.208 3.423 2.51 5.02 4.489 1.483 1.821 2.883 3.513 4.62 5.097C683 609 683 609 683 612h2c1.713 7.71 1.713 16.29 0 24h-2l-.148 2.082-.227 2.73c-.07.894-.14 1.787-.21 2.708C682 646 682 646 680 649h-2l-1 7h-2v4h-2l-.687 2.313c-1.795 5.04-4.054 9.84-6.313 14.687h-2l-.25 2.125c-.925 3.548-2.693 5.85-4.75 8.875a103 103 0 0 0-1.562 3.813L656 695l-3 1-1 6h-2l-.48 1.652c-1.587 5.128-3.626 9.571-6.317 14.207-2.18 3.88-3.796 7.92-5.203 12.141h-2q-.042 4.906-.062 9.813l-.026 2.814-.01 2.705-.016 2.491c.027 2.359.027 2.359 1.114 5.177l2 1 2 1 1 3c1.66.682 3.328 1.346 5 2a115 115 0 0 1 5.25 4.313c4.095 3.443 8.075 6.181 12.816 8.632 2.559 1.396 4.695 3.2 6.934 5.055l2.25 1.125C676 780 676 780 677 782a134 134 0 0 0 6 3l4 2v2l1.813.375C691 790 691 790 694 792v2l5 1v2l1.73.32c2.625.786 4.356 1.966 6.582 3.555 2.753 1.899 5.326 3.524 8.438 4.75 3.366 1.424 5.454 3.045 8.25 5.375 2.386 1.57 4.79 3.11 7.207 4.633L733 817v2l5 1v2l1.629.727c3.004 1.613 5.593 3.586 8.308 5.648l3.09 2.336c8.699 6.698 8.699 6.698 10.973 10.289v2h2c1.287 2.573 1.168 4.502 1.188 7.375l.042 2.898c-.233 2.757-.82 4.376-2.23 6.727h-2l-1 5h-2l-1 4h-2c-.273.59-.547 1.18-.828 1.79-3.62 6.829-10.098 12.256-15.485 17.71l-1.887 1.927-1.788 1.792-1.61 1.623C732 895 732 895 730 895v2c-1.46 1.508-1.46 1.508-3.375 3.125l-1.898 1.633C723 903 723 903 721 903v2c-3.082 2.948-6.604 5.424-10 8l-2.242 1.712c-2.494 1.899-5 3.783-7.508 5.663l-2.472 1.876c-4.135 3.07-7.683 5.516-12.778 6.749v2h-3l-.09 1.777c-1.4 3.419-4.284 4.321-7.472 5.785l-1.924.919C661.811 945 661.811 945 657 945v2l-6 1v2l-5.176 2.148c-2.09.92-2.09.92-4.824 2.852h-3v2c-3.823 1.423-6.913 2.24-11 2v2h-3v2c-6.309 3.143-11.898 5.813-19 6l-2.55.117c-6.692.17-12.92-.702-19.45-2.117v-2l-9-3v-2h-2v-2l-1.875-.937L566 955v-2l-1.64-.66c-3.165-1.797-5.566-4.217-8.11-6.778l-1.535-1.486c-1.3-1.299-2.515-2.683-3.715-4.076v-3l-1.71-.145c-3.44-1.284-4.764-3.618-6.915-6.543l-2.352-3.136C538 924 538 924 536.977 920.73c-.684-2.86-.684-2.86-3.004-3.851L532 916c-.941-1.848-.941-1.848-1.562-4.062l-.72-2.442L529 907a632 632 0 0 0-1.562-4.5A398 398 0 0 1 526 898l-.633-2.004c-5.834-21.65 2.456-46.138 10.82-66.039 1.083-2.606 1.964-5.267 2.813-7.957h2v-4h2l.438-2.437C544 813 544 813 545 812c1.127-10.08 1.664-21.048-4.152-29.71-4.01-4.968-8.142-9.656-12.723-14.102-1.955-2.013-3.075-3.61-4.125-6.188h-2c-4.767-4.302-4.767-4.302-6-8q-1.99-1.019-4-2c-1.922-1.875-1.922-1.875-3.75-4l-1.86-2.125C505 744 505 744 505 742l-1.687-.625c-3.283-1.952-5.02-4.317-7.313-7.375v-2h-2v-2l-4-2v-3l-1.79-.266c-2.804-.931-3.75-2.191-5.585-4.484-2.134-2.565-4.014-4.566-6.625-6.687-3.37-2.879-5.781-6.01-8.387-9.575-1.637-2.218-1.637-2.218-4.613-3.988v-3l-1.723-.695c-2.87-1.645-4.566-3.67-6.714-6.18-2.333-2.718-4.506-5.08-7.313-7.312-2.543-2.049-2.546-2.794-3.25-5.813-.607-.3-1.214-.598-1.84-.906-2.383-1.207-3.498-2.4-5.16-4.469-1.732-2.114-3.41-4.024-5.375-5.937C430 664 430 664 430 662l-1.687-.75c-3.695-1.997-6.582-4.324-9.188-7.625-1.767-2.183-3.212-3.547-5.375-5.25-9.479-7.96-19.655-23.065-20.983-35.573-.899-16.013 1.497-29.084 10.233-42.802h2l.25-1.625c1.012-3.204 2.878-5.596 4.75-8.375l1-2.5c.983-2.456 2.227-4.461 3.73-6.629 2.261-3.332 4.357-6.772 6.489-10.187 1.79-2.696 3.756-5.163 5.781-7.684a65 65 0 0 0 2.063-3.5c.328-.59.657-1.178.996-1.785L431 526c1.625-2.937 1.625-2.937 3-5h2c.26-.732.52-1.464.79-2.219 1.236-2.842 2.645-4.875 4.585-7.281l1.887-2.367a566 566 0 0 1 3.925-4.758c1.492-1.954 2.677-3.806 3.875-5.937 1.514-2.686 2.906-5.129 4.938-7.438h2l.813-2.312c1.189-2.692 2.158-3.659 4.187-5.688a301 301 0 0 0 3.023-5.281c1.173-2.063 2.408-3.936 3.977-5.719h2l1-4h2l.766-1.703c1.41-2.625 3.092-4.745 4.984-7.047A370 370 0 0 0 491 446q1.53-2.064 3.063-4.125l1.347-1.82a143 143 0 0 1 3.887-4.774c3.734-4.45 7.1-9.183 10.506-13.886l1.552-2.106 1.396-1.915L514 416h2l.688-1.562L518 412l.965-1.824c1.208-2.005 2.31-3.59 4.035-5.176 3.126-.403 5-.448 8 0l3.938.438C538 406 538 406 539 407q3.493.553 7 1v2l3.938-.062A59 59 0 0 1 554 410l1 1c2.689.4 5.364.751 8.063 1.063l2.298.275q2.82.335 5.639.662v2l2.035-.14c9.777-.354 18.936 1.365 28.512 3.167 3.507.657 6.981 1.177 10.531 1.54C616 420 616 420 618 421c2.65.208 5.284.374 7.938.5 7.66.366 7.66.366 11.062 1.5v2l32-1v-2l2.012-.332c5.496-.915 5.496-.915 10.488-3.23 3.899-2.242 8.072-2.189 12.5-2.438v-2l1.836-.297c7.86-1.403 14.893-3.843 21.851-7.765 7.454-3.857 17.025-5.193 25.313-4.938v-2c4.522-1.711 8.556-2.352 13.375-2.625l3.773-.227L763 396z"/><path fill="#b7b7b7" d="M1658.961 1291.414c26.399 19.963 43.242 47.715 48.039 80.586.922 16.798 1.023 33.819-4 50l-.633 2.076c-4.657 14.747-12.144 28.314-22.367 39.924l-2.078 2.477c-19.342 22.472-46.866 35.965-76.145 39.246-30.093 2.21-61.846-4.812-85.623-24.23-3.871-3.347-7.519-6.894-11.154-10.493l-2.008-1.824c-19.48-17.985-30.755-47.628-32.118-73.573-1.081-34.233 9.309-64.857 32.787-90.187 40.038-41.949 108.31-47.966 155.3-14.002"/><path fill="#fffdfd" d="m798.938 950.688 2.203.782c7.397 2.665 14.653 5.648 21.896 8.703 3.004 1.266 6.015 2.514 9.025 3.764L837 966v2l2.5.25c3.623.776 6.226 2.045 9.465 3.762 2.935 1.425 5.875 2.198 9.035 2.988v2l2.59.781c3.565 1.274 6.668 2.877 9.972 4.719 3.755 2.087 7.41 4 11.438 5.5v2l1.938.25c10.182 2.494 20.15 8.376 29.062 13.75q2.143 1.12 4.313 2.188l2.113 1.042 1.574.77v2h2v2l2.5.188c4.625 1.073 9.095 3.407 12.5 6.812.36 7.459.36 7.459-2 11h-2l-1 3h-2v2l-4 1v2c-1.437 1.329-1.437 1.329-3.43 2.82l-2.16 1.621-2.285 1.684-2.262 1.707c-5.6 4.168-5.6 4.168-7.863 4.168v2a118 118 0 0 1-4.257 2.862c-2.912 1.901-5.589 4.096-8.306 6.263q-1.86 1.473-3.722 2.945l-1.883 1.49a807 807 0 0 1-8.332 6.44c-6.364 4.878-12.666 9.834-18.966 14.794a1303 1303 0 0 1-8.167 6.37 1046 1046 0 0 0-5.734 4.484l-3.57 2.79-1.723 1.363C840.226 1105 840.226 1105 838 1105v2a123 123 0 0 1-6.25 5l-1.777 1.367c-2.874 2.183-5.656 4.188-8.973 5.633v2l-4 1v2h-2v2a330 330 0 0 1-6 4 183 183 0 0 0-5.25 4.75c-17.152 15.796-17.152 15.796-27.406 15.574-5.274-.73-10.444-3.749-14.344-7.324v-2l-1.562-.687a72 72 0 0 1-6.188-3.75l-1.86-1.247L751 1134v-3l-2.148-.715c-3.36-1.514-5.685-3.443-8.477-5.848l-3.18-2.707-1.612-1.38c-6.066-5.17-12.257-10.155-18.677-14.877-2.116-1.635-4.1-3.379-6.093-5.16-3.539-3.138-6.815-5.68-11.375-7.126C697 1092 697 1092 695.188 1089.25c-3.271-4.859-7.71-7.763-12.688-10.75-4.366-2.62-8.978-5.442-12.031-9.57-1.844-2.423-4.081-3.458-6.727-4.88-2.64-1.592-4.565-3.873-6.742-6.05-2.618-2-5.29-3.912-7.969-5.828-28.656-20.532-28.656-20.532-30.605-27.11-.272-2.353-.217-3.821.574-6.062 2.351-2.557 4.9-4.436 8-6h3v-2l3.25-1.312c2.175-.925 3.808-1.733 5.688-3.188 2.612-1.9 5.302-2.751 8.355-3.754 1.91-.618 1.91-.618 2.707-2.746 1.58-.685 3.19-1.3 4.813-1.875 4.032-1.534 6.188-3.026 9.187-6.125 1.925-.867 3.877-1.544 5.875-2.227 2.061-.75 3.931-1.636 5.875-2.648 4.382-2.27 8.929-4.067 13.516-5.879 2.585-1.178 4.487-2.539 6.734-4.246 2.105-.879 2.105-.879 4.188-1.562 2.062-.64 2.062-.64 3.812-1.438l1-2c2.056-.88 4.146-1.68 6.25-2.437 3.372-1.217 6.417-2.36 9.484-4.223C723 964 723 964 726 964v-2l2.316-.664c7.058-2.09 13.82-4.473 20.569-7.405 3.517-1.482 6.293-2.25 10.115-1.931v-2c14.18-5.623 25.818-4.36 39.938.688"/><path fill="#ffbe9e" d="M588 517h36v2l1.984-.105c7.304-.217 14.113.589 21.016 3.105l1 2q-3.22-.462-6.437-.937l-3.622-.528C635 522 635 522 634 521a72 72 0 0 0-4.52-.205l-2.912-.06-3.166-.051-3.224-.063a5047 5047 0 0 0-10.24-.183l-6.924-.131q-8.507-.162-17.014-.307l2-1z"/><path fill="#ff814e" d="M722 548c4.182 3.778 4.854 5.892 5.238 11.45.346 13.297-1.3 26.575-4.238 39.55l-1 1a289 289 0 0 0-1.162 9.541c-.625 5.246-.625 5.246-2.838 7.459l2-24h2l1-16h2v-24l-3-1z"/><path fill="#ffaa80" d="M619 962h5c-8.59 7.216-19.29 7.62-30 7-3.7-.528-7.348-1.209-11-2v-2l-3-1 2-1 2.45 1.418c4.864 2.168 9.101 1.983 14.362 1.894l2.87.01c6.056-.046 11.454-.81 17.318-2.322z"/><path fill="#ff8e5b" d="M705 678h2c-.558 11.364-.558 11.364-2.437 16.188-1.967 5.164-2.34 10.495-2.828 15.961-.354 3.682-.644 5.714-2.735 8.851q.214-4.032.438-8.062l.119-2.28A136 136 0 0 1 701 695h2l-.062-3.937A59 59 0 0 1 703 687l1-1c.23-1.347.412-2.704.563-4.062z"/><path fill="#ffa998" d="M831 552c1.461 2.922 1.111 5.499 1.098 8.758l-.005 2.01c-.005 2.118-.018 4.238-.03 6.357q-.008 2.154-.014 4.309-.017 5.283-.049 10.566h2v8l-.937-1.937c-.898-2-.898-2-2.063-3.063a65 65 0 0 1-.535-4.086l-.265-2.557-.263-2.732-.266-2.756c-1.636-17.693-1.636-17.693 1.329-22.869"/><path fill="#ff9f70" d="M542 786c2.583 1.292 2.939 2.346 4 5 .414 3.448.324 6.904.313 10.375l.048 2.828c.004 5.378-.396 9.12-3.361 13.797h-2l-1 4c-.415-4.051.154-6.54 2-10.062 2.761-5.758 2.722-11.67 2-17.938a124 124 0 0 0-2-4z"/><path fill="#ff774a" d="m763 858 1 4h-2l-.312 2.813c-.693 3.212-1.076 4.306-3.688 6.187h-2l-.75 2.438C754 876 754 876 751.875 876.813L750 877v2l-2-1 2-3h2l.938-1.875L755 869h2l1-4h2l1-5h2z"/><path fill="#ffaca1" d="m920 731 2 1c.058 3.125.094 6.25.125 9.375l.05 2.695.02 2.578.032 2.38C922 751 922 751 920 753l-.625 2.313c-2.03 3.969-5.386 5.83-9.375 7.687h-3l2.082-1.828 2.73-2.422 2.708-2.39c.818-.78 1.637-1.558 2.48-2.36l1.813-1.687c1.971-3.84 1.497-7.823 1.375-12.063l-.042-2.691A538 538 0 0 0 920 731"/><path fill="#ff7c68" d="M808 398c7.926-.278 14.345 1.74 21.79 4.281 2.016.656 4.03 1.199 6.085 1.719 2.97.95 4.251 1.575 6.125 4l-7-1v-2l-10-1v-2l-11-1v-2h-6z"/><path fill="#ff8b7b" d="M1012 789h2c-.01.64-.02 1.28-.032 1.94-.041 2.916-.067 5.832-.093 8.747l-.05 3.053-.02 2.96-.032 2.713c.25 2.849 1.133 4.962 2.227 7.587-.375 2.313-.375 2.313-1 4l-2-1c-2.42-9.904-2.741-19.987-1-30"/><path fill="#ffa071" d="m675 656 2 1c-.968 2.606-1.967 4.947-3.437 7.313-2.479 4.262-3.976 8.885-5.5 13.562-1.285 2.57-2.41 3.152-5.063 4.125l1-5h2l.309-2.105c.808-3.386 2.158-6.118 3.754-9.207.547-1.07 1.095-2.138 1.66-3.239L673 660h2z"/><path fill="#ff9769" d="M712 645c1.285 4.271.52 7.892-.312 12.188l-.426 2.294c-.974 5.2-2.045 10.37-3.262 15.518-.951-3.107-1.011-5.545-.66-8.766l.283-2.695.314-2.789.303-2.836q.37-3.458.76-6.914h2z"/><path fill="#ff8a73" d="M554 410c3.773.249 7.542.528 11.313.813l3.248.212 3.115.245 2.872.206C577 412 577 412 580 415h-9v-2l-3.465-.148-4.472-.227c-.755-.03-1.51-.062-2.288-.094-1.93-.104-3.854-.31-5.775-.531z"/><path fill="#ffb8a5" d="M793 844h2l-.035 2.887-.028 3.8-.035 3.762c.083 3.013.39 5.634 1.098 8.551l-2-1c-.625-3.062-.625-3.062-1-6h-2a280 280 0 0 1-.125-4.312l-.07-2.426C791 847 791 847 793 844"/><path fill="#ffb6a9" d="M846 757c-1.631 1.631-3.71 1.59-5.937 2-3.648.65-3.648.65-7.063 2-2.037.229-4.08.41-6.125.563l-3.32.253L821 762v-2h8v-2a1316 1316 0 0 1 7.375-1.062l2.117-.315c5.281-.736 5.281-.736 7.508.377"/><path fill="#ff725e" d="m853 411 7 1v2l1.941.078c6.118.401 9.972 1.493 15.059 4.922-3.815 1.467-6.29.433-10-1v-2l-3.625-.312c-3.937-.477-6.916-1.7-10.375-3.688z"/><path fill="#ff945f" d="m544 932 3 2v2l1.813.188c3.105 1.153 3.565 2.942 5.187 5.812 1.93 2.396 3.954 4.703 6 7-3.34-1.484-5.83-3.394-8.562-5.812l-2.317-2.02c-2.58-2.637-5.121-5.335-5.121-9.168"/><path fill="#ff806d" d="M952 420c-2.405 1.203-3.95 1.1-6.625 1.063l-2.477-.028L941 421v2h-12v-1c4.26-1.577 8.097-2.364 12.625-2.687l3.352-.262c2.624-.044 4.55.147 7.023.949"/><path fill="#ff9c6b" d="m660 944 2 1-3 1v2c-4.963 2.371-9.46 4.432-15 5 1.25-1.5 1.25-1.5 3-3h4v-2l6-1v-2z"/><path fill="#ffc0b7" d="M893 994c3.467 1.35 6.84 2.812 10.188 4.438.86.41 1.72.822 2.605 1.246C908 1001 908 1001 910 1004l-5-1v-2l-6-1v-2l-6-1z"/><path fill="#ffa782" d="M716 620h2c-.366 7.455-1.21 14.05-4 21-1.301-4.32-.724-7.58 0-12l1-1c.23-1.347.412-2.704.563-4.062z"/><path fill="#ffad91" d="M738 762c13.94 1.127 13.94 1.127 20 3l1 2c-7.562-.334-14.062-.871-21-4z"/><path fill="#ffc2a4" d="M629 1013v2h-3l-.812 1.938C624 1019 624 1019 621 1020v9c-2-2-2-2-2.625-5.75.043-2.919.337-3.938 2.344-6.11 5.442-4.14 5.442-4.14 8.281-4.14"/><path fill="#ffb6ac" d="M997 551v2h-3v2c-9.41 2.112-9.41 2.112-14 3l3-1v-2q2.936-1.005 5.875-2l3.305-1.125C995 551 995 551 997 551"/><path fill="#ff7d6b" d="M896 528c-6.593 2.96-12.633 5.36-20 5v-1h5v-2c1.746-.533 3.497-1.05 5.25-1.562.975-.29 1.95-.58 2.953-.88 2.76-.55 4.188-.496 6.797.442"/><path fill="#ff7f3f" d="m650 585 7 1v2l2.875.25c3.125.75 3.125.75 4.5 2.813L665 593c-3.542-1.366-6.926-2.91-10.312-4.625l-2.676-1.352L650 586z"/><path fill="#ff8f5c" d="m708 914 2 1c-2.125 3.188-3.665 4.25-7 6h-2l-1 3-4-1z"/><path fill="#ffa391" d="M733 403c-1 1-1 1-3.562 1.063L727 404v2q-2.184.543-4.375 1.063l-2.46.597C718 408 718 408 716 407q2.34-.976 4.688-1.937l2.636-1.09c6.73-2.446 6.73-2.446 9.676-.973"/><path fill="#ff8c52" d="M635 735h1v14h3l1 5c-3-1-3-1-5-4a96 96 0 0 1-.125-7.687l.027-2.127c.024-1.73.06-3.458.098-5.186"/><path fill="#ff9b69" d="m653 696 2 1-2 8-4 1-1 4-1-2a101 101 0 0 1 3-6h2z"/><path fill="#ff8142" d="m487 449 2 1a799 799 0 0 1-3.312 4.375l-1.864 2.46C482 459 482 459 479 461v-3l2-1 1-3 2-1 1-3z"/><path fill="#ff816a" d="M749 398c-1 1-1 1-3.562 1.063L743 399v2l-8 1 1-2h2v-2a491 491 0 0 1 4.375-.562l2.46-.317C747 397 747 397 749 398"/><path fill="#ff9661" d="M600 566c4.97.514 9.29 1.234 14 3v2c-5.414-.467-9.205-1.243-14-4z"/><path fill="#ff8548" d="M637 958c-4.61 2.95-7.365 4.55-13 4l3-1v-2q1.935-.543 3.875-1.062l2.18-.598C635 957 635 957 637 958"/><path fill="#ff7e44" d="M703 798c4.128.607 7.332 2.038 11 4v3c-4.108-1.45-7.469-3.454-11-6z"/><path fill="#ffc9af" d="M643 1005v2l-3 1-2 3c-1.945.512-1.945.512-4.125.688L630 1012c2-2 2-2 4.375-2.937 3.079-1.247 5.336-4.063 8.625-4.063"/><path fill="#ffbd9d" d="M670 991v2h-3v2c-3 2-3 2-5.187 1.625L660 996c3.172-3.512 5.253-5 10-5"/><path fill="#ffbab0" d="m891 593 2 1-3 1-.875 1.875c-1.506 2.844-3.257 3.763-6.125 5.125l-2-1c5.75-5 5.75-5 8-5v-2z"/><path fill="#ff7a67" d="m1032 539-6 1v2h-6c2-3 2-3 4.875-3.75 2.775-.222 4.53-.148 7.125.75"/><path fill="#ff915b" d="m662 682 1 2a136 136 0 0 1-3 7h-3q.965-1.97 1.938-3.937l1.09-2.215C661 683 661 683 662 682"/><path fill="#ffbc9c" d="M530 908h2v3h2l1 7c-4.238-2.826-3.977-5.122-5-10"/><path fill="#ffb7a9" d="M828 815v3l-6 1v2l-4 1 1-2h2v-2c4.385-3 4.385-3 7-3"/><path fill="#ffa394" d="M857 539c-4.362 2.447-8.027 3.503-13 4l1-2h4v-2c3.053-.981 4.947-.981 8 0"/><path fill="#ff9867" d="M691 536h8v2l4 2-3 1v-2h-4v-2h-5z"/><path fill="#ffb48f" d="m680 985 2 1-2.937.813L676 988l-1 3-4-1c5.625-3.875 5.625-3.875 9-5"/><path fill="#ff935e" d="m629 577 9 1v2l2 1c-3.806-.672-7.352-1.727-11-3z"/><path fill="#ffc2a4" d="M619 573q2.221.423 4.438.875l2.496.492L628 575l1 2h-7v-2l-3-1z"/><path fill="#ff8574" d="M877 420h8v2l5 1c-2.9 1.45-4.56.454-7.625-.437l-3.04-.872L877 421z"/><path fill="#ff7b48" d="m733 893 1 3-6 4-2-1 4-2v-2z"/><path fill="#ff6d59" d="m1132 657 2 1c-2.462 4.8-2.462 4.8-5.187 5.813L1127 664l2-4h2z"/><path fill="#ff6e55" d="m844 1101 1 2c-1.812 2-1.812 2-4 4h-3v-2a125 125 0 0 1 6-4"/><path fill="#ff7f41" d="M688 1083c3.914 1.27 5.79 2.512 8 6h-4v-3h-3z"/><path fill="#ff8e57" d="M537 778c2.784 1.706 3.854 2.476 4.75 5.688L542 786l-3-2v-2h-2z"/><path fill="#ffc1a3" d="M569 554q2.222.676 4.438 1.375l2.496.773C578 557 578 557 579 559l-7-1v-2l-3-1z"/></svg>