<svg xmlns="http://www.w3.org/2000/svg" width="1em" height="1em" viewBox="0 0 24 24">
  <title>Edge TTS</title>
  <defs>
    <linearGradient id="edgeGradient" x1="0%" x2="100%" y1="0%" y2="100%">
      <stop offset="0%" stop-color="#0078D4" />
      <stop offset="100%" stop-color="#00AEEF" />
    </linearGradient>
  </defs>
  <path fill="url(#edgeGradient)" d="M4 4h10a6 6 0 0 1 0 12H8.5a2.5 2.5 0 1 1 0-5H14a1.5 1.5 0 1 0 0-3H4z"/>
  <path fill="#50E6FF" d="M8 13h6a3 3 0 0 1 0 6H6a4 4 0 0 1-4-4V6a2 2 0 0 1 2-2h2z" opacity="0.85"/>
  <path fill="#0063B1" d="M20 7.5a1.5 1.5 0 0 1 3 0v9a1.5 1.5 0 0 1-3 0z"/>
  <path fill="#50E6FF" d="M17 9.5a1.5 1.5 0 0 1 3 0v5a1.5 1.5 0 0 1-3 0z" opacity="0.7"/>
</svg>
