<svg xmlns="http://www.w3.org/2000/svg" width="200" height="200" class="icon" viewBox="0 0 1024 1024"><path fill="#353535" d="M42.667 512c0 44.288 6.229 87.04 16.81 128h623.19a128 128 0 1 0 0-256H59.477c-10.581 40.96-16.81 83.712-16.81 128"/><path fill="#ffc100" d="M929.621 219.563a578 578 0 0 0 23.979-28.075A510.72 510.72 0 0 0 554.667 0C363.86 0 197.803 104.576 109.696 259.328h727.04c35.072 0 69.163-13.867 92.885-39.765"/><path fill="#00c2b3" d="M839.637 768H111.701c88.619 152.875 253.526 256 442.966 256 161.365 0 305.024-74.752 398.848-191.36a581 581 0 0 0-20.523-24.235C909.482 782.037 874.965 768 839.637 768"/></svg>