<svg xmlns="http://www.w3.org/2000/svg" width="1em" height="1em" style="flex:none;line-height:1" viewBox="0 0 24 24"><title>Fireworks</title><path fill="#5019c5" fill-rule="evenodd" d="m14.8 5-2.801 6.795L9.195 5H7.397l3.072 7.428a1.64 1.64 0 0 0 3.038.002L16.598 5zm1.196 10.352 5.124-5.244-.699-1.669-5.596 5.739a1.66 1.66 0 0 0-.343 1.807 1.64 1.64 0 0 0 1.516 1.012L16 17l8-.02-.699-1.669-7.303.041zM2.88 10.104l.699-1.669 5.596 5.739a1.66 1.66 0 0 1 .343 1.807 1.64 1.64 0 0 1-1.516 1.012l-8-.018-.002.002.699-1.669 7.303.042z" clip-rule="evenodd"/></svg>