<svg xmlns="http://www.w3.org/2000/svg" width="200" height="200" class="icon" viewBox="0 0 1024 1024"><path fill="#f05032" d="M1004.609 466.342 557.529 19.295a66.09 66.09 0 0 0-93.338 0l-92.635 92.796L489.31 229.843a78.423 78.423 0 0 1 99.295 99.867l113.402 113.494a78.371 78.371 0 1 1-47.134 44.51L548.666 382.091v278.387a78.532 78.532 0 1 1-90.496 125.785 78.236 78.236 0 0 1 0-110.842 80.4 80.4 0 0 1 25.831-17.313V377.003a78.577 78.577 0 0 1-42.498-102.842l-115.706-116.25L19.223 464.295a66.397 66.397 0 0 0 0 93.403l447.112 446.979a65.953 65.953 0 0 0 93.274 0l445-445a65.876 65.876 0 0 0 0-93.307z"/></svg>