<svg xmlns="http://www.w3.org/2000/svg" width="1024" height="1024" fill="none" viewBox="0 0 1024 1024"><g filter="url(#a)"><rect width="824" height="824" x="100" y="100" fill="url(#b)" rx="179"/></g><g filter="url(#c)"><path fill="#4e4e4e" d="M225.474 549.686c0 22.745-1.819 30.153-6.498 35.612A28.34 28.34 0 0 1 200 592.577l1.82 12.997a44.45 44.45 0 0 0 29.633-10.788 51.98 51.98 0 0 0 11.437-38.991v-86.041h-17.416z"/></g><g filter="url(#d)"><path fill="#4e4e4e" d="M355.358 539.435c0 9.748 0 18.456.78 25.994h-15.466l-1.04-15.466a36 36 0 0 1-31.583 17.676c-15.076 0-33.012-8.188-33.012-41.591v-55.497h17.416v51.988c0 18.066 5.588 30.153 21.315 30.153a24.303 24.303 0 0 0 24.564-24.564v-58.227h17.416v69.014z"/></g><g filter="url(#e)"><path fill="#4e4e4e" d="M388.371 501.47c0-12.087 0-21.965-.78-30.933h15.597l.78 16.246a37.69 37.69 0 0 1 34.052-18.455c23.135 0 40.551 19.365 40.551 48.219 0 34.052-20.926 50.948-43.541 50.948a33.67 33.67 0 0 1-29.503-14.946v51.988h-17.156zm17.156 25.344a39 39 0 0 0 .78 7.019 26.78 26.78 0 0 0 25.994 20.145c18.326 0 29.114-14.946 29.114-36.651 0-18.976-10.138-35.222-28.464-35.222a29.894 29.894 0 0 0-27.424 28.463z"/></g><g filter="url(#f)"><path fill="#4e4e4e" d="m509.601 470.449 20.925 56.018c2.21 6.238 4.549 13.777 6.109 19.365 1.819-5.718 3.769-12.997 6.108-19.755l18.976-55.628h18.326l-25.994 67.585c-12.997 32.493-20.925 49.259-32.883 59.397a47.3 47.3 0 0 1-21.315 11.177l-4.289-14.557a46.1 46.1 0 0 0 15.207-8.448 52 52 0 0 0 14.686-19.235 13 13 0 0 0 1.43-4.159 15 15 0 0 0-1.17-4.549l-35.352-87.471h18.976z"/></g><g filter="url(#g)"><path fill="#4e4e4e" d="M626.279 443.184v27.293h24.955v12.997h-24.955v51.209c0 11.697 3.38 18.456 12.997 18.456a39 39 0 0 0 10.138-1.17l.78 12.997a42.9 42.9 0 0 1-15.467 2.339 24.16 24.16 0 0 1-18.845-7.278 34.97 34.97 0 0 1-6.759-24.694v-51.988h-14.816v-12.998h15.076v-23.134z"/></g><g filter="url(#h)"><path fill="#4e4e4e" d="M683.315 520.98a30.54 30.54 0 0 0 8.849 24.034 30.6 30.6 0 0 0 11.044 7.065 30.6 30.6 0 0 0 12.99 1.783 63.4 63.4 0 0 0 25.994-4.939l2.989 12.997a78 78 0 0 1-31.843 5.849 44.19 44.19 0 0 1-34.52-13.098 44.18 44.18 0 0 1-12.529-34.731c0-28.594 17.026-51.209 44.84-51.209 31.193 0 38.991 27.294 38.991 44.71a65 65 0 0 1 0 8.059h-67.195zm50.949-12.997a24.58 24.58 0 0 0-5.699-19.539 24.56 24.56 0 0 0-18.476-8.535 28.724 28.724 0 0 0-26.644 28.074z"/></g><g filter="url(#i)"><path fill="#4e4e4e" d="M776.546 500.005c0-11.178 0-20.796-.78-29.634h15.597v18.586h.779a28.72 28.72 0 0 1 25.995-20.795 19 19 0 0 1 4.938 0v16.246a26 26 0 0 0-5.978 0 24.305 24.305 0 0 0-23.265 22.095 48 48 0 0 0-.78 8.058v50.559h-17.156v-64.985z"/></g><g filter="url(#j)"><path fill="#767677" d="M768.913 209.396a44.06 44.06 0 0 1-24.841 42.376 44.06 44.06 0 0 1-48.626-6.952 44.06 44.06 0 0 1-11.973-47.639 44.05 44.05 0 0 1 39.561-29.115 43.53 43.53 0 0 1 31.534 11.125 43.54 43.54 0 0 1 14.345 30.205"/></g><g filter="url(#k)"><path fill="#f37726" d="M511.914 718.401c-116.972 0-219.78-41.98-272.937-103.976a291.002 291.002 0 0 0 439.236 137.869 291 291 0 0 0 106.64-137.869c-53.028 61.996-155.445 103.976-272.939 103.976"/></g><g filter="url(#l)"><path fill="#f37726" d="M511.914 315.258c116.974 0 219.781 41.981 272.939 103.976a291.01 291.01 0 0 0-272.939-190.067 291.01 291.01 0 0 0-272.937 190.067c53.157-62.125 155.445-103.976 272.937-103.976"/></g><g filter="url(#m)"><path fill="#9e9e9e" d="M350.887 839.047a55.5 55.5 0 0 1-63.182 58.403 55.49 55.49 0 0 1-46.017-41.364 55.497 55.497 0 0 1 51.362-69.027 54.975 54.975 0 0 1 57.837 51.988"/></g><g filter="url(#n)"><path fill="#616262" d="M252.271 301.131a31.98 31.98 0 0 1-30.029-18.817 31.97 31.97 0 0 1 21.784-44.257 31.97 31.97 0 0 1 39.308 29.801 32.36 32.36 0 0 1-31.063 33.273"/></g><defs><filter id="a" width="868" height="868" x="78" y="86" color-interpolation-filters="sRGB" filterUnits="userSpaceOnUse"><feFlood flood-opacity="0" result="BackgroundImageFix"/><feColorMatrix in="SourceAlpha" values="0 0 0 0 0 0 0 0 0 0 0 0 0 0 0 0 0 0 127 0"/><feMorphology in="SourceAlpha" operator="dilate" radius="2" result="effect1_dropShadow"/><feOffset dy="8"/><feGaussianBlur stdDeviation="10"/><feColorMatrix values="0 0 0 0 0 0 0 0 0 0 0 0 0 0 0 0 0 0 0.25 0"/><feBlend in2="BackgroundImageFix" result="effect1_dropShadow"/><feBlend in="SourceGraphic" in2="effect1_dropShadow" result="shape"/></filter><filter id="c" width="83.241" height="175.823" x="180" y="453.754" color-interpolation-filters="sRGB" filterUnits="userSpaceOnUse"><feFlood flood-opacity="0" result="BackgroundImageFix"/><feColorMatrix in="SourceAlpha" values="0 0 0 0 0 0 0 0 0 0 0 0 0 0 0 0 0 0 127 0"/><feOffset dy="4"/><feGaussianBlur stdDeviation="10"/><feColorMatrix values="0 0 0 0 0 0 0 0 0 0 0 0 0 0 0 0 0 0 0.25 0"/><feBlend in2="BackgroundImageFix" result="effect1_dropShadow"/><feBlend in="SourceGraphic" in2="effect1_dropShadow" result="shape"/></filter><filter id="d" width="121.102" height="137.743" x="255.037" y="453.901" color-interpolation-filters="sRGB" filterUnits="userSpaceOnUse"><feFlood flood-opacity="0" result="BackgroundImageFix"/><feColorMatrix in="SourceAlpha" values="0 0 0 0 0 0 0 0 0 0 0 0 0 0 0 0 0 0 127 0"/><feOffset dy="4"/><feGaussianBlur stdDeviation="10"/><feColorMatrix values="0 0 0 0 0 0 0 0 0 0 0 0 0 0 0 0 0 0 0.25 0"/><feBlend in2="BackgroundImageFix" result="effect1_dropShadow"/><feBlend in="SourceGraphic" in2="effect1_dropShadow" result="shape"/></filter><filter id="e" width="130.979" height="176.244" x="367.591" y="452.293" color-interpolation-filters="sRGB" filterUnits="userSpaceOnUse"><feFlood flood-opacity="0" result="BackgroundImageFix"/><feColorMatrix in="SourceAlpha" values="0 0 0 0 0 0 0 0 0 0 0 0 0 0 0 0 0 0 127 0"/><feOffset dy="4"/><feGaussianBlur stdDeviation="10"/><feColorMatrix values="0 0 0 0 0 0 0 0 0 0 0 0 0 0 0 0 0 0 0.25 0"/><feBlend in2="BackgroundImageFix" result="effect1_dropShadow"/><feBlend in="SourceGraphic" in2="effect1_dropShadow" result="shape"/></filter><filter id="f" width="129.68" height="178.419" x="470.365" y="454.189" color-interpolation-filters="sRGB" filterUnits="userSpaceOnUse"><feFlood flood-opacity="0" result="BackgroundImageFix"/><feColorMatrix in="SourceAlpha" values="0 0 0 0 0 0 0 0 0 0 0 0 0 0 0 0 0 0 127 0"/><feOffset dy="4"/><feGaussianBlur stdDeviation="10"/><feColorMatrix values="0 0 0 0 0 0 0 0 0 0 0 0 0 0 0 0 0 0 0.25 0"/><feBlend in2="BackgroundImageFix" result="effect1_dropShadow"/><feBlend in="SourceGraphic" in2="effect1_dropShadow" result="shape"/></filter><filter id="g" width="96.927" height="164.169" x="574.307" y="427.184" color-interpolation-filters="sRGB" filterUnits="userSpaceOnUse"><feFlood flood-opacity="0" result="BackgroundImageFix"/><feColorMatrix in="SourceAlpha" values="0 0 0 0 0 0 0 0 0 0 0 0 0 0 0 0 0 0 127 0"/><feOffset dy="4"/><feGaussianBlur stdDeviation="10"/><feColorMatrix values="0 0 0 0 0 0 0 0 0 0 0 0 0 0 0 0 0 0 0.25 0"/><feBlend in2="BackgroundImageFix" result="effect1_dropShadow"/><feBlend in="SourceGraphic" in2="effect1_dropShadow" result="shape"/></filter><filter id="h" width="124.115" height="139.141" x="646.13" y="452.731" color-interpolation-filters="sRGB" filterUnits="userSpaceOnUse"><feFlood flood-opacity="0" result="BackgroundImageFix"/><feColorMatrix in="SourceAlpha" values="0 0 0 0 0 0 0 0 0 0 0 0 0 0 0 0 0 0 127 0"/><feOffset dy="4"/><feGaussianBlur stdDeviation="10"/><feColorMatrix values="0 0 0 0 0 0 0 0 0 0 0 0 0 0 0 0 0 0 0.25 0"/><feBlend in2="BackgroundImageFix" result="effect1_dropShadow"/><feBlend in="SourceGraphic" in2="effect1_dropShadow" result="shape"/></filter><filter id="i" width="87.309" height="137.119" x="755.766" y="452" color-interpolation-filters="sRGB" filterUnits="userSpaceOnUse"><feFlood flood-opacity="0" result="BackgroundImageFix"/><feColorMatrix in="SourceAlpha" values="0 0 0 0 0 0 0 0 0 0 0 0 0 0 0 0 0 0 127 0"/><feOffset dy="4"/><feGaussianBlur stdDeviation="10"/><feColorMatrix values="0 0 0 0 0 0 0 0 0 0 0 0 0 0 0 0 0 0 0.25 0"/><feBlend in2="BackgroundImageFix" result="effect1_dropShadow"/><feBlend in="SourceGraphic" in2="effect1_dropShadow" result="shape"/></filter><filter id="j" width="128.12" height="128.145" x="660.875" y="152" color-interpolation-filters="sRGB" filterUnits="userSpaceOnUse"><feFlood flood-opacity="0" result="BackgroundImageFix"/><feColorMatrix in="SourceAlpha" values="0 0 0 0 0 0 0 0 0 0 0 0 0 0 0 0 0 0 127 0"/><feOffset dy="4"/><feGaussianBlur stdDeviation="10"/><feColorMatrix values="0 0 0 0 0 0 0 0 0 0 0 0 0 0 0 0 0 0 0.25 0"/><feBlend in2="BackgroundImageFix" result="effect1_dropShadow"/><feBlend in="SourceGraphic" in2="effect1_dropShadow" result="shape"/></filter><filter id="k" width="585.876" height="230.067" x="218.977" y="598.425" color-interpolation-filters="sRGB" filterUnits="userSpaceOnUse"><feFlood flood-opacity="0" result="BackgroundImageFix"/><feColorMatrix in="SourceAlpha" values="0 0 0 0 0 0 0 0 0 0 0 0 0 0 0 0 0 0 127 0"/><feOffset dy="4"/><feGaussianBlur stdDeviation="10"/><feColorMatrix values="0 0 0 0 0 0 0 0 0 0 0 0 0 0 0 0 0 0 0.25 0"/><feBlend in2="BackgroundImageFix" result="effect1_dropShadow"/><feBlend in="SourceGraphic" in2="effect1_dropShadow" result="shape"/></filter><filter id="l" width="585.876" height="230.067" x="218.977" y="213.167" color-interpolation-filters="sRGB" filterUnits="userSpaceOnUse"><feFlood flood-opacity="0" result="BackgroundImageFix"/><feColorMatrix in="SourceAlpha" values="0 0 0 0 0 0 0 0 0 0 0 0 0 0 0 0 0 0 127 0"/><feOffset dy="4"/><feGaussianBlur stdDeviation="10"/><feColorMatrix values="0 0 0 0 0 0 0 0 0 0 0 0 0 0 0 0 0 0 0.25 0"/><feBlend in2="BackgroundImageFix" result="effect1_dropShadow"/><feBlend in="SourceGraphic" in2="effect1_dropShadow" result="shape"/></filter><filter id="m" width="150.995" height="151.019" x="220" y="770.98" color-interpolation-filters="sRGB" filterUnits="userSpaceOnUse"><feFlood flood-opacity="0" result="BackgroundImageFix"/><feColorMatrix in="SourceAlpha" values="0 0 0 0 0 0 0 0 0 0 0 0 0 0 0 0 0 0 127 0"/><feOffset dy="4"/><feGaussianBlur stdDeviation="10"/><feColorMatrix values="0 0 0 0 0 0 0 0 0 0 0 0 0 0 0 0 0 0 0.25 0"/><feBlend in2="BackgroundImageFix" result="effect1_dropShadow"/><feBlend in="SourceGraphic" in2="effect1_dropShadow" result="shape"/></filter><filter id="n" width="103.932" height="103.946" x="199.416" y="221.197" color-interpolation-filters="sRGB" filterUnits="userSpaceOnUse"><feFlood flood-opacity="0" result="BackgroundImageFix"/><feColorMatrix in="SourceAlpha" values="0 0 0 0 0 0 0 0 0 0 0 0 0 0 0 0 0 0 127 0"/><feOffset dy="4"/><feGaussianBlur stdDeviation="10"/><feColorMatrix values="0 0 0 0 0 0 0 0 0 0 0 0 0 0 0 0 0 0 0.25 0"/><feBlend in2="BackgroundImageFix" result="effect1_dropShadow"/><feBlend in="SourceGraphic" in2="effect1_dropShadow" result="shape"/></filter><linearGradient id="b" x1="512" x2="512" y1="100" y2="924" gradientUnits="userSpaceOnUse"><stop stop-color="#fff"/><stop offset="1" stop-color="#e5effc"/></linearGradient></defs></svg>