<svg xmlns="http://www.w3.org/2000/svg" width="752.013" height="56.1mm" viewBox="0 0 198.97 56.1"><path d="m749.4 353.8 5.4-204.1 20.4-.8 45.1 98.8 42.5-99h19l6.5 205h-38l-2-98-24.9 61.4c-1 1.3-8 1.3-9-1l-25.6-61.4-1.5 99h-38zm-21.9-113.7c-10.8-27.1-53.1-24.5-75.3-14.7l3.1 28.4c9.2-1.9 30-8 37.5-1 .9.9 3.5 5.7 3.5 6.5v16.5c-31.8-17.2-54.5 6.1-54.4 38.5 0 36.5 28.4 57.3 56.4 27.5v12h32V249.3c0-.5-2.4-8-2.8-9.2m-31.1 87.7c-8.4 1.7-15.4 2.9-19.2-6.3-5.8-14 .6-37.9 19.2-27.2zm203 26L947 148.7h30.3c0 .1 47 205.1 47 205.1h-38l-7.9-33.6h-34.1l-7.9 33.6zm52-68h20l-10.5-56zm-500-135.5 1.5-1.5h37.5v168.5l1.5 1.5h42.5v35h-83zm138-1.5v170h44v35h-83v-205z" class="st1" style="fill:#fff" transform="translate(-119.4 -38.1)scale(.26458)"/><path d="m1163.3 226.8-13.5 24c-17.8-13.7-44.2-15.7-62-1-28.7 23.7-26.7 78.5 18 78.8 12.5 0 23.1-5.9 34.5-9.8l6 23.9c-10.1 4.7-20.4 9.5-31.5 11-101.2 13.8-95.4-132.3-3.9-139.9 19.2-1.6 36.1 3.4 52.5 13z" class="st0" style="fill:#ff8236" transform="translate(-119.4 -38.1)scale(.26458)"/><path d="M1093.4 203.8c-15.4 4.6-29.7 13.1-40.5 25-2-24.2 3.4-73.1 30.3-82.7 4-1.4 17.7-4.9 17.3 2.2s-9.9 19.3-12.2 25.9c-4 11.6-.3 19.6 5.2 29.7zm23 104v-17h-17v-14h15.5l1.5-1.5v-16.5h15v18h16v14h-16v17zm70 0h-15v-17h-16v-14h16v-18h15v16.5l1.5 1.5h15.5v14h-17zm-44.1-150.9c2 3-9.3 15.9-11.1 19.2-5.2 9.8-1.7 15.4 2.2 24.7-11.3-1.7-21.8-.3-33 1 2.5-21.5 14.6-52.8 41.9-44.9" class="st0" style="fill:#ff8236" transform="translate(-119.4 -38.1)scale(.26458)"/></svg>