<svg xmlns="http://www.w3.org/2000/svg" width="200" height="200" class="icon" viewBox="0 0 1024 1024"><path fill="#fff" d="M44.16 0h935.68c24.32 0 44.16 19.84 44.16 44.16v935.68a44.16 44.16 0 0 1-44.16 44.16H44.16A44.16 44.16 0 0 1 0 979.84V44.16C0 19.84 19.84 0 44.16 0"/><path fill="#4fc4f9" d="M254.592 288.256a314.88 314.88 0 0 1 446.4 0 316.8 316.8 0 0 1 0 447.68 315.07 315.07 0 0 1-446.4-.192L53.12 533.568a30.59 30.59 0 0 1 0-43.2zm398.592 59.392a231.36 231.36 0 0 0-327.936 0L177.28 496.128a22.59 22.59 0 0 0 0 31.744l148.224 148.672a231.36 231.36 0 0 0 327.936 0 232.96 232.96 0 0 0-.192-328.896zm-162.112 8.448c86.08 0 155.904 70.848 155.904 158.208 0 87.424-69.76 158.272-155.904 158.272s-155.968-70.848-155.968-158.272c0-87.36 69.824-158.208 155.968-158.208M966.208 492.8l-89.856-90.24a7.488 7.488 0 0 0-12.672 7.04 477.95 477.95 0 0 1 0 209.472c-1.664 7.488 7.424 12.352 12.672 7.04l89.856-90.176a30.656 30.656 0 0 0 0-43.136"/></svg>