<?xml version="1.0" ?>
<svg xmlns="http://www.w3.org/2000/svg" viewBox="0 0 142 30">
	<g fill="none" fill-rule="evenodd" transform="translate(0 1)">
		<path d="M 31.85,6.42 L 39.16,6.42 C 44.45,6.42 45.79,9.61 45.79,12.21 C 45.79,14.81 44.42,18.0 39.16,18.0 L 34.65,18.0 L 34.65,27.12 L 31.85,27.12 L 31.85,6.42 M 34.65,15.54 L 38.34,15.54 C 40.56,15.54 42.78,15.02 42.78,12.21 C 42.78,9.4 40.56,8.88 38.34,8.88 L 34.65,8.88 L 34.65,15.54" fill="#000" fill-rule="nonzero"/>
		<path d="M 49.45,6.32 C 50.50664,6.3207 51.36629,7.17094 51.3786,8.22751 C 51.39091,9.28408 50.55132,10.15412 49.49498,10.17945 C 48.43864,10.20477 47.55832,9.37595 47.52,8.32 C 47.50381,7.7969 47.69965,7.28944 48.06307,6.91284 C 48.42649,6.53624 48.92665,6.32245 49.45,6.32 M 48.16,13.26 L 50.76,13.26 L 50.76,27.12 L 48.16,27.12 L 48.16,13.26" fill="#000" fill-rule="nonzero"/>
		<path d="M 53.77,13.26 L 56.4,13.26 L 56.4,15.4 L 56.46,15.4 C 57.37688,13.76437 59.14832,12.79708 61.02,12.91 C 63.71,12.91 66.02,14.52 66.02,18.2 L 66.02,27.12 L 63.42,27.12 L 63.42,18.94 C 63.42,16.33 61.93,15.37 60.26,15.37 C 58.07,15.37 56.4,16.77 56.4,19.99 L 56.4,27.12 L 53.77,27.12 L 53.77,13.26" fill="#000" fill-rule="nonzero"/>
		<path d="M 70.84,21.16 C 70.84,23.58 73.09,25.16 75.52,25.16 C 77.04435,25.11567 78.45606,24.34666 79.32,23.09 L 81.32,24.61 C 79.86778,26.5256 77.5605,27.59684 75.16,27.47 C 70.77,27.47 68.03,24.32 68.03,20.19 C 67.95248,18.26268 68.67369,16.38878 70.02334,15.01073 C 71.373,13.63268 73.23148,12.87262 75.16,12.91 C 80.04,12.91 81.91,16.65 81.91,20.22 L 81.91,21.16 L 70.84,21.16 M 79.16,19.05 C 79.1,16.74 77.81,15.05 75.16,15.05 C 72.89369,15.03456 71.00821,16.78849 70.86,19.05 L 79.16,19.05" fill="#000" fill-rule="nonzero"/>
		<path d="M 93.85,16.95 C 92.99383,15.93785 91.72531,15.36794 90.4,15.4 C 87.54,15.4 86.07,17.71 86.07,20.31 C 85.99798,21.53981 86.43899,22.74445 87.28802,23.63707 C 88.13705,24.52969 89.31813,25.03041 90.55,25.02 C 91.85207,25.06363 93.09806,24.48885 93.91,23.47 L 95.78,25.32 C 94.41934,26.7604 92.4995,27.53782 90.52,27.45 C 88.57408,27.54794 86.67724,26.81982 85.29668,25.44496 C 83.91611,24.07011 83.18013,22.17631 83.27,20.23 C 83.18207,18.27616 83.91556,16.37463 85.29282,14.98597 C 86.67008,13.59731 88.5655,12.84817 90.52,12.92 C 92.52244,12.86916 94.45368,13.66416 95.84,15.11 L 93.85,16.95" fill="#000" fill-rule="nonzero"/>
		<path d="M 103.56,12.91 C 107.56435,12.97601 110.76339,16.26403 110.71956,20.26868 C 110.67573,24.27333 107.40549,27.49055 103.40066,27.46901 C 99.39582,27.44726 96.16054,24.19489 96.16,20.19 C 96.15973,18.23825 96.94318,16.36813 98.33451,14.99937 C 99.72584,13.6306 101.60852,12.87783 103.56,12.91 L 103.56,12.91 M 103.56,25.02 C 106.36,25.02 108.12,23.02 108.12,20.19 C 108.12,17.36 106.36,15.37 103.56,15.37 C 100.76,15.37 98.99,17.37 98.99,20.19 C 98.99,23.01 100.75,25.02 103.56,25.02 L 103.56,25.02" fill="#000" fill-rule="nonzero"/>
		<path d="M 113.06,13.26 L 115.69,13.26 L 115.69,15.4 C 116.61025,13.76277 118.38535,12.79559 120.26,12.91 C 122.95,12.91 125.26,14.52 125.26,18.2 L 125.26,27.12 L 122.63,27.12 L 122.63,18.94 C 122.63,16.33 121.14,15.37 119.48,15.37 C 117.28,15.37 115.62,16.77 115.62,19.99 L 115.62,27.12 L 113.06,27.12 L 113.06,13.26" fill="#000" fill-rule="nonzero"/>
		<path d="M 130.16,21.16 C 130.16,23.58 132.41,25.16 134.84,25.16 C 136.36305,25.11089 137.77274,24.34298 138.64,23.09 L 140.64,24.61 C 139.18649,26.50969 136.8885,27.56886 134.5,27.44 C 130.12,27.44 127.37,24.29 127.37,20.16 C 127.29209,18.22735 128.01733,16.34861 129.37361,14.96959 C 130.72989,13.59058 132.59633,12.83422 134.53,12.88 C 139.42,12.88 141.29,16.62 141.29,20.19 L 141.29,21.13 L 130.16,21.16 M 138.46,19.05 C 138.4,16.74 137.12,15.05 134.46,15.05 C 132.19173,15.02953 130.30334,16.78617 130.16,19.05 L 138.46,19.05" fill="#000" fill-rule="nonzero"/>
		<path d="M 14.58,5.24 L 15.28,1.35" stroke="#201d1e" stroke-linecap="square" stroke-width="1.77"/>
		<path d="M 17.8,3.86 L 15.36,0.88 L 12.04,2.82" stroke="#201d1e" stroke-linecap="square" stroke-linejoin="round" stroke-width="1.77"/>
		<path d="M 11.66,21.84 L 12.34,17.95" stroke="#201d1e" stroke-linecap="square" stroke-width="1.77"/>
		<path d="M 14.88,20.45 L 12.42,17.48 L 9.11,19.43" stroke="#201d1e" stroke-linecap="square" stroke-linejoin="round" stroke-width="1.77"/>
		<path d="M 13.07,13.82 L 13.75,9.93" stroke="#201d1e" stroke-linecap="square" stroke-width="1.77"/>
		<path d="M 16.29,12.43 L 13.84,9.47 L 10.53,11.41" stroke="#201d1e" stroke-linecap="square" stroke-linejoin="round" stroke-width="1.77"/>
		<circle cx="10.77" cy="26.85" fill="#201d1e" fill-rule="nonzero" r="1.63"/>
		<g stroke="#201d1e" stroke-linecap="square">
			<path d="M 6.15,21.5 L 3.16,23.58" stroke-width="1.68"/>
			<path d="M 6.33,24.87 L 2.8,23.83 L 3.06,20.16" stroke-linejoin="round" stroke-width="1.68"/>
			<path d="M 17.01,23.45 L 19.09,26.45" stroke-width="1.68"/>
			<path d="M 15.67,26.55 L 19.34,26.8 L 20.38,23.29" stroke-linejoin="round" stroke-width="1.68"/>
			<path d="M 20.42,17.36 L 24.08,18.02" stroke-width="1.72"/>
			<path d="M 21.68,20.57 L 24.52,18.1 L 22.73,14.81" stroke-linejoin="round" stroke-width="1.72"/>
			<path d="M 19.35,10.1 L 22.61,8.3" stroke-width="1.72"/>
			<path d="M 19.53,6.65 L 23.0,8.09 L 22.35,11.78" stroke-linejoin="round" stroke-width="1.72"/>
			<path d="M 4.97,14.64 L 1.3,14.0" stroke-width="1.72"/>
			<path d="M 2.68,17.22 L 0.86,13.93 L 3.67,11.45" stroke-linejoin="round" stroke-width="1.72"/>
			<path d="M 8.45,8.17 L 6.0,5.37" stroke-width="1.72"/>
			<path d="M 9.46,4.88 L 5.71,5.04 L 5.05,8.73" stroke-linejoin="round" stroke-width="1.72"/>
		</g>
	</g>
</svg>