<svg xmlns="http://www.w3.org/2000/svg" width="200" height="200" class="icon" viewBox="0 0 1024 1024"><path d="M763.307 762.027h16.938v7.424h1.195a19.883 19.883 0 0 1 26.41-6.614l-4.693 15.915a15.53 15.53 0 0 0-7.85-1.835 12.29 12.29 0 0 0-10.368 4.694 20.1 20.1 0 0 0-3.499 12.373v27.093h-18.09zm-11.094 44.714a32.7 32.7 0 0 1-11.52 11.947 31.6 31.6 0 0 1-16.981 4.31 35.1 35.1 0 0 1-12.8-2.305 32.1 32.1 0 0 1-10.112-6.613 30.04 30.04 0 0 1-9.13-22.57c0-4.267.767-8.278 2.389-12.033a30.7 30.7 0 0 1 6.656-10.026 30.93 30.93 0 0 1 22.57-9.387 32 32 0 0 1 12.886 2.39 27.4 27.4 0 0 1 15.061 16.383 36.1 36.1 0 0 1 1.579 17.152h-43.52c.853 3.84 2.688 6.656 5.418 8.448a16.5 16.5 0 0 0 9.131 2.646 14.72 14.72 0 0 0 13.653-7.68zm-16.042-23.04a9.7 9.7 0 0 0-1.28-3.157 9 9 0 0 0-2.475-2.987 11.3 11.3 0 0 0-3.968-2.304 13.867 13.867 0 0 0-18.347 8.448zm-52.992 23.04a32.7 32.7 0 0 1-11.52 11.947 31.6 31.6 0 0 1-16.939 4.31 35.1 35.1 0 0 1-12.8-2.305 32.1 32.1 0 0 1-10.112-6.613 30.04 30.04 0 0 1-9.173-22.57q0-6.4 2.432-12.033a30.7 30.7 0 0 1 6.613-10.026 30.93 30.93 0 0 1 22.57-9.387c4.907 0 9.174.768 12.886 2.39a27.4 27.4 0 0 1 15.061 16.383 36.1 36.1 0 0 1 1.579 17.152h-43.52c.853 3.84 2.688 6.656 5.419 8.448a16.5 16.5 0 0 0 9.173 2.646 14.72 14.72 0 0 0 13.653-7.68zm-16.043-23.04a9.7 9.7 0 0 0-1.195-3.157 9 9 0 0 0-2.56-2.987 11.3 11.3 0 0 0-3.968-2.304 13.867 13.867 0 0 0-18.346 8.448zm-81.835-6.144-10.368-.17.171-16.555 10.667.512-.299-17.493 17.579.17-.683 16.64 15.659.854-.512 15.146-15.574.342.555 20.053c-.512 3.925.939 6.187 1.152 8.277 3.413 4.267 5.845 2.902 5.845 2.902.854-.342 6.912-1.152 7.552-1.622l1.707 16.555c-5.888 3.499-16.085 1.536-16.085 1.536-10.795-1.579-16.342-9.259-16.384-12.501-1.067-2.902-.768-8.96-1.238-12.374zm-17.578 30.592c-1.579 5.376-7.339 9.302-12.075 12.16a32.94 32.94 0 0 1-17.323 4.694 40.3 40.3 0 0 1-13.653-3.286c-3.84-1.621-7.04-4.821-9.941-7.68-2.902-2.773-3.968-6.058-5.59-9.813a35.1 35.1 0 0 1-1.92-13.227c-.64-8.277 5.376-16.128 9.046-21.546 11.946-10.155 20.906-9.387 20.906-9.387 16.512-3.2 29.696 12.288 30.635 18.645 1.28 3.67.939 7.68.939 11.947-.214 2.304 0 2.133-1.323 5.333h-44.245c.853 3.84 2.688 8.192 4.437 10.24 2.048 2.56 5.461 2.56 8.832 2.56 3.37 0 6.955.086 9.13-1.365 2.262-1.45 7.34-3.072 8.662-5.333zm-15.787-23.808a17.5 17.5 0 0 0-1.707-4.138c-.597-1.11-2.133-1.963-3.242-2.816-1.024-.982-3.03-1.579-4.651-2.134a13.2 13.2 0 0 0-5.163-.981 11.7 11.7 0 0 0-7.168 2.261c-2.432 1.579-4.138 5.12-5.248 8.107zm-99.84-15.872h1.195a16.56 16.56 0 0 1 6.272-5.888 21.25 21.25 0 0 1 10.837-2.56 26.58 26.58 0 0 1 19.925 8.832 29.7 29.7 0 0 1 6.272 9.899c1.536 3.84 2.262 8.107 2.262 12.8a34.1 34.1 0 0 1-2.262 12.8 31.1 31.1 0 0 1-6.272 9.984 27.6 27.6 0 0 1-19.925 8.661 22.1 22.1 0 0 1-10.837-2.389 17.45 17.45 0 0 1-6.272-6.059h-1.195l1.195 8.448v24.107H435.2v-85.077h16.896zm14.336 8.448a14.51 14.51 0 0 0-13.227 8.576 15.8 15.8 0 0 0-1.109 6.016c0 2.262.341 4.31 1.067 6.187a15.5 15.5 0 0 0 3.157 4.565c1.365 1.195 2.901 2.134 4.565 2.902a16.13 16.13 0 0 0 10.966 0 14.9 14.9 0 0 0 4.608-2.902 13 13 0 0 0 3.114-4.565 15.3 15.3 0 0 0 1.195-6.187 14.42 14.42 0 0 0-14.336-14.592m-86.443-8.448h1.28a16.56 16.56 0 0 1 6.23-5.888 21.25 21.25 0 0 1 10.837-2.56 26.58 26.58 0 0 1 19.883 8.832 29.7 29.7 0 0 1 6.272 9.899q2.304 5.76 2.304 12.8a34.1 34.1 0 0 1-2.304 12.8 31.1 31.1 0 0 1-6.272 9.984 27.6 27.6 0 0 1-19.883 8.661 22.1 22.1 0 0 1-10.837-2.389 17.45 17.45 0 0 1-6.272-6.059h-1.238l1.28 8.448v24.107h-18.176v-85.077h16.854zm14.379 8.448a14.51 14.51 0 0 0-13.227 8.576 15.8 15.8 0 0 0-1.152 6.016c0 2.262.427 4.31 1.11 6.187a15.5 15.5 0 0 0 3.114 4.565c1.366 1.195 2.902 2.134 4.608 2.902a16.13 16.13 0 0 0 10.966 0 14.9 14.9 0 0 0 4.565-2.902 12.9 12.9 0 0 0 3.157-4.565 15.3 15.3 0 0 0 1.195-6.187 14.42 14.42 0 0 0-8.96-13.482 13.7 13.7 0 0 0-5.376-1.11m-61.141 36.694h-1.195a20.05 20.05 0 0 1-18.09 9.386c-7.425 0-12.929-2.346-16.513-7.125a30 30 0 0 1-5.461-18.688v-35.2h18.09v33.152c0 3.243.769 5.888 2.305 7.979 1.536 2.005 3.882 2.986 7.125 2.986a10.45 10.45 0 0 0 9.259-4.693 21.2 21.2 0 0 0 3.285-12.288v-27.136h18.09v59.093h-16.895zm-110.678 7.466V734.72h30.891a35 35 0 0 1 12.16 2.048 28.9 28.9 0 0 1 9.813 5.803 25.1 25.1 0 0 1 6.4 8.789 28.6 28.6 0 0 1 2.262 11.52 28 28 0 0 1-2.304 11.392 26.33 26.33 0 0 1-16.171 14.592 34.9 34.9 0 0 1-12.16 2.048h-12.075v30.165zm31.488-48c3.926 0 6.827-.981 8.79-2.901a9.98 9.98 0 0 0 2.901-7.339 9.98 9.98 0 0 0-2.901-7.381c-1.92-1.92-4.864-2.901-8.79-2.901h-12.672v20.48zm515.67-655.402-25.344 2.133 10.069 125.099 26.71 15.488zm-512.683.426-12.63 138.326 26.625-12.8 11.349-123.307zm-20.907 221.142-1.877 23.765-53.205 133.845c-9.216 9.558-13.142 21.931-13.099 35.2l-.256 442.454c0 28.544 20.907 49.493 49.408 49.493h585.899c28.586 0 53.333-18.944 53.333-47.36V532.693c0-13.056-4.267-23.893-12.203-33.024l-57.344-169.088-.256-2.901-24.533 10.965 11.392 142.08H249.429l10.112-111.573 9.643-25.088-7.083-2.73.086-1.28zm559.446 99.84 13.781 42.112c-3.755-.598-6.741-.256-10.453-.427zm-568.15 9.898-3.584 31.744c-2.474-.213-5.12.214-7.338.299zm-7.68 48.384 583.254.342c20.053 0 36.394 14.677 36.394 34.773v33.963h-655.36V532.48c0-20.053 15.531-35.115 35.712-35.115m5.76 23.595a11.52 11.52 0 0 0-11.605 11.52c0 15.36 23.125 15.36 23.125 0a11.52 11.52 0 0 0-11.52-11.52m39.254 0c-15.36 0-15.36 23.04 0 23.04s15.445-23.04.085-23.04zm38.229 0c-16.64-1.45-16.64 24.405 0 22.955 14.08-1.195 14.08-21.76 0-22.955m-118.955 60.757h655.36v390.528c0 25.387-16.213 36.096-36.394 36.054l-583.168-.171a35.33 35.33 0 0 1-35.84-35.883zm80.342 188.587c2.986-4.992 2.986-4.693 2.901-7.936-.341-3.115-.17-3.243-2.261-5.76-2.304-2.304-5.248-5.888-8.534-5.717h-16.512l-.853 23.466h17.365c5.206-.085 6.827-3.584 7.894-4.01zm-7.894-35.413a24.75 24.75 0 0 1 18.859 7.296c4.693 4.992 6.997 11.648 6.997 19.84a27.73 27.73 0 0 1-6.826 19.712c-4.992 5.12-11.222 8.96-18.347 8.661l-17.067.341-.17 33.024-17.579-.554-.213-89.088zm76.502 53.76-.512-26.624 15.616-.171.17 61.227-15.36.17v-5.205a24.83 24.83 0 0 1-18.432 6.4 23.77 23.77 0 0 1-17.621-6.656c-4.395-4.693-5.547-13.227-5.248-19.627l-.17-36.138h15.871l-.341 32.853a14 14 0 0 0 3.2 9.813 10.67 10.67 0 0 0 8.448 3.84c9.6 0 14.336-6.656 14.336-19.968zm77.013 3.285a15.36 15.36 0 0 0-4.693-11.605c-2.987-3.115-4.907-5.035-9.302-4.907-4.266 0-7.936.768-11.349 4.01a16.56 16.56 0 0 0-4.95 12.502c0 5.12 1.622 9.259 4.993 12.373 2.986 3.115 7.168 4.864 11.52 4.864 4.352.128 7.082-2.261 10.154-5.376 3.712-4.01 2.56-8.96 3.627-11.861m-11.179-32.427c7.51 0 14.208 4.694 19.883 10.454a30.3 30.3 0 0 1 8.405 21.973 29.87 29.87 0 0 1-8.405 21.845c-3.968 6.827-13.227 10.88-20.736 10.838-6.827.213-15.36-2.816-18.261-8.406l.17 32.427-17.066.256-.854-87.04 17.75-.853v6.698c5.376-4.394 12.16-8.533 19.114-8.234zm85.419 32.598c-.597-6.827-1.877-8.662-4.992-12.075-3.072-3.157-4.992-3.712-9.387-3.627-4.266 0-7.594-.213-10.965 2.987a16.56 16.56 0 0 0-4.95 12.544c0 5.12 1.622 9.259 4.95 12.373 2.987 3.115 7.168 4.864 11.52 4.864 4.352.128 6.57-2.773 9.643-5.845 3.114-3.413 3.669-7.467 4.181-11.221m-13.568-32c7.552 0 16.597 4.096 22.272 9.813a30.38 30.38 0 0 1 8.448 22.016 29.87 29.87 0 0 1-8.448 21.845c-4.48 6.4-14.677 10.88-22.272 10.838a20.27 20.27 0 0 1-16.725-8.406v32l-17.28.427-.982-86.784h18.262v5.845c5.376-4.394 9.813-7.808 16.725-7.552zm54.101 24.576 27.179-.342c-.725-3.157-2.688-5.12-5.29-7.082a15.23 15.23 0 0 0-17.323.128c-3.627 2.901-2.304 2.389-4.566 7.253zm13.355-24.534c7.637-.128 18.133 3.328 23.552 8.662 5.675 5.546 6.699 13.141 7.083 21.845l-1.323 5.333h-43.947c.854 4.054 1.878 7.936 4.438 10.411 2.517 2.39 6.528 2.987 9.984 2.987a21.33 21.33 0 0 0 16.341-7.254l13.483 6.016c-1.963 5.974-7.979 9.515-12.971 12.63a32.3 32.3 0 0 1-17.408 4.01c-7.85.128-16.128-4.949-21.632-10.538a30.64 30.64 0 0 1-8.533-22.315c0-8.96 4.01-16.299 9.813-22.101 5.547-5.632 13.227-9.899 21.12-9.686m71.381 48.086c3.414-.128 4.694.085 7.595-1.622l1.707 16.555c-4.566 2.688-5.76 1.621-11.094 1.792a27 27 0 0 1-17.749-6.613c-4.01-3.84-4.139-11.094-4.139-18.902l-.512-21.888-10.368-.17.171-16.555 10.667.512-.299-17.493 17.579.17-.683 16.64 15.659.854-.512 15.146-15.574.342.128 21.632c.086 6.613 1.792 9.6 7.467 9.6zm32-23.04h27.904a13.65 13.65 0 0 0-5.12-7.936 15.23 15.23 0 0 0-17.365.128 12.8 12.8 0 0 0-5.419 7.85zm14.422-25.046c7.893 0 15.701 3.926 21.333 9.387 5.675 5.547 7.381 12.587 7.808 21.333v5.12h-43.947a17.07 17.07 0 0 0 5.12 9.728 13.23 13.23 0 0 0 9.302 3.67c6.613 0 12.672-2.56 15.658-7.68l12.8 6.4c-2.133 5.546-5.12 8.106-10.154 11.178a40.9 40.9 0 0 1-19.286 5.334 30.38 30.38 0 0 1-21.418-9.558 32.85 32.85 0 0 1-8.875-23.125c0-8.96 4.523-16.299 10.24-22.101 5.632-5.632 13.483-9.899 21.333-9.686zm54.186 25.046h27.904a13.65 13.65 0 0 0-5.12-7.936 15.23 15.23 0 0 0-17.365.128 12.8 12.8 0 0 0-5.419 7.85zm14.379-25.046a31.57 31.57 0 0 1 21.333 9.387c5.718 5.547 7.424 12.587 7.851 21.333v5.12h-43.947a17.07 17.07 0 0 0 5.12 9.728 13.23 13.23 0 0 0 9.259 3.67c6.57 0 12.672-2.56 15.701-7.68l12.8 6.4c-2.133 5.546-5.12 8.106-10.154 11.178a40.8 40.8 0 0 1-19.371 5.334 30.42 30.42 0 0 1-21.333-9.558 32.85 32.85 0 0 1-8.875-23.125c0-8.96 4.523-16.299 10.24-22.101 5.547-5.632 13.44-9.899 21.333-9.686zm82.688 1.707-2.859 15.53-7.68-.98c-13.738 0-15.36 8.831-15.36 25.386v20.907l-16.768.213.342-61.013h15.573l-.17 9.386c6.186-7.253 9.173-12.202 26.88-9.386zM748.16 337.493l.853-15.616 56.192-29.312.299 16.896zM215.04 291.84l57.6 29.013-.341 16.768-56.064-27.733zm307.627-74.581L729.13 321.707v16.725l-206.976-104.96zM293.29 320.427 502.1 217.173l-.298 15.958-208.768 104.277zm147.925-169.558L231.168 46.891l52.139-25.814 228.352 117.078L739.627 19.883l53.632 27.733-210.176 105.728c-8.363 4.181-5.547 16.555 2.858 20.736l206.422 103.253-52.054 26.539L511.915 188.8 282.453 304.17l-54.314-27.05 213.248-105.941a11.35 11.35 0 0 0-.171-20.352zM215.851 80.555l.298-16.086 196.566 97.11-14.848 8.533zm411.648 88.618-17.494-7.85L806.101 63.06l-1.194 17.579zm18.005 13.056 175.957-88.32a5.29 5.29 0 0 0 2.987-4.693V47.403c0-1.963-.341-5.803-2.133-6.699L739.54.597a5.29 5.29 0 0 0-4.821 0L514.261 112.512a5.25 5.25 0 0 1-4.693 0L284.971.64a5.29 5.29 0 0 0-4.694 0L196.95 40.021c-1.706.854-.853 4.694-.853 6.699v42.453c0 2.006 1.11 3.84 2.987 4.694l176.64 87.338-175.616 84.992c-1.707.854-4.608 2.646-4.694 4.608l.726 44.118a5.25 5.25 0 0 0 2.901 4.821l82.475 42.07c1.45.767 5.205 1.28 6.698.597l221.27-111.019a5.29 5.29 0 0 1 4.693 0L732.63 362.453a5.29 5.29 0 0 0 4.694 0l84.138-40.704c1.792-.853 4.395-2.133 4.438-4.096l-.299-44.074c0-2.006-2.005-6.4-3.84-7.254z"/></svg>