<svg xmlns="http://www.w3.org/2000/svg" viewBox="118.26 30.26 766.48 254.48"><title>Pyodide logo</title><g fill="none" stroke-width="2"><path stroke="gray" d="M148.58 121.92c16.38.29 33.22 1.02 49.16.19 14.47-.75 26.51-.39 35.18-11.41 7.97-10.12 7.25-21.32 6.2-34.07-1.17-14.27-8.68-26.59-24.14-28.35q-13.83-1.57-22.4-1.73-29.06-.53-57.93-.77-.46 0-.47.46-1.27 53.61.01 107.22.01.54.55.54h12.76q.5 0 .5-.5v-31.01q0-.58.58-.57m493.45-75.69c-.05 25.22-.85 50.36-.36 75.59q.32 15.9.36 31.89 0 .52.52.52 29.07-.36 58.14-.84 15.77-.26 24.8-2.18c13.12-2.79 20.28-13.63 20.88-26.97q1.09-24.53-.08-49.05-.68-14.28-11.33-22.4c-8.13-6.2-24.21-5.91-34.9-6.12q-28.72-.58-57.51-.95-.52 0-.52.51m-369.48 27.1c1.2.55 1.99 2.45 3.14 2.64q.88.15.34-.57-2.23-2.96-5.33-4.96-.43-.28-.59-.77-.41-1.29-1.91-2.36c-5.43-3.89-4.37-14.74-4.16-20.76q.02-.55-.53-.55h-12.97q-.43 0-.45.43-.53 10.07-.16 20.14c.24 6.54 4.76 8.01 8.37 12q5.49 6.05 11.11 11.99.33.35.27.82c-.2 1.38 3.41 4.68 4.46 5.44 4.91 3.56 8.79 8.69 12.91 13.13 3.07 3.31 3.55 6.66 8.09 9.37q1.01.6.9 2.44-.77 12.79.08 31.83.02.41.43.41h12.94q.49 0 .49-.49l.05-33.92q.01-.49.33-.87 5.2-5.89 10.64-11.47c1.92-1.96 4.86-2.81 6.17-6.24q.18-.47.62-.72 3.3-1.82 5.35-4.99.1-.14-.05-.23l-.34-.2q-.48-.29-.1-.7 3.86-4.11 7.7-8.25c1.7-1.82 4.16-3.21 5.94-5.38.78-.96.72-2.31 2.47-2.76q.48-.12.83-.48c1.71-1.73 2.97-2.88 4.04-5.31q.65-1.45 1.73-2.64a1.37 1.36 67.1 0 0 .36-.9l.36-21.96a.59.58 0 0 0-.6-.59l-11.3.32q-.63.02-.98.54c-1.69 2.54-1.18 6.4-1.45 10.07-.62 8.28-8.1 14.9-13.19 20.14-5.03 5.17-11.15 10.63-16.33 16.45q-.09.1 0 .19.12.11.22.23.17.19.34-.01c1.7-1.98 9.19-10.34 10.04-9.92q.33.17.08.45-4.91 5.3-9.79 10.64c-1.76 1.91-4.32 2.92-6.23 4.99q-.37.4-.46.93-.53 3.01-3.12 4.8-.51.35-.93-.09l-6.27-6.4q-.3-.31-.13-.7c.69-1.68-3.68-4.87-5.11-5.77q-.41-.26-.63-.71c-1.84-3.9-4.99-4.6-7.5-7.2q-5.32-5.51-10.41-11.22-.6-.68.22-.3m190.33-17.62q-.13.06-.33.06-.11 0-.19-.07-8.88-7.96-20.36-8.94-21.93-1.85-44.84.79c-17.58 2.03-29.44 9.91-30.34 29.52q-.91 20-.49 40.01.19 8.71 1.27 12.74c2.86 10.69 11.82 19.34 22.37 22.04q4.62 1.18 18.68 1.48 14.32.31 33.36-.59c14.82-.71 27.13-8.3 28.83-23.68q.91-8.23.9-13.57-.01-25.63-.81-51.26-.02-.55-.43-.93l-3.02-2.76q-.45-.41-.16-.94l.19-.35q.28-.54-.16-.95-3.15-2.94-6.58-5.57-.93-.71-.17.18l2.31 2.68q.07.07-.03.11m110.41 95.63c18.02-5.05 20.45-18.96 20.43-35.59q-.03-25.63-.79-51.23-.02-.51-.37-.86c-10.62-10.54-16.35-16.17-32.32-16.77q-35.86-1.34-71.82-.78-.42 0-.42.43v107.19q0 .48.48.48c25.14-.2 50.59-.01 75.67-1.65q6.25-.41 9.14-1.22M624 46.27a.27.27 0 0 0-.27-.27h-13.46a.27.27 0 0 0-.27.27v107.46a.27.27 0 0 0 .27.27h13.46a.27.27 0 0 0 .27-.27V46.27m207 93.46a.44.32-35.5 0 1 .25-.73h15.84q.4 0 .43-.4c.08-1.05-43.67-.09-50.02.13-.99.04-1.85.5-2.77.47q-8.64-.33-16.84-.17-1.04.02-1.01-1.02l.98-28.95a1.09 1.08-88.9 0 1 1.08-1.05l28.33-.03a.74.73 2.6 0 0 .72-.65c.11-1.14.66-1.33 1.76-1.33q19.56-.02 39.11.02c1.38 0 2.96.55 4.72-.17q.42-.17.42-.63V94.74q0-.59-.58-.68-2.08-.32-4.17-.27-8.54.19-17.08-.05c-3.9-.12-7.13-1.55-11.06-1.51q-19.61.19-39.22-.28c-1.44-.04-2.96.68-4.43.98q-.71.14-.34-.48.61-1.03.6-2.2-.16-14.33-.65-28.7-.01-.44.43-.45l91.93-.95q.57-.01.57-.58V46.5q0-.5-.5-.5H764.52q-.47 0-.47.47.04 7.48-.52 29.28-.63 25.13.72 77.76.02.49.5.49H869.5q.5 0 .5-.5v-12.95q0-.57-.58-.58c-12.86-.17-25.7-.18-38.42-.24" vector-effect="non-scaling-stroke"/><path stroke="gray" d="m589.63 59.75.43-.46a.17.17 0 0 0 0-.24l-.15-.14a9.33.42 43.2 0 0-7.09-6.08l-.09.1a9.33.42 43.2 0 0 6.51 6.69l.15.14a.17.17 0 0 0 .24-.01m35.7 72.79h.34a.13.13 0 0 0 .13-.13v-.15a65.2.27 90 0 0-.27-65.2h-.06a65.2.27-90 0 0-.27 65.2v.15a.13.13 0 0 0 .13.13m-29.68-46.72a.26.26 0 0 0-.26-.26h-.12a.26.26 0 0 0-.26.26v30.04a.26.26 0 0 0 .26.26h.12a.26.26 0 0 0 .26-.26V85.82m-122.1.11h-.58a.15.15 0 0 0-.15.15l.05 9.56a18.61.44 89.7 0 0 .53 18.61 18.61.44 89.7 0 0 .35-18.61l-.05-9.56a.15.15 0 0 0-.15-.15m-195.773 15.45a.31.31 0 0 0-.438-.003l-.029.028a.31.31 0 0 0-.003.439l5.716 5.796a.31.31 0 0 0 .438.003l.029-.028a.31.31 0 0 0 .003-.439l-5.716-5.796" vector-effect="non-scaling-stroke"/><path stroke="gray" d="M472.95 129.566a2.2.87 86.6 0 0 .738-2.248 2.2.87 86.6 0 0-.998-2.144 2.2.87 86.6 0 0-.738 2.248 2.2.87 86.6 0 0 .998 2.144" vector-effect="non-scaling-stroke"/><path stroke="#b0a7f2" d="m292.96 167.76-4.33.45a.58.57-2.7 0 1-.63-.57v-15.01a.63.63 0 0 0-.63-.63H244.5q-.5 0-.5.5v117a.5.5 0 0 0 .5.5h117a.5.5 0 0 0 .5-.5v-117a.5.5 0 0 0-.5-.5h-42.69a.69.69 0 0 0-.69.62l-1.28 13.69a.94.94 0 0 1-1.03.85c-2.9-.26-21.83-2.13-22.42.22q-.08.34-.43.38" vector-effect="non-scaling-stroke"/><path stroke="gray" d="M213.64 59.78c-26.81.88-44.04.2-65.09.16q-.55 0-.55.55v47.01q0 .51.52.52 17.37.09 59.78-.4c19.31-.22 17.8-16.05 17.57-29.61-.13-8.31-6.14-12.63-11.36-17.88q-.36-.37-.87-.35m441.58 54.02c-1.02-4.11.05-9.91-.39-14.36a.17.17 0 0 0-.34 0c-.92 14.49.27 24.12.2 36.31-.02 4.65 11.5 4.13 15.81 4.13q26.55.03 53.08-.94.5-.02.87-.35c5.43-4.79 8.21-9.38 9.03-16.61.78-6.94.33-14.54.16-21.54-.14-5.47 1.8-24.88-2.21-30.89q-2.03-3.05-6.8-8.19a.99.98-21.2 0 0-.72-.31l-68.3.05q-.59 0-.6.59-.19 6.34.43 18.81.83 16.5.5 33.22a.37.36 38.6 0 1-.72.08M392.76 61.5c-10.13 1.51-12.44 12.82-12.63 21.32q-.39 17.81.26 35.61c.36 9.78 2.47 18.31 13.33 20.1 11.81 1.95 22.82 1.31 36.19 1.24 12.06-.07 25.1-.11 28.09-14.53q1.69-8.13 1.45-14.86c-.33-9.11-.19-18.2-.05-27.3.26-16.68-9.48-22.57-24.86-22.59-13.57-.02-28.38-1-41.78 1.01m109.35-.12.19 78.12a.59.46 89.1 0 0 .48.59q20.02-.58 40.16-.4 15.36.14 22.83-.95 11.89-1.75 14.38-13.46c2.12-9.94 1.48-21.99 1.21-32.85-.03-1.28.62-2.63.16-4.11q-.15-.48-.12-.98c.58-10.3-1.15-21.87-13-25.08-7.2-1.96-14.98-2.1-22.4-2.14q-21.39-.12-42.5-.14a1.4 1.39 90 0 0-1.39 1.4" vector-effect="non-scaling-stroke"/><path stroke="gray" d="m503.3 61.75-.2 74.96a2.05 2.05 0 0 0 1.97 2.05q16.91.66 33.93.13 1.1-.04 1.79-.45.24-.14-.04-.14l-35.95.06a1.06 1.06 0 0 1-1.07-1.06l.07-74.17a1.39 1.38-89.8 0 1 1.38-1.38h32.05q.42 0 .03-.16-.83-.34-1.26-.34-16.22-.01-32.2 0a.5.5 0 0 0-.5.5m-121.666 22.4a.24.24 0 0 0-.24-.24.24.24 0 0 0-.24.24l.112 31.98a.24.24 0 0 0 .24.24.24.24 0 0 0 .24-.24l-.112-31.98m53.236 54.525a.32.32 0 0 0-.319-.321l-25.12-.088a.32.32 0 0 0-.32.319l-.001.04a.32.32 0 0 0 .319.321l25.12.088a.32.32 0 0 0 .32-.319l.001-.04m258.5-.142a8.16.5-.4 0 0-8.163-.443 8.16.5-.4 0 0-8.157.557 8.16.5-.4 0 0 8.163.443 8.16.5-.4 0 0 8.157-.557" vector-effect="non-scaling-stroke"/><path stroke="#b0a7f2" d="M275.71 215.66q-3.27.36-4.43 3.42a.74.73-64.9 0 0 .32.9q2 1.16 2.38 3.5.09.52-.27.9l-1.19 1.24a1.09 1.07-29.6 0 0-.27.95l1.73 8.25q.1.51.6.34c1.5-.49 1.61 2.72.59 3.73a1.04 1.02-28.1 0 0-.3.96l.94 4.71q.08.38.46.46 1.98.44 1.65 2.75a1.02 1.01 22.4 0 0 .4.95q1.68 1.24 1.4 3.43a.7.69 3.8 0 1-.69.6h-.6q-.83 0-.62.8l.23.87q.06.23.28.29.45.13.41-.23a.57.33 35.2 0 1 .88.08q.46.58.45.96a2.05 2.04 68.7 0 0 3.47 1.53q1.32-1.28 3.13-1.68a1.32 1.28 6.1 0 0 .88-.69l1.42-2.8a.27.27 0 0 1 .52.14q-.21 3.1-2.88 4.46a.44.44 0 0 0 .23.84q2.41-.17 3.29-3.19 1.72-5.96 3.29-12.01.17-.65-.47-.85l-.37-.12q-.37-.12-.29-.5c.4-2.03-1-7.17 1.24-8.3a.67.66-31.6 0 1 .83.19q2.08 2.78.65 5.83-.25.52-.12 1.09l3.49 15.31q.06.26.31.24.14-.01.25-.07.82-.42.82-.19v.75q0 .52.31.94c1.57 2.13 4.92-.53 6.83-1.21q.53-.19.73-.71.59-1.49 1.64-2.74.46-.53.32.16-.59 2.96-2.94 4.59-.68.47.13.63c2.64.5 4.82-8.18 5.46-10.52q.32-1.17-.58-.36l-.76.68q-.57.51-.72-.24-.34-1.81.11-3.63.11-.47.44-.12.87.9.96 2.24a.45.45 0 0 0 .89.09c2.06-7.72 5.19-17.04 5.46-25a.34.33 64.9 0 0-.6-.22q-.59.79-.44 1.97a.33.28 36.3 0 1-.6.04q-.8-2.24.06-4.44a1.13 1.13 0 0 0-.87-1.53c-8.57-1.45-9.11 10.43-10.53 16.1q-.35 1.35.86 4.09a.29.28-24.7 0 1-.14.36l-.86.42q-.56.26-.16.74.88 1.07 1.06 1.79a2.05 1.66-68.6 0 1-3.24 1.83q-.73-1.87-.45-3.52a.86.85 88.6 0 1 .67-.71c1.43-.3-.58-2.63-.72-3.72q-.07-.5.44-.5h.76q.51 0 .37-.49l-3.18-11.56q-.23-.83-.97-.4l-.55.33a.49.49 0 0 1-.73-.5c.29-1.74.52-6.4-2.92-4.76q-.48.23-1 .19l-3.52-.3q-.35-.03-.51.28-1.75 3.51-2.2 7.42-.04.29.26.29h.38q.47 0 .72.39 1.21 1.87-.51 3.58a.57.57 0 0 1-.95-.57q.24-.8-.48-.62a.41.41 0 0 0-.3.3c-.72 2.77-3.44 9.54-2.4 12.38q.49 1.33-.39 2.58a.45.45 0 0 1-.81-.15l-1.53-6.09q-.16-.66.52-.61l.88.07q.79.06.64-.73l-1.65-8.34a.48.48 0 0 0-.95.11l.1 3.05a.41.41 0 0 1-.79.17q-1.11-2.7-.45-5.6.17-.76.46-.03l.58 1.5a.44.44 0 0 0 .85-.23c-.52-3.13-1.26-8.65-4.32-10.14-1.24-.61-7.05-.74-6.64 1.96a.35.35 0 0 0 .61.17q1.61-1.91 3.83-1.61a.31.31 0 0 1-.01.62m41.59-.35c-.49-1.84-4.64-1.01-5.61-.38a.3.3 0 0 0 .27.53q2.45-.95 4.76.3.82.44.58-.45m23.28.91q.13-.05.26-.09a.41.4-24.1 0 0 .22-.57q-.45-.85-1.4-.52-.47.17-.16.56.26.32.6.56.22.16.48.06m-20.52 26.47-.39-.4a.29.29 0 0 0-.48.15l-.67 3.3q-.09.41.17.75c.98 1.28 2.41 4.61-.61 4.77q-.49.03-.56.52l-.63 4.34a.53.53 0 0 0 1.04.18l.09-.48a.76.74-2.8 0 1 .52-.56q2.63-.76 5.02.39a1.1 1.08-42.5 0 0 .86.03q1.15-.45 1.08-1.7a.86.85 72 0 1 .39-.77c.77-.5.52-1.09.85-1.65 2.75-4.72 9.45-3.99 13.74-2.11q.8.35 0 .7-.95.41-2.07.11a.29.28 66.2 0 0-.19.53q3.41 2 4.41 5.92a.42.42 0 0 0 .79.07l.51-1.06q.18-.39.6-.48 3.12-.7 6.1.33 1.51.52 1.13-1.03-4.23-17.5-9.64-34.67-.19-.61-.83-.6-1.23.01-1.31-1.29-.03-.56-.56-.74-6.39-2.16-13.15-1.35a.83.81 3 0 0-.7.62l-1.58 6.47q-.12.51.4.48c1.88-.11 1.72 2.68.82 3.54a.63.63 0 0 1-.98-.14l-.28-.47q-.38-.63-.67.05-.77 1.77-.79 3.67-.01.48.33.81c.85.82 1.79 4.44-.22 4.28a.65.64 7.3 0 1-.59-.75q.08-.47-.35-.45-.32.01-.39.31l-1.17 5.08a.31.31 0 0 0 .46.34l.24-.14q.44-.26.68.19.75 1.37.21 2.6a1.01 1 34.1 0 1-1.63.31" vector-effect="non-scaling-stroke"/><path stroke="#b0a7f2" d="M309.44 221.62h-.88a.22.22 0 0 0-.23.21l-.03 2.99a1.87.55-89.4 0 0 .53 1.88h.22a1.87.55-89.4 0 0 .57-1.86l.03-2.99a.22.22 0 0 0-.21-.23m4.85 5.27c-.28 1.21-.6 2.97.1 4.08a.52.52 0 0 0 .91-.05q1.01-2.18-.55-4.13-.33-.42-.46.1m-14.03.87c-.12 1.51-.86 3.93.85 4.84q.48.26.41-.28-.17-1.16.23-2.18.19-.52.04-1.05-.26-.92-.86-1.56-.6-.63-.67.23" vector-effect="non-scaling-stroke"/><path stroke="#b0a7f2" d="m306.31 234.97 1.2-.02a.25.25 0 0 0 .24-.26v-.1a3.77.74 88.7 0 0-.83-3.75h-.22a3.77.74 88.7 0 0-.65 3.79v.1a.25.25 0 0 0 .26.24m-20.26-1.5v3.56a.21.21 0 0 0 .21.21h.09a1.58 1.4 89.9 0 0 1.4-1.58v-.82a1.58 1.4 89.9 0 0-1.4-1.58h-.09a.21.21 0 0 0-.21.21m25.99 5.55a.54.54 0 0 0 1.01.24q1.38-2.39-.3-4.34-.38-.45-.48.13-.34 1.99-.23 3.97m-15.73-1.18c.56 1.56-.93 2.28.32 4.6a.56.56 0 0 0 1.05-.36c-.17-1.02.5-4.54-1.02-4.69q-.52-.04-.35.45m-20.01 1.56q-.56 1.49-.17 3.25a1.1.86-60.3 0 0 1.82-.75q-.1-1.35-.85-2.57a.45.44 39.8 0 0-.8.07m13.81 7.28a.58.57-33.7 0 0 1.06.21q1.26-2.07-.41-3.83-.31-.33-.43.11-.5 1.71-.22 3.51m8.28 1.02c.29.55-.5 3.06.3 4.75a.5.5 0 0 0 .96-.23l-.13-4.54a.45.45 0 0 0-.51-.44l-.42.06q-.39.05-.2.4m33.83-16.92q.37 2.07-1.42 2.31-.53.08-.59.61l-.29 2.53a.42.42 0 0 1-.82.06l-.14-.53a.34.33 45.4 0 0-.64-.01q-.73 2.57.47 4.94a.41.41 0 0 0 .78-.17q.05-1.29-.09-2.41a.86.86 0 0 1 1.52-.65l1.86 2.27a.56.56 0 0 1-.34.91l-1.31.23a.36.35-39.3 0 0-.07.68q1.64.63 3.33.34.74-.13.3-.73l-.24-.32q-.3-.42.15-.67c3.51-1.88 1.66-9.27-.83-11.02q-.4-.28-.13-.68l1.08-1.61a.42.41 13.9 0 0-.39-.64q-3.41.36-4.05 3.59a.55.55 0 0 0 .52.66l1.03.04q.26.01.31.27" vector-effect="non-scaling-stroke"/></g><path fill="none" d="M0 0h2980v302H0zm148.58 121.92c16.38.29 33.22 1.02 49.16.19 14.47-.75 26.51-.39 35.18-11.41 7.97-10.12 7.25-21.32 6.2-34.07-1.17-14.27-8.68-26.59-24.14-28.35q-13.83-1.57-22.4-1.73-29.06-.53-57.93-.77-.46 0-.47.46-1.27 53.61.01 107.22.01.54.55.54h12.76q.5 0 .5-.5v-31.01q0-.58.58-.57m493.45-75.69c-.05 25.22-.85 50.36-.36 75.59q.32 15.9.36 31.89 0 .52.52.52 29.07-.36 58.14-.84 15.77-.26 24.8-2.18c13.12-2.79 20.28-13.63 20.88-26.97q1.09-24.53-.08-49.05-.68-14.28-11.33-22.4c-8.13-6.2-24.21-5.91-34.9-6.12q-28.72-.58-57.51-.95-.52 0-.52.51m-369.48 27.1c1.2.55 1.99 2.45 3.14 2.64q.88.15.34-.57-2.23-2.96-5.33-4.96-.43-.28-.59-.77-.41-1.29-1.91-2.36c-5.43-3.89-4.37-14.74-4.16-20.76q.02-.55-.53-.55h-12.97q-.43 0-.45.43-.53 10.07-.16 20.14c.24 6.54 4.76 8.01 8.37 12q5.49 6.05 11.11 11.99.33.35.27.82c-.2 1.38 3.41 4.68 4.46 5.44 4.91 3.56 8.79 8.69 12.91 13.13 3.07 3.31 3.55 6.66 8.09 9.37q1.01.6.9 2.44-.77 12.79.08 31.83.02.41.43.41h12.94q.49 0 .49-.49l.05-33.92q.01-.49.33-.87 5.2-5.89 10.64-11.47c1.92-1.96 4.86-2.81 6.17-6.24q.18-.47.62-.72 3.3-1.82 5.35-4.99.1-.14-.05-.23l-.34-.2q-.48-.29-.1-.7 3.86-4.11 7.7-8.25c1.7-1.82 4.16-3.21 5.94-5.38.78-.96.72-2.31 2.47-2.76q.48-.12.83-.48c1.71-1.73 2.97-2.88 4.04-5.31q.65-1.45 1.73-2.64a1.37 1.36 67.1 0 0 .36-.9l.36-21.96a.59.58 0 0 0-.6-.59l-11.3.32q-.63.02-.98.54c-1.69 2.54-1.18 6.4-1.45 10.07-.62 8.28-8.1 14.9-13.19 20.14-5.03 5.17-11.15 10.63-16.33 16.45q-.09.1 0 .19.12.11.22.23.17.19.34-.01c1.7-1.98 9.19-10.34 10.04-9.92q.33.17.08.45-4.91 5.3-9.79 10.64c-1.76 1.91-4.32 2.92-6.23 4.99q-.37.4-.46.93-.53 3.01-3.12 4.8-.51.35-.93-.09l-6.27-6.4q-.3-.31-.13-.7c.69-1.68-3.68-4.87-5.11-5.77q-.41-.26-.63-.71c-1.84-3.9-4.99-4.6-7.5-7.2q-5.32-5.51-10.41-11.22-.6-.68.22-.3m190.33-17.62q-.13.06-.33.06-.11 0-.19-.07-8.88-7.96-20.36-8.94-21.93-1.85-44.84.79c-17.58 2.03-29.44 9.91-30.34 29.52q-.91 20-.49 40.01.19 8.71 1.27 12.74c2.86 10.69 11.82 19.34 22.37 22.04q4.62 1.18 18.68 1.48 14.32.31 33.36-.59c14.82-.71 27.13-8.3 28.83-23.68q.91-8.23.9-13.57-.01-25.63-.81-51.26-.02-.55-.43-.93l-3.02-2.76q-.45-.41-.16-.94l.19-.35q.28-.54-.16-.95-3.15-2.94-6.58-5.57-.93-.71-.17.18l2.31 2.68q.07.07-.03.11m110.41 95.63c18.02-5.05 20.45-18.96 20.43-35.59q-.03-25.63-.79-51.23-.02-.51-.37-.86c-10.62-10.54-16.35-16.17-32.32-16.77q-35.86-1.34-71.82-.78-.42 0-.42.43v107.19q0 .48.48.48c25.14-.2 50.59-.01 75.67-1.65q6.25-.41 9.14-1.22M624 46.27a.27.27 0 0 0-.27-.27h-13.46a.27.27 0 0 0-.27.27v107.46a.27.27 0 0 0 .27.27h13.46a.27.27 0 0 0 .27-.27zm207 93.46a.44.32-35.5 0 1 .25-.73h15.84q.4 0 .43-.4c.08-1.05-43.67-.09-50.02.13-.99.04-1.85.5-2.77.47q-8.64-.33-16.84-.17-1.04.02-1.01-1.02l.98-28.95a1.09 1.08-88.9 0 1 1.08-1.05l28.33-.03a.74.73 2.6 0 0 .72-.65c.11-1.14.66-1.33 1.76-1.33q19.56-.02 39.11.02c1.38 0 2.96.55 4.72-.17q.42-.17.42-.63V94.74q0-.59-.58-.68-2.08-.32-4.17-.27-8.54.19-17.08-.05c-3.9-.12-7.13-1.55-11.06-1.51q-19.61.19-39.22-.28c-1.44-.04-2.96.68-4.43.98q-.71.14-.34-.48.61-1.03.6-2.2-.16-14.33-.65-28.7-.01-.44.43-.45l91.93-.95q.57-.01.57-.58V46.5q0-.5-.5-.5H764.52q-.47 0-.47.47.04 7.48-.52 29.28-.63 25.13.72 77.76.02.49.5.49H869.5q.5 0 .5-.5v-12.95q0-.57-.58-.58c-12.86-.17-25.7-.18-38.42-.24M589.63 59.75l.43-.46a.17.17 0 0 0 0-.24l-.15-.14a9.33.42 43.2 0 0-7.09-6.08l-.09.1a9.33.42 43.2 0 0 6.51 6.69l.15.14a.17.17 0 0 0 .24-.01m35.7 72.79h.34a.13.13 0 0 0 .13-.13v-.15a65.2.27 90 0 0-.27-65.2h-.06a65.2.27-90 0 0-.27 65.2v.15a.13.13 0 0 0 .13.13m-29.68-46.72a.26.26 0 0 0-.26-.26h-.12a.26.26 0 0 0-.26.26v30.04a.26.26 0 0 0 .26.26h.12a.26.26 0 0 0 .26-.26zm-122.1.11h-.58a.15.15 0 0 0-.15.15l.05 9.56a18.61.44 89.7 0 0 .53 18.61 18.61.44 89.7 0 0 .35-18.61l-.05-9.56a.15.15 0 0 0-.15-.15m-195.773 15.45a.31.31 0 0 0-.438-.003l-.029.028a.31.31 0 0 0-.003.439l5.716 5.796a.31.31 0 0 0 .438.003l.029-.028a.31.31 0 0 0 .003-.439zm195.174 28.186a2.2.87 86.6 0 0 .737-2.248 2.2.87 86.6 0 0-.998-2.144 2.2.87 86.6 0 0-.738 2.248 2.2.87 86.6 0 0 .998 2.144M292.96 167.76l-4.33.45a.58.57-2.7 0 1-.63-.57v-15.01a.63.63 0 0 0-.63-.63H244.5q-.5 0-.5.5v117a.5.5 0 0 0 .5.5h117a.5.5 0 0 0 .5-.5v-117a.5.5 0 0 0-.5-.5h-42.69a.69.69 0 0 0-.69.62l-1.28 13.69a.94.94 0 0 1-1.03.85c-2.9-.26-21.83-2.13-22.42.22q-.08.34-.43.38"/><path d="M148 122.49v31.01q0 .5-.5.5h-12.76q-.54 0-.55-.54-1.28-53.61-.01-107.22.01-.46.47-.46 28.87.24 57.93.77 8.57.16 22.4 1.73c15.46 1.76 22.97 14.08 24.14 28.35 1.05 12.75 1.77 23.95-6.2 34.07-8.67 11.02-20.71 10.66-35.18 11.41-15.94.83-32.78.1-49.16-.19q-.58-.01-.58.57m65.64-62.71c-26.81.88-44.04.2-65.09.16q-.55 0-.55.55v47.01q0 .51.52.52 17.37.09 59.78-.4c19.31-.22 17.8-16.05 17.57-29.61-.13-8.31-6.14-12.63-11.36-17.88q-.36-.37-.87-.35m428.03 62.04c-.49-25.23.31-50.37.36-75.59q0-.51.52-.51 28.79.37 57.51.95c10.69.21 26.77-.08 34.9 6.12q10.65 8.12 11.33 22.4 1.17 24.52.08 49.05c-.6 13.34-7.76 24.18-20.88 26.97q-9.03 1.92-24.8 2.18-29.07.48-58.14.84-.52 0-.52-.52-.04-15.99-.36-31.89m13.55-8.02c-1.02-4.11.05-9.91-.39-14.36a.17.17 0 0 0-.34 0c-.92 14.49.27 24.12.2 36.31-.02 4.65 11.5 4.13 15.81 4.13q26.55.03 53.08-.94.5-.02.87-.35c5.43-4.79 8.21-9.38 9.03-16.61.78-6.94.33-14.54.16-21.54-.14-5.47 1.8-24.88-2.21-30.89q-2.03-3.05-6.8-8.19a.99.98-21.2 0 0-.72-.31l-68.3.05q-.59 0-.6.59-.19 6.34.43 18.81.83 16.5.5 33.22a.37.36 38.6 0 1-.72.08M272.33 73.63q5.09 5.71 10.41 11.22c2.51 2.6 5.66 3.3 7.5 7.2q.22.45.63.71c1.43.9 5.8 4.09 5.11 5.77q-.17.39.13.7l6.27 6.4q.42.44.93.09 2.59-1.79 3.12-4.8.09-.53.46-.93c1.91-2.07 4.47-3.08 6.23-4.99q4.88-5.34 9.79-10.64.25-.28-.08-.45c-.85-.42-8.34 7.94-10.04 9.92q-.17.2-.34.01-.1-.12-.22-.23-.09-.09 0-.19c5.18-5.82 11.3-11.28 16.33-16.45 5.09-5.24 12.57-11.86 13.19-20.14.27-3.67-.24-7.53 1.45-10.07q.35-.52.98-.54l11.3-.32a.59.58 0 0 1 .6.59l-.36 21.96a1.37 1.36 67.1 0 1-.36.9q-1.08 1.19-1.73 2.64c-1.07 2.43-2.33 3.58-4.04 5.31q-.35.36-.83.48c-1.75.45-1.69 1.8-2.47 2.76-1.78 2.17-4.24 3.56-5.94 5.38q-3.84 4.14-7.7 8.25-.38.41.1.7l.34.2q.15.09.05.23-2.05 3.17-5.35 4.99-.44.25-.62.72c-1.31 3.43-4.25 4.28-6.17 6.24q-5.44 5.58-10.64 11.47-.32.38-.33.87l-.05 33.92q0 .49-.49.49h-12.94q-.41 0-.43-.41-.85-19.04-.08-31.83.11-1.84-.9-2.44c-4.54-2.71-5.02-6.06-8.09-9.37-4.12-4.44-8-9.57-12.91-13.13-1.05-.76-4.66-4.06-4.46-5.44q.06-.47-.27-.82-5.62-5.94-11.11-11.99c-3.61-3.99-8.13-5.46-8.37-12q-.37-10.07.16-20.14.02-.43.45-.43h12.97q.55 0 .53.55c-.21 6.02-1.27 16.87 4.16 20.76q1.5 1.07 1.91 2.36.16.49.59.77 3.1 2 5.33 4.96.54.72-.34.57c-1.15-.19-1.94-2.09-3.14-2.64q-.82-.38-.22.3M462.91 55.6l-2.31-2.68q-.76-.89.17-.18 3.43 2.63 6.58 5.57.44.41.16.95l-.19.35q-.29.53.16.94l3.02 2.76q.41.38.43.93.8 25.63.81 51.26.01 5.34-.9 13.57c-1.7 15.38-14.01 22.97-28.83 23.68q-19.04.9-33.36.59-14.06-.3-18.68-1.48c-10.55-2.7-19.51-11.35-22.37-22.04q-1.08-4.03-1.27-12.74-.42-20.01.49-40.01c.9-19.61 12.76-27.49 30.34-29.52q22.91-2.64 44.84-.79 11.48.98 20.36 8.94.08.07.19.07.2 0 .33-.06.1-.04.03-.11m-70.15 5.9c-10.13 1.51-12.44 12.82-12.63 21.32q-.39 17.81.26 35.61c.36 9.78 2.47 18.31 13.33 20.1 11.81 1.95 22.82 1.31 36.19 1.24 12.06-.07 25.1-.11 28.09-14.53q1.69-8.13 1.45-14.86c-.33-9.11-.19-18.2-.05-27.3.26-16.68-9.48-22.57-24.86-22.59-13.57-.02-28.38-1-41.78 1.01m200.96 54.25c.02 16.63-2.41 30.54-20.43 35.59q-2.89.81-9.14 1.22c-25.08 1.64-50.53 1.45-75.67 1.65q-.48 0-.48-.48V46.54q0-.43.42-.43 35.96-.56 71.82.78c15.97.6 21.7 6.23 32.32 16.77q.35.35.37.86.76 25.6.79 51.23m-91.61-54.37.19 78.12a.59.46 89.1 0 0 .48.59q20.02-.58 40.16-.4 15.36.14 22.83-.95 11.89-1.75 14.38-13.46c2.12-9.94 1.48-21.99 1.21-32.85-.03-1.28.62-2.63.16-4.11q-.15-.48-.12-.98c.58-10.3-1.15-21.87-13-25.08-7.2-1.96-14.98-2.1-22.4-2.14q-21.39-.12-42.5-.14a1.4 1.39 90 0 0-1.39 1.4"/><rect width="14" height="108" x="610" y="46" rx=".27"/><path d="M831 139.73c12.72.06 25.56.07 38.42.24q.58.01.58.58v12.95q0 .5-.5.5H764.75q-.48 0-.5-.49-1.35-52.63-.72-77.76.56-21.8.52-29.28 0-.47.47-.47H869.5q.5 0 .5.5v13.07q0 .57-.57.58l-91.93.95q-.44.01-.43.45.49 14.37.65 28.7.01 1.17-.6 2.2-.37.62.34.48c1.47-.3 2.99-1.02 4.43-.98q19.61.47 39.22.28c3.93-.04 7.16 1.39 11.06 1.51q8.54.24 17.08.05 2.09-.05 4.17.27.58.09.58.68v10.48q0 .46-.42.63c-1.76.72-3.34.17-4.72.17q-19.55-.04-39.11-.02c-1.1 0-1.65.19-1.76 1.33a.74.73 2.6 0 1-.72.65l-28.33.03a1.09 1.08-88.9 0 0-1.08 1.05l-.98 28.95q-.03 1.04 1.01 1.02 8.2-.16 16.84.17c.92.03 1.78-.43 2.77-.47 6.35-.22 50.1-1.18 50.02-.13q-.03.4-.43.4h-15.84a.44.32-35.5 0 0-.25.73M589.63 59.75a.17.17 0 0 1-.24.01l-.15-.14a9.33.42 43.2 0 1-6.51-6.69l.09-.1a9.33.42 43.2 0 1 7.09 6.08l.15.14a.17.17 0 0 1 0 .24z"/><path fill="none" d="M148.55 59.94c21.05.04 38.28.72 65.09-.16q.51-.02.87.35c5.22 5.25 11.23 9.57 11.36 17.88.23 13.56 1.74 29.39-17.57 29.61q-42.41.49-59.78.4-.52-.01-.52-.52V60.49q0-.55.55-.55M502.3 139.5l-.19-78.12a1.4 1.39-90 0 1 1.39-1.4q21.11.02 42.5.14c7.42.04 15.2.18 22.4 2.14 11.85 3.21 13.58 14.78 13 25.08q-.03.5.12.98c.46 1.48-.19 2.83-.16 4.11.27 10.86.91 22.91-1.21 32.85q-2.49 11.71-14.38 13.46-7.47 1.09-22.83.95-20.14-.18-40.16.4a.59.46 89.1 0 1-.48-.59m1-77.75-.2 74.96a2.05 2.05 0 0 0 1.97 2.05q16.91.66 33.93.13 1.1-.04 1.79-.45.24-.14-.04-.14l-35.95.06a1.06 1.06 0 0 1-1.07-1.06l.07-74.17a1.39 1.38-89.8 0 1 1.38-1.38h32.05q.42 0 .03-.16-.83-.34-1.26-.34-16.22-.01-32.2 0a.5.5 0 0 0-.5.5M380.13 82.82c.19-8.5 2.5-19.81 12.63-21.32 13.4-2.01 28.21-1.03 41.78-1.01 15.38.02 25.12 5.91 24.86 22.59-.14 9.1-.28 18.19.05 27.3q.24 6.73-1.45 14.86c-2.99 14.42-16.03 14.46-28.09 14.53-13.37.07-24.38.71-36.19-1.24-10.86-1.79-12.97-10.32-13.33-20.1q-.65-17.8-.26-35.61m1.616 33.31a.24.24 0 0 1-.24.24.24.24 0 0 1-.24-.24l-.112-31.98a.24.24 0 0 1 .24-.24.24.24 0 0 1 .24.24zm53.124 22.545a.32.32 0 0 0-.319-.321l-25.12-.088a.32.32 0 0 0-.32.319l-.001.04a.32.32 0 0 0 .319.321l25.12.088a.32.32 0 0 0 .32-.319zM655.22 113.8a.37.36 38.6 0 0 .72-.08q.33-16.72-.5-33.22-.62-12.47-.43-18.81.01-.59.6-.59l68.3-.05a.99.98-21.2 0 1 .72.31q4.77 5.14 6.8 8.19c4.01 6.01 2.07 25.42 2.21 30.89.17 7 .62 14.6-.16 21.54-.82 7.23-3.6 11.82-9.03 16.61q-.37.33-.87.35-26.53.97-53.08.94c-4.31 0-15.83.52-15.81-4.13.07-12.19-1.12-21.82-.2-36.31a.17.17 0 0 1 .34 0c.44 4.45-.63 10.25.39 14.36m38.15 24.733a8.16.5-.4 0 0-8.163-.443 8.16.5-.4 0 0-8.157.557 8.16.5-.4 0 0 8.163.443 8.16.5-.4 0 0 8.157-.557"/><path d="m503.1 136.71.2-74.96a.5.5 0 0 1 .5-.5q15.98-.01 32.2 0 .43 0 1.26.34.39.16-.03.16h-32.05a1.39 1.38-89.8 0 0-1.38 1.38l-.07 74.17a1.06 1.06 0 0 0 1.07 1.06l35.95-.06q.28 0 .04.14-.69.41-1.79.45-17.02.53-33.93-.13a2.05 2.05 0 0 1-1.97-2.05m122.23-4.17a.13.13 0 0 1-.13-.13v-.15a65.2.27-90 0 1 .27-65.2h.06a65.2.27-90 0 1 .27 65.2v.15a.13.13 0 0 1-.13.13z"/><rect width=".48" height="32.46" x="-.24" y="-16.23" rx=".24" transform="rotate(-.2 28878.693 -109227.195)"/><rect width=".64" height="30.56" x="595.01" y="85.56" rx=".26"/><path d="M473.55 85.93a.15.15 0 0 1 .15.15l.05 9.56a18.61.44 89.7 0 1-.35 18.61 18.61.44 89.7 0 1-.53-18.61l-.05-9.56a.15.15 0 0 1 .15-.15z"/><rect width=".66" height="8.76" x="-.33" y="-4.38" rx=".31" transform="rotate(-44.6 267.61 -289.588)"/><ellipse rx="2.2" ry=".87" transform="rotate(86.6 168.83 314.557)"/><ellipse rx="8.16" ry=".5" transform="rotate(-.4 20194.08 -98079.41)"/><rect width="25.76" height=".68" x="-12.88" y="-.34" rx=".32" transform="rotate(.2 -39509.264 120960.432)"/><path fill="#614fe5" d="M293.39 167.38c.59-2.35 19.52-.48 22.42-.22a.94.94 0 0 0 1.03-.85l1.28-13.69a.69.69 0 0 1 .69-.62h42.69a.5.5 0 0 1 .5.5v117a.5.5 0 0 1-.5.5h-117a.5.5 0 0 1-.5-.5v-117q0-.5.5-.5h42.87a.63.63 0 0 1 .63.63v15.01a.58.57-2.7 0 0 .63.57l4.33-.45q.35-.04.43-.38m-17.68 48.28q-3.27.36-4.43 3.42a.74.73-64.9 0 0 .32.9q2 1.16 2.38 3.5.09.52-.27.9l-1.19 1.24a1.09 1.07-29.6 0 0-.27.95l1.73 8.25q.1.51.6.34c1.5-.49 1.61 2.72.59 3.73a1.04 1.02-28.1 0 0-.3.96l.94 4.71q.08.38.46.46 1.98.44 1.65 2.75a1.02 1.01 22.4 0 0 .4.95q1.68 1.24 1.4 3.43a.7.69 3.8 0 1-.69.6h-.6q-.83 0-.62.8l.23.87q.06.23.28.29.45.13.41-.23a.57.33 35.2 0 1 .88.08q.46.58.45.96a2.05 2.04 68.7 0 0 3.47 1.53q1.32-1.28 3.13-1.68a1.32 1.28 6.1 0 0 .88-.69l1.42-2.8a.27.27 0 0 1 .52.14q-.21 3.1-2.88 4.46a.44.44 0 0 0 .23.84q2.41-.17 3.29-3.19 1.72-5.96 3.29-12.01.17-.65-.47-.85l-.37-.12q-.37-.12-.29-.5c.4-2.03-1-7.17 1.24-8.3a.67.66-31.6 0 1 .83.19q2.08 2.78.65 5.83-.25.52-.12 1.09l3.49 15.31q.06.26.31.24.14-.01.25-.07.82-.42.82-.19v.75q0 .52.31.94c1.57 2.13 4.92-.53 6.83-1.21q.53-.19.73-.71.59-1.49 1.64-2.74.46-.53.32.16-.59 2.96-2.94 4.59-.68.47.13.63c2.64.5 4.82-8.18 5.46-10.52q.32-1.17-.58-.36l-.76.68q-.57.51-.72-.24-.34-1.81.11-3.63.11-.47.44-.12.87.9.96 2.24a.45.45 0 0 0 .89.09c2.06-7.72 5.19-17.04 5.46-25a.34.33 64.9 0 0-.6-.22q-.59.79-.44 1.97a.33.28 36.3 0 1-.6.04q-.8-2.24.06-4.44a1.13 1.13 0 0 0-.87-1.53c-8.57-1.45-9.11 10.43-10.53 16.1q-.35 1.35.86 4.09a.29.28-24.7 0 1-.14.36l-.86.42q-.56.26-.16.74.88 1.07 1.06 1.79a2.05 1.66-68.6 0 1-3.24 1.83q-.73-1.87-.45-3.52a.86.85 88.6 0 1 .67-.71c1.43-.3-.58-2.63-.72-3.72q-.07-.5.44-.5h.76q.51 0 .37-.49l-3.18-11.56q-.23-.83-.97-.4l-.55.33a.49.49 0 0 1-.73-.5c.29-1.74.52-6.4-2.92-4.76q-.48.23-1 .19l-3.52-.3q-.35-.03-.51.28-1.75 3.51-2.2 7.42-.04.29.26.29h.38q.47 0 .72.39 1.21 1.87-.51 3.58a.57.57 0 0 1-.95-.57q.24-.8-.48-.62a.41.41 0 0 0-.3.3c-.72 2.77-3.44 9.54-2.4 12.38q.49 1.33-.39 2.58a.45.45 0 0 1-.81-.15l-1.53-6.09q-.16-.66.52-.61l.88.07q.79.06.64-.73l-1.65-8.34a.48.48 0 0 0-.95.11l.1 3.05a.41.41 0 0 1-.79.17q-1.11-2.7-.45-5.6.17-.76.46-.03l.58 1.5a.44.44 0 0 0 .85-.23c-.52-3.13-1.26-8.65-4.32-10.14-1.24-.61-7.05-.74-6.64 1.96a.35.35 0 0 0 .61.17q1.61-1.91 3.83-1.61a.31.31 0 0 1-.01.62m41.59-.35c-.49-1.84-4.64-1.01-5.61-.38a.3.3 0 0 0 .27.53q2.45-.95 4.76.3.82.44.58-.45m23.28.91q.13-.05.26-.09a.41.4-24.1 0 0 .22-.57q-.45-.85-1.4-.52-.47.17-.16.56.26.32.6.56.22.16.48.06m-20.52 26.47-.39-.4a.29.29 0 0 0-.48.15l-.67 3.3q-.09.41.17.75c.98 1.28 2.41 4.61-.61 4.77q-.49.03-.56.52l-.63 4.34a.53.53 0 0 0 1.04.18l.09-.48a.76.74-2.8 0 1 .52-.56q2.63-.76 5.02.39a1.1 1.08-42.5 0 0 .86.03q1.15-.45 1.08-1.7a.86.85 72 0 1 .39-.77c.77-.5.52-1.09.85-1.65 2.75-4.72 9.45-3.99 13.74-2.11q.8.35 0 .7-.95.41-2.07.11a.29.28 66.2 0 0-.19.53q3.41 2 4.41 5.92a.42.42 0 0 0 .79.07l.51-1.06q.18-.39.6-.48 3.12-.7 6.1.33 1.51.52 1.13-1.03-4.23-17.5-9.64-34.67-.19-.61-.83-.6-1.23.01-1.31-1.29-.03-.56-.56-.74-6.39-2.16-13.15-1.35a.83.81 3 0 0-.7.62l-1.58 6.47q-.12.51.4.48c1.88-.11 1.72 2.68.82 3.54a.63.63 0 0 1-.98-.14l-.28-.47q-.38-.63-.67.05-.77 1.77-.79 3.67-.01.48.33.81c.85.82 1.79 4.44-.22 4.28a.65.64 7.3 0 1-.59-.75q.08-.47-.35-.45-.32.01-.39.31l-1.17 5.08a.31.31 0 0 0 .46.34l.24-.14q.44-.26.68.19.75 1.37.21 2.6a1.01 1 34.1 0 1-1.63.31"/><path fill="none" d="M275.72 215.04q-2.22-.3-3.83 1.61a.35.35 0 0 1-.61-.17c-.41-2.7 5.4-2.57 6.64-1.96 3.06 1.49 3.8 7.01 4.32 10.14a.44.44 0 0 1-.85.23l-.58-1.5q-.29-.73-.46.03-.66 2.9.45 5.6a.41.41 0 0 0 .79-.17l-.1-3.05a.48.48 0 0 1 .95-.11l1.65 8.34q.15.79-.64.73l-.88-.07q-.68-.05-.52.61l1.53 6.09a.45.45 0 0 0 .81.15q.88-1.25.39-2.58c-1.04-2.84 1.68-9.61 2.4-12.38a.41.41 0 0 1 .3-.3q.72-.18.48.62a.57.57 0 0 0 .95.57q1.72-1.71.51-3.58-.25-.39-.72-.39h-.38q-.3 0-.26-.29.45-3.91 2.2-7.42.16-.31.51-.28l3.52.3q.52.04 1-.19c3.44-1.64 3.21 3.02 2.92 4.76a.49.49 0 0 0 .73.5l.55-.33q.74-.43.97.4l3.18 11.56q.14.49-.37.49h-.76q-.51 0-.44.5c.14 1.09 2.15 3.42.72 3.72a.86.85 88.6 0 0-.67.71q-.28 1.65.45 3.52a2.05 1.66-68.6 0 0 3.24-1.83q-.18-.72-1.06-1.79-.4-.48.16-.74l.86-.42a.29.28-24.7 0 0 .14-.36q-1.21-2.74-.86-4.09c1.42-5.67 1.96-17.55 10.53-16.1a1.13 1.13 0 0 1 .87 1.53q-.86 2.2-.06 4.44a.33.28 36.3 0 0 .6-.04q-.15-1.18.44-1.97a.34.33 64.9 0 1 .6.22c-.27 7.96-3.4 17.28-5.46 25a.45.45 0 0 1-.89-.09q-.09-1.34-.96-2.24-.33-.35-.44.12-.45 1.82-.11 3.63.15.75.72.24l.76-.68q.9-.81.58.36c-.64 2.34-2.82 11.02-5.46 10.52q-.81-.16-.13-.63 2.35-1.63 2.94-4.59.14-.69-.32-.16-1.05 1.25-1.64 2.74-.2.52-.73.71c-1.91.68-5.26 3.34-6.83 1.21q-.31-.42-.31-.94v-.75q0-.23-.82.19-.11.06-.25.07-.25.02-.31-.24l-3.49-15.31q-.13-.57.12-1.09 1.43-3.05-.65-5.83a.67.66-31.6 0 0-.83-.19c-2.24 1.13-.84 6.27-1.24 8.3q-.08.38.29.5l.37.12q.64.2.47.85-1.57 6.05-3.29 12.01-.88 3.02-3.29 3.19a.44.44 0 0 1-.23-.84q2.67-1.36 2.88-4.46a.27.27 0 0 0-.52-.14l-1.42 2.8a1.32 1.28 6.1 0 1-.88.69q-1.81.4-3.13 1.68a2.05 2.04 68.7 0 1-3.47-1.53q.01-.38-.45-.96a.57.33 35.2 0 0-.88-.08q.04.36-.41.23-.22-.06-.28-.29l-.23-.87q-.21-.8.62-.8h.6a.7.69 3.8 0 0 .69-.6q.28-2.19-1.4-3.43a1.02 1.01 22.4 0 1-.4-.95q.33-2.31-1.65-2.75-.38-.08-.46-.46l-.94-4.71a1.04 1.02-28.1 0 1 .3-.96c1.02-1.01.91-4.22-.59-3.73q-.5.17-.6-.34l-1.73-8.25a1.09 1.07-29.6 0 1 .27-.95l1.19-1.24q.36-.38.27-.9-.38-2.34-2.38-3.5a.74.73-64.9 0 1-.32-.9q1.16-3.06 4.43-3.42a.31.31 0 0 0 .01-.62m33.72 6.58h-.88a.22.22 0 0 0-.23.21l-.03 2.99a1.87.55-89.4 0 0 .53 1.88h.22a1.87.55-89.4 0 0 .57-1.86l.03-2.99a.22.22 0 0 0-.21-.23m4.85 5.27c-.28 1.21-.6 2.97.1 4.08a.52.52 0 0 0 .91-.05q1.01-2.18-.55-4.13-.33-.42-.46.1m-14.03.87c-.12 1.51-.86 3.93.85 4.84q.48.26.41-.28-.17-1.16.23-2.18.19-.52.04-1.05-.26-.92-.86-1.56-.6-.63-.67.23m6.05 7.21 1.2-.02a.25.25 0 0 0 .24-.26v-.1a3.77.74 88.7 0 0-.83-3.75h-.22a3.77.74 88.7 0 0-.65 3.79v.1a.25.25 0 0 0 .26.24m-20.26-1.5v3.56a.21.21 0 0 0 .21.21h.09a1.58 1.4 89.9 0 0 1.4-1.58v-.82a1.58 1.4 89.9 0 0-1.4-1.58h-.09a.21.21 0 0 0-.21.21m25.99 5.55a.54.54 0 0 0 1.01.24q1.38-2.39-.3-4.34-.38-.45-.48.13-.34 1.99-.23 3.97m-15.73-1.18c.56 1.56-.93 2.28.32 4.6a.56.56 0 0 0 1.05-.36c-.17-1.02.5-4.54-1.02-4.69q-.52-.04-.35.45m-20.01 1.56q-.56 1.49-.17 3.25a1.1.86-60.3 0 0 1.82-.75q-.1-1.35-.85-2.57a.45.44 39.8 0 0-.8.07m13.81 7.28a.58.57-33.7 0 0 1.06.21q1.26-2.07-.41-3.83-.31-.33-.43.11-.5 1.71-.22 3.51m8.28 1.02c.29.55-.5 3.06.3 4.75a.5.5 0 0 0 .96-.23l-.13-4.54a.45.45 0 0 0-.51-.44l-.42.06q-.39.05-.2.4"/><path fill="none" d="M311.69 214.93c.97-.63 5.12-1.46 5.61.38q.24.89-.58.45-2.31-1.25-4.76-.3a.3.3 0 0 1-.27-.53m28.41 1.23q-.34-.24-.6-.56-.31-.39.16-.56.95-.33 1.4.52a.41.4-24.1 0 1-.22.57q-.13.04-.26.09-.26.1-.48-.06m-20.04 26.53a1.01 1 34.1 0 0 1.63-.31q.54-1.23-.21-2.6-.24-.45-.68-.19l-.24.14a.31.31 0 0 1-.46-.34l1.17-5.08q.07-.3.39-.31.43-.02.35.45a.65.64 7.3 0 0 .59.75c2.01.16 1.07-3.46.22-4.28q-.34-.33-.33-.81.02-1.9.79-3.67.29-.68.67-.05l.28.47a.63.63 0 0 0 .98.14c.9-.86 1.06-3.65-.82-3.54q-.52.03-.4-.48l1.58-6.47a.83.81 3 0 1 .7-.62q6.76-.81 13.15 1.35.53.18.56.74.08 1.3 1.31 1.29.64-.01.83.6 5.41 17.17 9.64 34.67.38 1.55-1.13 1.03-2.98-1.03-6.1-.33-.42.09-.6.48l-.51 1.06a.42.42 0 0 1-.79-.07q-1-3.92-4.41-5.92a.29.28 66.2 0 1 .19-.53q1.12.3 2.07-.11.8-.35 0-.7c-4.29-1.88-10.99-2.61-13.74 2.11-.33.56-.08 1.15-.85 1.65a.86.85 72 0 0-.39.77q.07 1.25-1.08 1.7a1.1 1.08-42.5 0 1-.86-.03q-2.39-1.15-5.02-.39a.76.74-2.8 0 0-.52.56l-.09.48a.53.53 0 0 1-1.04-.18l.63-4.34q.07-.49.56-.52c3.02-.16 1.59-3.49.61-4.77q-.26-.34-.17-.75l.67-3.3a.29.29 0 0 1 .48-.15zm12.16-11.91q.37 2.07-1.42 2.31-.53.08-.59.61l-.29 2.53a.42.42 0 0 1-.82.06l-.14-.53a.34.33 45.4 0 0-.64-.01q-.73 2.57.47 4.94a.41.41 0 0 0 .78-.17q.05-1.29-.09-2.41a.86.86 0 0 1 1.52-.65l1.86 2.27a.56.56 0 0 1-.34.91l-1.31.23a.36.35-39.3 0 0-.07.68q1.64.63 3.33.34.74-.13.3-.73l-.24-.32q-.3-.42.15-.67c3.51-1.88 1.66-9.27-.83-11.02q-.4-.28-.13-.68l1.08-1.61a.42.41 13.9 0 0-.39-.64q-3.41.36-4.05 3.59a.55.55 0 0 0 .52.66l1.03.04q.26.01.31.27"/><path fill="#614fe5" d="M309.44 221.62a.22.22 0 0 1 .21.23l-.03 2.99a1.87.55-89.4 0 1-.57 1.86h-.22a1.87.55-89.4 0 1-.53-1.88l.03-2.99a.22.22 0 0 1 .23-.21zm22.47 8.89-1.03-.04a.55.55 0 0 1-.52-.66q.64-3.23 4.05-3.59a.42.41 13.9 0 1 .39.64l-1.08 1.61q-.27.4.13.68c2.49 1.75 4.34 9.14.83 11.02q-.45.25-.15.67l.24.32q.44.6-.3.73-1.69.29-3.33-.34a.36.35-39.3 0 1 .07-.68l1.31-.23a.56.56 0 0 0 .34-.91l-1.86-2.27a.86.86 0 0 0-1.52.65q.14 1.12.09 2.41a.41.41 0 0 1-.78.17q-1.2-2.37-.47-4.94a.34.33 45.4 0 1 .64.01l.14.53a.42.42 0 0 0 .82-.06l.29-2.53q.06-.53.59-.61 1.79-.24 1.42-2.31-.05-.26-.31-.27m-17.52.46c-.7-1.11-.38-2.87-.1-4.08q.13-.52.46-.1 1.56 1.95.55 4.13a.52.52 0 0 1-.91.05m-13.28 1.63c-1.71-.91-.97-3.33-.85-4.84q.07-.86.67-.23.6.64.86 1.56.15.53-.04 1.05-.4 1.02-.23 2.18.07.54-.41.28"/><path fill="#614fe5" d="M306.31 234.97a.25.25 0 0 1-.26-.24v-.1a3.77.74 88.7 0 1 .65-3.79h.22a3.77.74 88.7 0 1 .83 3.75v.1a.25.25 0 0 1-.24.26zm-20.26-1.5a.21.21 0 0 1 .21-.21h.09a1.58 1.4 89.9 0 1 1.4 1.58v.82a1.58 1.4 89.9 0 1-1.4 1.58h-.09a.21.21 0 0 1-.21-.21zm25.99 5.55q-.11-1.98.23-3.97.1-.58.48-.13 1.68 1.95.3 4.34a.54.54 0 0 1-1.01-.24m-15.41 3.42c-1.25-2.32.24-3.04-.32-4.6q-.17-.49.35-.45c1.52.15.85 3.67 1.02 4.69a.56.56 0 0 1-1.05.36m-20.33-3.04a.45.44 39.8 0 1 .8-.07q.75 1.22.85 2.57a1.1.86-60.3 0 1-1.82.75q-.39-1.76.17-3.25m13.81 7.28q-.28-1.8.22-3.51.12-.44.43-.11 1.67 1.76.41 3.83a.58.57-33.7 0 1-1.06-.21m8.58 5.77c-.8-1.69-.01-4.2-.3-4.75q-.19-.35.2-.4l.42-.06a.45.45 0 0 1 .51.44l.13 4.54a.5.5 0 0 1-.96.23"/></svg>