<svg xmlns="http://www.w3.org/2000/svg" width="200" height="200" class="icon" viewBox="0 0 1173 1024"><path fill="#a42122" d="M1.914 656.84 0 789.33l516.179 226.592s55.039 26.934 151.073-17.56c60.37-28.056 505.897-236.56 505.897-236.56V635.253s.775 16.85-12.873 24.442-543.69 239.548-543.69 239.548-43.025 14.737-80.223.544c-13.203-5.033-93.196-42.183-198.24-87.782C186.951 746.404 12.015 672.584 12.015 672.584s-8.846-7.608-10.1-15.744"/><path fill="#d82f27" d="M534.53 426.798s78.062-32.792 148.334 0 477.808 188.932 477.808 188.932 35.912 29.706-14.06 51.54-538.707 235.768-538.707 235.768-45.269 17.18-110.854-18.731c-63.439-34.74-458.532-199.51-484.294-210.254a6.44 6.44 0 0 1-2.475-1.766c-5.661-6.288-28.056-35.565 26.141-54.99 60.898-21.867 498.108-190.5 498.108-190.5"/><path fill="#a42122" d="M1.914 450.662 0 583.152l516.179 226.592s55.039 26.983 151.073-17.576c60.37-28.056 505.897-236.56 505.897-236.56V429.091s.775 16.85-12.873 24.442-543.69 239.613-543.69 239.613-43.025 14.738-80.223.545c-13.203-5.034-93.196-42.183-198.24-87.782-151.172-65.6-326.108-139.42-326.108-139.42s-8.846-7.69-10.1-15.827"/><path fill="#d82f27" d="M534.53 220.686s78.062-32.792 148.334 0 477.808 188.932 477.808 188.932 35.912 29.706-14.06 51.54-538.707 235.769-538.707 235.769-45.269 17.18-110.854-18.732c-63.439-34.74-458.532-199.51-484.294-210.254a6.44 6.44 0 0 1-2.475-1.766c-5.661-6.288-28.056-35.565 26.141-54.99 60.898-21.866 498.108-190.499 498.108-190.499"/><path fill="#a42122" d="M1.914 244.55 0 377.04l516.179 226.592s55.039 26.934 151.073-17.56c60.37-28.055 505.897-236.56 505.897-236.56V223.03s.775 16.85-12.873 24.425-543.69 239.564-543.69 239.564-43.025 14.738-80.223.545c-13.203-4.951-93.196-42.183-198.24-87.782C186.951 334.18 12.015 260.36 12.015 260.36s-8.846-7.608-10.1-15.81"/><path fill="#d82f27" d="M534.53 14.574s78.062-32.792 148.334 0 477.808 188.932 477.808 188.932 35.912 29.706-14.06 51.54-538.707 235.769-538.707 235.769-45.269 17.18-110.854-18.732C433.612 437.343 38.52 272.573 12.757 261.83a6.44 6.44 0 0 1-2.475-1.766c-5.661-6.287-28.056-35.565 26.141-54.99C97.321 183.19 534.531 14.575 534.531 14.575"/><path fill="#fff" d="M195.682 239.93a152.244 63.505 0 1 0 304.488 0 152.244 63.505 0 1 0-304.488 0M526.708 66.098l20.3 45.286-79.63 34.36 119.65 10.925L612.592 216l26.554-60.898h92.122l-68.703-35.911 18.731-43.718L614.16 97.34zM422.093 339.363l192.067 85.884 76.51-121.796z"/><path fill="#ad2524" d="m860.87 169.162-170.2 70.767 170.2 63.522z"/><path fill="#791514" d="m1010.771 228.492-149.9-59.33v134.289z"/></svg>