<svg xmlns="http://www.w3.org/2000/svg" width="1em" height="1em" fill="currentColor" fill-rule="evenodd" style="flex:none;line-height:1" viewBox="0 0 24 24"><title>SearchApi</title><path d="M18.41 20.904a.82.82 0 0 1-.821.822 3.127 3.127 0 0 1-3.123-3.123v-3.515a.822.822 0 0 1 1.644 0v3.515a1.48 1.48 0 0 0 1.479 1.48.82.82 0 0 1 .822.821zm4.768-5.293a.82.82 0 0 0-.822.822 1.479 1.479 0 1 1-2.959 0V9.397a7.397 7.397 0 1 0-14.794 0v7.036a1.48 1.48 0 0 1-2.96 0 .823.823 0 1 0-1.643 0 3.123 3.123 0 0 0 6.247 0V9.397a5.753 5.753 0 0 1 11.506 0v7.036a3.123 3.123 0 0 0 6.247 0 .82.82 0 0 0-.822-.822M12 15.15a.82.82 0 0 0-.822.822v5.589a.822.822 0 0 0 1.644 0v-5.59A.823.823 0 0 0 12 15.15m-3.288-.885a.82.82 0 0 0-.822.822v3.515a1.48 1.48 0 0 1-1.479 1.48.822.822 0 0 0 0 1.643 3.127 3.127 0 0 0 3.123-3.123v-3.515a.82.82 0 0 0-.822-.822m.987-6.02a1.15 1.15 0 1 0 0 2.302 1.15 1.15 0 0 0 0-2.302m5.753 1.151a1.151 1.151 0 1 0-2.302 0 1.151 1.151 0 0 0 2.302 0"/></svg>