<svg xmlns="http://www.w3.org/2000/svg" xml:space="preserve" viewBox="0 0 362 129"><title>Apache  Tika logo</title><defs><linearGradient id="a" x1="-6874" x2="-6636" y1="2774" y2="2497" gradientTransform="matrix(.0235 -.0503 -.0503 -.0235 364 -272)" gradientUnits="userSpaceOnUse"><stop offset="0" style="stop-color:#f59723"/><stop offset=".312" style="stop-color:#f69822"/><stop offset=".838" style="stop-color:#e87726"/><stop offset="1" style="stop-color:#e87726"/></linearGradient><linearGradient id="d" x1="-8631" x2="-6937" y1="2805" y2="2805" gradientTransform="matrix(.0235 -.0503 -.0503 -.0235 364 -272)" gradientUnits="userSpaceOnUse"><stop offset="0" style="stop-color:#9c2063"/><stop offset=".323" style="stop-color:#9c2063"/><stop offset=".63" style="stop-color:#c82037"/><stop offset=".751" style="stop-color:#cc2135"/><stop offset="1" style="stop-color:#e87726"/></linearGradient><linearGradient id="e" x1="-8426" x2="-7417" y1="2635" y2="2635" gradientTransform="matrix(.0235 -.0503 -.0503 -.0235 364 -272)" gradientUnits="userSpaceOnUse"><stop offset="0" style="stop-color:#282661"/><stop offset=".096" style="stop-color:#662e8c"/><stop offset=".788" style="stop-color:#9e2064"/><stop offset=".949" style="stop-color:#cc2032"/><stop offset="1" style="stop-color:#cc2032"/></linearGradient><linearGradient id="f" x1="-8536" x2="-6842" y1="2821" y2="2821" gradientTransform="matrix(.0235 -.0503 -.0503 -.0235 364 -272)" gradientUnits="userSpaceOnUse"><stop offset="0" style="stop-color:#9c2063"/><stop offset=".323" style="stop-color:#9c2063"/><stop offset=".63" style="stop-color:#c82037"/><stop offset=".751" style="stop-color:#cc2135"/><stop offset="1" style="stop-color:#e87726"/></linearGradient><linearGradient id="g" x1="-8412" x2="-7522" y1="2798" y2="2798" gradientTransform="matrix(.0235 -.0503 -.0503 -.0235 364 -272)" gradientUnits="userSpaceOnUse"><stop offset="0" style="stop-color:#282661"/><stop offset=".096" style="stop-color:#662e8c"/><stop offset=".788" style="stop-color:#9e2064"/><stop offset=".949" style="stop-color:#cc2032"/><stop offset="1" style="stop-color:#cc2032"/></linearGradient><linearGradient id="h" x1="-8536" x2="-6842" y1="2645" y2="2645" gradientTransform="matrix(.0235 -.0503 -.0503 -.0235 364 -272)" gradientUnits="userSpaceOnUse"><stop offset="0" style="stop-color:#9c2063"/><stop offset=".323" style="stop-color:#9c2063"/><stop offset=".63" style="stop-color:#c82037"/><stop offset=".751" style="stop-color:#cc2135"/><stop offset="1" style="stop-color:#e87726"/></linearGradient><linearGradient id="i" x1="-8641" x2="-6947" y1="2654" y2="2654" gradientTransform="matrix(.0235 -.0503 -.0503 -.0235 364 -272)" gradientUnits="userSpaceOnUse"><stop offset="0" style="stop-color:#9c2063"/><stop offset=".323" style="stop-color:#9c2063"/><stop offset=".63" style="stop-color:#c82037"/><stop offset=".751" style="stop-color:#cc2135"/><stop offset="1" style="stop-color:#e87726"/></linearGradient><linearGradient id="k" x1="-8536" x2="-6842" y1="2599" y2="2599" gradientTransform="matrix(.0235 -.0503 -.0503 -.0235 364 -272)" gradientUnits="userSpaceOnUse"><stop offset="0" style="stop-color:#9c2063"/><stop offset=".323" style="stop-color:#9c2063"/><stop offset=".63" style="stop-color:#c82037"/><stop offset=".751" style="stop-color:#cc2135"/><stop offset="1" style="stop-color:#e87726"/></linearGradient><linearGradient id="m" x1="-7584" x2="-7210" y1="2601" y2="2601" gradientTransform="matrix(.0235 -.0503 -.0503 -.0235 364 -272)" gradientUnits="userSpaceOnUse"><stop offset="0" style="stop-color:#9c2063"/><stop offset=".323" style="stop-color:#9c2063"/><stop offset=".63" style="stop-color:#c82037"/><stop offset=".751" style="stop-color:#cc2135"/><stop offset="1" style="stop-color:#e87726"/></linearGradient><clipPath id="b"><path d="M0 0h272v97H0z"/></clipPath><clipPath id="c"><path d="M0 0h272v97H0z"/></clipPath><clipPath id="j"><path d="M0 0h272v97H0z"/></clipPath><clipPath id="l"><path d="M0 0h272v97H0z"/></clipPath></defs><path d="m172.993 42.713-3.43-7.774h-15.505l-3.43 7.774h-8.751l15.9-35.99h7.976l15.9 35.99zm-11.13-25.231-4.652 10.438h9.238zm38.725-2.869c3.311 0 6.242 1.357 8.804 4.06 2.602 2.677 3.903 6.058 3.903 10.13 0 4.087-1.3 7.493-3.903 10.234-2.562 2.741-5.585 4.125-9.08 4.125-3.443 0-6.229-1.358-8.331-4.06v13.576h-7.91V15.023h7.91v3.086c2.431-2.37 5.296-3.548 8.607-3.548zm-8.712 14.345c0 2.228.636 4.06 1.892 5.507q1.954 2.113 4.691 2.113c1.84 0 3.43-.704 4.81-2.113 1.366-1.435 2.063-3.279 2.063-5.507q.002-3.344-2.01-5.61c-1.341-1.512-2.944-2.267-4.797-2.267-1.866 0-3.443.754-4.757 2.267q-1.893 2.21-1.892 5.61m52.075 13.755h-7.437V39.37c-2.05 2.51-4.573 3.753-7.595 3.753-2.983 0-5.506-.84-7.543-2.523-2.037-1.716-3.062-3.97-3.062-6.788 0-2.844 1.052-4.97 3.167-6.379 2.103-1.408 4.994-2.1 8.66-2.1h5.913v-.156c0-2.946-1.603-4.42-4.796-4.42-1.38 0-2.839.271-4.39.822-1.51.515-2.798 1.165-3.85 1.96l-3.534-4.996q5.599-3.957 12.772-3.957c3.443 0 6.268.84 8.45 2.523 2.18 1.678 3.272 4.342 3.272 7.966zm-7.963-10.553v-1.333h-4.954c-3.167 0-4.757.961-4.757 2.882q0 1.492 1.11 2.319 1.162.77 3.271.77c1.406 0 2.642-.41 3.693-1.23 1.093-.861 1.642-1.998 1.642-3.394zm28.988 4.15c2.641 0 5.02-1.282 7.122-3.856l4.704 5.149c-3.653 3.701-7.621 5.559-11.879 5.559s-7.858-1.307-10.827-3.907q-4.376-3.957-4.376-10.297c0-4.253 1.472-7.698 4.428-10.336 2.996-2.677 6.531-4.01 10.605-4.01 2.036 0 4.1.41 6.176 1.237a15.6 15.6 0 0 1 5.532 3.65l-4.113 5.238c-.915-1.06-2.037-1.882-3.377-2.472q-1.95-.876-3.903-.874c-2.076 0-3.863.67-5.375 2.01-1.471 1.307-2.22 3.138-2.22 5.508q0 3.496 2.22 5.456c1.512 1.306 3.272 1.947 5.283 1.947zm24.967-8.454v14.857h-7.91V4.546h7.91v13.576c2.391-2.37 5.072-3.548 8.015-3.548 2.996 0 5.506 1.026 7.543 3.087 2.05 2.062 3.062 4.803 3.062 8.235v16.779h-7.91V27.56q0-6.378-4.81-6.378c-1.577 0-2.97.565-4.166 1.69-1.16 1.101-1.747 2.729-1.747 4.893zm49.933 10.887c-3.206 2.946-6.964 4.419-11.3 4.419-4.297 0-7.845-1.281-10.657-3.856-2.812-2.612-4.218-6.083-4.218-10.438s1.432-7.813 4.27-10.387c2.891-2.575 6.281-3.856 10.184-3.856s7.214 1.147 9.92 3.446c2.747 2.292 4.114 5.443 4.114 9.465v4.124h-20.63c.245 1.511 1.052 2.74 2.43 3.701 1.367.961 2.918 1.435 4.639 1.435q4.178 0 6.86-2.728zm-5.703-12.603c-.175-1.64-.807-2.92-1.905-3.804-1.088-.89-2.431-1.332-4.008-1.332-1.55 0-2.97.46-4.27 1.383q-1.958 1.388-2.274 3.753z"/><path d="M132 48.4v47.5h-9.49V48.4h-17.1v-8.69h43.6v8.69zM166 96h-9.01V53.2H166zm-8.44-51.3c-1.13-1.13-1.69-2.47-1.69-4.02s.562-2.9 1.69-4.02c1.12-1.12 2.46-1.69 4.02-1.69q2.34 0 4.02 1.69c1.13 1.12 1.69 2.47 1.69 4.02s-.562 2.9-1.69 4.02c-1.12 1.12-2.46 1.69-4.02 1.69q-2.34 0-4.02-1.69M188 96h-9.01V36.3H188v35.1l17.4-18.2H217l-16.2 17L218.3 96h-10.9l-12.7-18.7-6.52 6.6zm72 0h-8.21v-5.71c-3.54 4.24-8.28 6.36-14.2 6.36q-6.675 0-11.1-3.78c-2.89-2.52-4.34-5.87-4.34-10.1 0-4.24 1.55-7.4 4.67-9.49 3.11-2.09 7.32-3.14 12.6-3.14h11.7v-1.61c0-5.68-3.17-8.53-9.5-8.53-3.97 0-8.1 1.45-12.4 4.34l-4.02-5.63c5.2-4.13 11.1-6.2 17.7-6.2 5.04 0 9.14 1.28 12.3 3.86q4.83 3.78 4.83 12zm-9.01-15.9v-3.62h-10.1c-6.49 0-9.74 2.04-9.74 6.11q.001 3.135 2.41 4.83c1.61 1.07 3.83 1.61 6.68 1.61q4.35.001 7.56-2.42c2.14-1.61 3.22-3.78 3.22-6.52z" style="fill:#900000" transform="matrix(1.314 0 0 1.28 2.168 3.777)"/><text style="fill:#000;font-family:&quot;DejaVu Sans&quot;;font-size:9.62px" transform="matrix(1.314 0 0 1.28 1.853 12.435)"><tspan x="0" y="0">0</tspan></text><path d="M2.81.387c-.481 0-.844.242-1.09.718q-.375.72-.375 2.16c0 .961.125 1.68.375 2.17q.375.719 1.09.718c.5 0 .867-.238 1.11-.718q.375-.732.375-2.17c0-.957-.125-1.68-.375-2.16C3.678.629 3.311.387 2.81.387zm0-.75q1.184 0 1.8.937c.415.617.625 1.51.625 2.69q-.001 1.77-.625 2.7c-.406.625-1.01.937-1.8.937q-1.171 0-1.8-.937C.603 5.339.4 4.444.4 3.264s.203-2.07.61-2.69c.414-.625 1.02-.937 1.8-.937z" style="fill:none;stroke-width:.393;stroke:#000" transform="matrix(1.314 0 0 1.28 2.168 3.777)"/><text style="fill:#000;font-family:&quot;DejaVu Sans&quot;;font-size:9.62px" transform="matrix(1.314 0 0 1.28 9.894 12.435)"><tspan x="0" y="0">0</tspan></text><path d="M8.93.387c-.481 0-.844.242-1.09.718q-.375.72-.375 2.16c0 .961.125 1.68.375 2.17q.375.719 1.09.718c.5 0 .867-.238 1.11-.718q.375-.732.375-2.17c0-.957-.125-1.68-.375-2.16C9.798.629 9.431.387 8.93.387zm0-.75q1.184 0 1.8.937c.414.617.625 1.51.625 2.69q-.002 1.77-.625 2.7c-.407.625-1.01.937-1.8.937q-1.171 0-1.8-.937c-.406-.625-.61-1.52-.61-2.7s.204-2.07.61-2.69c.414-.625 1.02-.937 1.8-.937z" style="fill:none;stroke-width:.393;stroke:#000" transform="matrix(1.314 0 0 1.28 2.168 3.777)"/><text style="fill:#000;font-family:&quot;DejaVu Sans&quot;;font-size:9.62px" transform="matrix(1.314 0 0 1.28 17.936 12.435)"><tspan x="0" y="0">1</tspan></text><path d="M13.2 5.96h1.55V.62l-1.67.344V.089l1.67-.328h.938v6.2h1.56v.797h-4.05z" style="fill:none;stroke-width:.393;stroke:#000" transform="matrix(1.314 0 0 1.28 2.168 3.777)"/><text style="fill:#000;font-family:&quot;DejaVu Sans&quot;;font-size:9.62px" transform="matrix(1.314 0 0 1.28 25.952 12.435)"><tspan x="0" y="0">0</tspan></text><path d="M21.2.387c-.481 0-.844.242-1.09.718q-.375.72-.375 2.16c0 .961.125 1.68.375 2.17q.375.719 1.09.718c.5 0 .867-.238 1.11-.718q.375-.732.375-2.17c0-.957-.125-1.68-.375-2.16-.242-.476-.609-.718-1.11-.718zm0-.75q1.184 0 1.8.937c.414.617.625 1.51.625 2.69q-.002 1.77-.625 2.7c-.407.625-1.01.937-1.8.937q-1.17 0-1.8-.937c-.406-.625-.609-1.52-.609-2.7s.203-2.07.609-2.69c.414-.625 1.02-.937 1.8-.937z" style="fill:none;stroke-width:.393;stroke:#000" transform="matrix(1.314 0 0 1.28 2.168 3.777)"/><text style="fill:#000;font-family:&quot;DejaVu Sans&quot;;font-size:9.62px" transform="matrix(1.314 0 0 1.28 33.968 12.435)"><tspan x="0" y="0">1</tspan></text><path d="M25.4 5.96h1.55V.62l-1.67.344V.089l1.67-.328h.938v6.2h1.56v.797h-4.05z" style="fill:none;stroke-width:.393;stroke:#000" transform="matrix(1.314 0 0 1.28 2.168 3.777)"/><text style="fill:#000;font-family:&quot;DejaVu Sans&quot;;font-size:9.62px" transform="matrix(1.314 0 0 1.28 42.115 12.435)"><tspan x="0" y="0">1</tspan></text><path d="M31.6 5.96h1.55V.62l-1.67.344V.089l1.67-.328h.938v6.2h1.56v.797h-4.05z" style="fill:none;stroke-width:.393;stroke:#000" transform="matrix(1.314 0 0 1.28 2.168 3.777)"/><text style="fill:#000;font-family:&quot;DejaVu Sans&quot;;font-size:9.62px" transform="matrix(1.314 0 0 1.28 50.13 12.435)"><tspan x="0" y="0">1</tspan></text><path d="M37.7 5.96h1.55V.62l-1.67.344V.089l1.67-.328h.937v6.2h1.56v.797h-4.05z" style="fill:none;stroke-width:.393;stroke:#000" transform="matrix(1.314 0 0 1.28 2.168 3.777)"/><text style="fill:#000;font-family:&quot;DejaVu Sans&quot;;font-size:9.62px" transform="matrix(1.314 0 0 1.28 58.146 12.435)"><tspan x="0" y="0">1</tspan></text><path d="M43.8 5.96h1.55V.62l-1.67.344V.089l1.67-.328h.937v6.2h1.56v.797h-4.05z" style="fill:none;stroke-width:.393;stroke:#000" transform="matrix(1.314 0 0 1.28 2.168 3.777)"/><text style="fill:#000;font-family:&quot;DejaVu Sans&quot;;font-size:9.62px" transform="matrix(1.314 0 0 1.28 66.162 12.435)"><tspan x="0" y="0">0</tspan></text><path d="M51.8.387c-.48 0-.844.242-1.09.718q-.375.72-.375 2.16c0 .961.125 1.68.375 2.17q.376.719 1.09.718c.5 0 .867-.238 1.11-.718q.375-.732.375-2.17c0-.957-.125-1.68-.375-2.16-.243-.476-.61-.718-1.11-.718zm0-.75q1.184 0 1.8.937c.414.617.625 1.51.625 2.69s-.211 2.08-.625 2.7c-.406.625-1.01.937-1.8.937q-1.17 0-1.8-.937c-.406-.625-.609-1.52-.609-2.7s.203-2.07.609-2.69c.414-.625 1.02-.937 1.8-.937z" style="fill:none;stroke-width:.393;stroke:#000" transform="matrix(1.314 0 0 1.28 2.168 3.777)"/><text style="fill:#000;font-family:&quot;DejaVu Sans&quot;;font-size:9.62px" transform="matrix(1.314 0 0 1.28 74.309 12.435)"><tspan x="0" y="0">0</tspan></text><path d="M57.9.387c-.48 0-.844.242-1.09.718q-.375.72-.374 2.16c0 .961.124 1.68.374 2.17q.375.719 1.09.718c.5 0 .867-.238 1.11-.718q.375-.732.375-2.17c0-.957-.125-1.68-.375-2.16-.243-.476-.61-.718-1.11-.718zm0-.75q1.184 0 1.8.937c.414.617.625 1.51.625 2.69s-.211 2.08-.625 2.7c-.406.625-1.01.937-1.8.937q-1.17 0-1.8-.937c-.406-.625-.609-1.52-.609-2.7s.203-2.07.609-2.69c.414-.625 1.02-.937 1.8-.937z" style="fill:none;stroke-width:.393;stroke:#000" transform="matrix(1.314 0 0 1.28 2.168 3.777)"/><text style="fill:#000;font-family:&quot;DejaVu Sans&quot;;font-size:9.62px" transform="matrix(1.314 0 0 1.28 82.324 12.435)"><tspan x="0" y="0">0</tspan></text><path d="M64 .387c-.48 0-.843.242-1.09.718q-.375.72-.375 2.16c0 .961.125 1.68.375 2.17q.375.719 1.09.718.748.001 1.11-.718.375-.732.375-2.17c0-.957-.125-1.68-.375-2.16C64.868.629 64.5.387 64 .387zm0-.75q1.184 0 1.8.937c.414.617.625 1.51.625 2.69q-.002 1.77-.625 2.7c-.406.625-1.01.937-1.8.937q-1.17 0-1.8-.937c-.406-.625-.609-1.52-.609-2.7s.203-2.07.609-2.69c.415-.625 1.02-.937 1.8-.937z" style="fill:none;stroke-width:.393;stroke:#000" transform="matrix(1.314 0 0 1.28 2.168 3.777)"/><text style="fill:#000;font-family:&quot;DejaVu Sans&quot;;font-size:9.62px" transform="matrix(1.314 0 0 1.28 90.34 12.435)"><tspan x="0" y="0">0</tspan></text><path d="M70.2.387c-.48 0-.843.242-1.09.718q-.375.72-.375 2.16c0 .961.125 1.68.375 2.17q.375.719 1.09.718.749.001 1.11-.718.375-.732.375-2.17c0-.957-.125-1.68-.375-2.16-.242-.476-.61-.718-1.11-.718zm0-.75q1.185 0 1.8.937c.414.617.625 1.51.625 2.69q-.002 1.77-.625 2.7c-.406.625-1.01.937-1.8.937q-1.17 0-1.8-.937c-.407-.625-.61-1.52-.61-2.7s.203-2.07.61-2.69c.414-.625 1.02-.937 1.8-.937z" style="fill:none;stroke-width:.393;stroke:#000" transform="matrix(1.314 0 0 1.28 2.168 3.777)"/><text style="fill:#000;font-family:&quot;DejaVu Sans&quot;;font-size:9.62px" transform="matrix(1.314 0 0 1.28 98.356 12.435)"><tspan x="0" y="0">1</tspan></text><path d="M74.4 5.96h1.55V.62l-1.67.344V.089l1.67-.328h.937v6.2h1.56v.797h-4.05z" style="fill:none;stroke-width:.393;stroke:#000" transform="matrix(1.314 0 0 1.28 2.168 3.777)"/><text style="fill:#000;font-family:&quot;DejaVu Sans&quot;;font-size:9.62px" transform="matrix(1.314 0 0 1.28 106.503 12.435)"><tspan x="0" y="0">1</tspan></text><path d="M80.5 5.96h1.55V.62l-1.67.344V.089l1.67-.328h.938v6.2h1.56v.797h-4.05z" style="fill:none;stroke-width:.393;stroke:#000" transform="matrix(1.314 0 0 1.28 2.168 3.777)"/><text style="fill:#000;font-family:&quot;DejaVu Sans&quot;;font-size:9.62px" transform="matrix(1.314 0 0 1.28 114.518 12.435)"><tspan x="0" y="0">0</tspan></text><path d="M88.5.387c-.481 0-.844.242-1.09.718q-.375.72-.375 2.16c0 .961.125 1.68.375 2.17q.375.719 1.09.718c.5 0 .867-.238 1.11-.718q.375-.732.375-2.17c0-.957-.125-1.68-.375-2.16-.242-.476-.609-.718-1.11-.718zm0-.75q1.184 0 1.8.937c.415.617.626 1.51.626 2.69q-.002 1.77-.626 2.7c-.406.625-1.01.937-1.8.937q-1.171 0-1.8-.937c-.407-.625-.61-1.52-.61-2.7s.203-2.07.61-2.69c.414-.625 1.02-.937 1.8-.937z" style="fill:none;stroke-width:.393;stroke:#000" transform="matrix(1.314 0 0 1.28 2.168 3.777)"/><text style="fill:#000;font-family:&quot;DejaVu Sans&quot;;font-size:9.62px" transform="matrix(1.314 0 0 1.28 122.534 12.435)"><tspan x="0" y="0">0</tspan></text><path d="M94.6.387c-.481 0-.844.242-1.09.718q-.375.72-.375 2.16c0 .961.125 1.68.375 2.17q.375.719 1.09.718c.5 0 .867-.238 1.11-.718q.375-.732.375-2.17c0-.957-.125-1.68-.375-2.16-.242-.476-.609-.718-1.11-.718zm0-.75q1.184 0 1.8.937c.414.617.625 1.51.625 2.69q-.002 1.77-.625 2.7c-.407.625-1.01.937-1.8.937q-1.172 0-1.8-.937c-.406-.625-.61-1.52-.61-2.7s.204-2.07.61-2.69c.414-.625 1.02-.937 1.8-.937z" style="fill:none;stroke-width:.393;stroke:#000" transform="matrix(1.314 0 0 1.28 2.168 3.777)"/><text style="fill:#000;font-family:&quot;DejaVu Sans&quot;;font-size:9.62px" transform="matrix(1.314 0 0 1.28 1.853 26.703)"><tspan x="0" y="0">1</tspan></text><path d="M.949 17.1h1.55v-5.34l-1.67.344v-.875l1.67-.328h.938v6.2h1.56v.797H.947z" style="fill:none;stroke-width:.393;stroke:#000" transform="matrix(1.314 0 0 1.28 2.168 3.777)"/><text style="fill:#000;font-family:&quot;DejaVu Sans&quot;;font-size:9.62px" transform="matrix(1.314 0 0 1.28 9.894 26.703)"><tspan x="0" y="0">1</tspan></text><path d="M7.07 17.1h1.55v-5.34l-1.67.344v-.875l1.67-.328h.938v6.2h1.56v.797h-4.05z" style="fill:none;stroke-width:.393;stroke:#000" transform="matrix(1.314 0 0 1.28 2.168 3.777)"/><text style="fill:#000;font-family:&quot;DejaVu Sans&quot;;font-size:9.62px" transform="matrix(1.314 0 0 1.28 17.936 26.703)"><tspan x="0" y="0">0</tspan></text><path d="M15 11.5q-.721.002-1.09.719-.375.72-.375 2.16c0 .961.125 1.68.375 2.17q.375.72 1.09.719c.5 0 .867-.239 1.11-.719q.375-.731.375-2.17c0-.957-.125-1.68-.375-2.16-.242-.477-.609-.719-1.11-.719zm0-.75q1.184 0 1.8.938c.414.617.625 1.51.625 2.69q-.002 1.77-.625 2.7c-.407.625-1.01.938-1.8.938q-1.17 0-1.8-.938c-.406-.625-.609-1.52-.609-2.7s.203-2.07.609-2.69c.414-.625 1.02-.938 1.8-.938z" style="fill:none;stroke-width:.393;stroke:#000" transform="matrix(1.314 0 0 1.28 2.168 3.777)"/><text style="fill:#000;font-family:&quot;DejaVu Sans&quot;;font-size:9.62px" transform="matrix(1.314 0 0 1.28 25.952 26.703)"><tspan x="0" y="0">0</tspan></text><path d="M21.2 11.5q-.721.002-1.09.719-.375.72-.375 2.16c0 .961.125 1.68.375 2.17q.375.72 1.09.719c.5 0 .867-.239 1.11-.719q.375-.731.375-2.17c0-.957-.125-1.68-.375-2.16-.242-.477-.609-.719-1.11-.719zm0-.75q1.184 0 1.8.938c.414.617.625 1.51.625 2.69q-.002 1.77-.625 2.7c-.407.625-1.01.938-1.8.938q-1.17 0-1.8-.938c-.406-.625-.609-1.52-.609-2.7s.203-2.07.609-2.69c.414-.625 1.02-.938 1.8-.938z" style="fill:none;stroke-width:.393;stroke:#000" transform="matrix(1.314 0 0 1.28 2.168 3.777)"/><text style="fill:#000;font-family:&quot;DejaVu Sans&quot;;font-size:9.62px" transform="matrix(1.314 0 0 1.28 33.968 26.703)"><tspan x="0" y="0">0</tspan></text><path d="M27.3 11.5q-.721.002-1.09.719-.375.72-.375 2.16c0 .961.125 1.68.375 2.17q.375.72 1.09.719c.5 0 .867-.239 1.11-.719q.375-.731.375-2.17c0-.957-.125-1.68-.375-2.16-.242-.477-.609-.719-1.11-.719zm0-.75q1.184 0 1.8.938c.414.617.625 1.51.625 2.69s-.211 2.08-.625 2.7c-.406.625-1.01.938-1.8.938q-1.17 0-1.8-.938c-.406-.625-.609-1.52-.609-2.7s.203-2.07.609-2.69c.414-.625 1.02-.938 1.8-.938z" style="fill:none;stroke-width:.393;stroke:#000" transform="matrix(1.314 0 0 1.28 2.168 3.777)"/><text style="fill:#000;font-family:&quot;DejaVu Sans&quot;;font-size:9.62px" transform="matrix(1.314 0 0 1.28 42.115 26.703)"><tspan x="0" y="0">0</tspan></text><path d="M33.4 11.5q-.72.002-1.09.719-.375.72-.375 2.16c0 .961.125 1.68.375 2.17q.375.72 1.09.719c.5 0 .867-.239 1.11-.719q.375-.731.375-2.17c0-.957-.125-1.68-.375-2.16-.242-.477-.609-.719-1.11-.719zm0-.75q1.184 0 1.8.938c.414.617.625 1.51.625 2.69s-.211 2.08-.625 2.7c-.406.625-1.01.938-1.8.938q-1.17 0-1.8-.938c-.406-.625-.609-1.52-.609-2.7s.203-2.07.609-2.69c.414-.625 1.02-.938 1.8-.938z" style="fill:none;stroke-width:.393;stroke:#000" transform="matrix(1.314 0 0 1.28 2.168 3.777)"/><text style="fill:#000;font-family:&quot;DejaVu Sans&quot;;font-size:9.62px" transform="matrix(1.314 0 0 1.28 50.13 26.703)"><tspan x="0" y="0">1</tspan></text><path d="M37.7 17.1h1.55v-5.34l-1.67.344v-.875l1.67-.328h.937v6.2h1.56v.797h-4.05z" style="fill:none;stroke-width:.393;stroke:#000" transform="matrix(1.314 0 0 1.28 2.168 3.777)"/><text style="fill:#000;font-family:&quot;DejaVu Sans&quot;;font-size:9.62px" transform="matrix(1.314 0 0 1.28 58.146 26.703)"><tspan x="0" y="0">0</tspan></text><path d="M45.7 11.5q-.72.002-1.09.719-.375.72-.375 2.16c0 .961.125 1.68.375 2.17q.375.72 1.09.719c.5 0 .867-.239 1.11-.719q.375-.731.375-2.17c0-.957-.125-1.68-.375-2.16-.243-.477-.61-.719-1.11-.719zm0-.75q1.184 0 1.8.938c.414.617.625 1.51.625 2.69q-.002 1.77-.625 2.7c-.406.625-1.01.938-1.8.938q-1.17 0-1.8-.938c-.406-.625-.609-1.52-.609-2.7s.203-2.07.609-2.69c.414-.625 1.02-.938 1.8-.938z" style="fill:none;stroke-width:.393;stroke:#000" transform="matrix(1.314 0 0 1.28 2.168 3.777)"/><text style="fill:#000;font-family:&quot;DejaVu Sans&quot;;font-size:9.62px" transform="matrix(1.314 0 0 1.28 66.162 26.703)"><tspan x="0" y="0">1</tspan></text><path d="M49.9 17.1h1.55v-5.34l-1.67.344v-.875l1.67-.328h.937v6.2h1.56v.797h-4.05z" style="fill:none;stroke-width:.393;stroke:#000" transform="matrix(1.314 0 0 1.28 2.168 3.777)"/><text style="fill:#000;font-family:&quot;DejaVu Sans&quot;;font-size:9.62px" transform="matrix(1.314 0 0 1.28 74.309 26.703)"><tspan x="0" y="0">1</tspan></text><path d="M56 17.1h1.55v-5.34l-1.67.344v-.875l1.67-.328h.937v6.2h1.56v.797h-4.05z" style="fill:none;stroke-width:.393;stroke:#000" transform="matrix(1.314 0 0 1.28 2.168 3.777)"/><text style="fill:#000;font-family:&quot;DejaVu Sans&quot;;font-size:9.62px" transform="matrix(1.314 0 0 1.28 82.324 26.703)"><tspan x="0" y="0">1</tspan></text><path d="M62.2 17.1h1.55v-5.34l-1.67.344v-.875l1.67-.328h.937v6.2h1.56v.797h-4.05z" style="fill:none;stroke-width:.393;stroke:#000" transform="matrix(1.314 0 0 1.28 2.168 3.777)"/><text style="fill:#000;font-family:&quot;DejaVu Sans&quot;;font-size:9.62px" transform="matrix(1.314 0 0 1.28 90.34 26.703)"><tspan x="0" y="0">1</tspan></text><path d="M68.3 17.1h1.55v-5.34l-1.67.344v-.875l1.67-.328h.937v6.2h1.56v.797h-4.05z" style="fill:none;stroke-width:.393;stroke:#000" transform="matrix(1.314 0 0 1.28 2.168 3.777)"/><text style="fill:#000;font-family:&quot;DejaVu Sans&quot;;font-size:9.62px" transform="matrix(1.314 0 0 1.28 98.356 26.703)"><tspan x="0" y="0">0</tspan></text><path d="M76.3 11.5q-.72.002-1.09.719-.375.72-.375 2.16c0 .961.125 1.68.375 2.17q.375.72 1.09.719.748 0 1.11-.719.375-.731.375-2.17c0-.957-.125-1.68-.375-2.16q-.362-.717-1.11-.719zm0-.75q1.184 0 1.8.938c.414.617.625 1.51.625 2.69s-.211 2.08-.625 2.7c-.406.625-1.01.938-1.8.938q-1.17 0-1.8-.938c-.407-.625-.61-1.52-.61-2.7s.203-2.07.61-2.69c.414-.625 1.02-.938 1.8-.938z" style="fill:none;stroke-width:.393;stroke:#000" transform="matrix(1.314 0 0 1.28 2.168 3.777)"/><text style="fill:#000;font-family:&quot;DejaVu Sans&quot;;font-size:9.62px" transform="matrix(1.314 0 0 1.28 106.503 26.703)"><tspan x="0" y="0">1</tspan></text><path d="M80.5 17.1h1.55v-5.34l-1.67.344v-.875l1.67-.328h.938v6.2h1.56v.797h-4.05z" style="fill:none;stroke-width:.393;stroke:#000" transform="matrix(1.314 0 0 1.28 2.168 3.777)"/><text style="fill:#000;font-family:&quot;DejaVu Sans&quot;;font-size:9.62px" transform="matrix(1.314 0 0 1.28 114.518 26.703)"><tspan x="0" y="0">1</tspan></text><path d="M86.7 17.1h1.55v-5.34l-1.67.344v-.875l1.67-.328h.938v6.2h1.56v.797h-4.05z" style="fill:none;stroke-width:.393;stroke:#000" transform="matrix(1.314 0 0 1.28 2.168 3.777)"/><text style="fill:#000;font-family:&quot;DejaVu Sans&quot;;font-size:9.62px" transform="matrix(1.314 0 0 1.28 122.534 26.703)"><tspan x="0" y="0">0</tspan></text><path d="M94.6 11.5q-.721.002-1.09.719-.375.72-.375 2.16c0 .961.125 1.68.375 2.17q.375.72 1.09.719c.5 0 .867-.239 1.11-.719q.375-.731.375-2.17c0-.957-.125-1.68-.375-2.16-.242-.477-.609-.719-1.11-.719zm0-.75q1.184 0 1.8.938c.414.617.625 1.51.625 2.69q-.002 1.77-.625 2.7c-.407.625-1.01.938-1.8.938q-1.172 0-1.8-.938c-.406-.625-.61-1.52-.61-2.7s.204-2.07.61-2.69c.414-.625 1.02-.938 1.8-.938z" style="fill:none;stroke-width:.393;stroke:#000" transform="matrix(1.314 0 0 1.28 2.168 3.777)"/><text style="fill:#000;font-family:&quot;DejaVu Sans&quot;;font-size:9.62px" transform="matrix(1.314 0 0 1.28 1.853 41.048)"><tspan x="0" y="0">0</tspan></text><path d="M2.81 22.7c-.481 0-.844.243-1.09.719q-.375.72-.375 2.16c0 .961.125 1.68.375 2.17q.375.72 1.09.719c.5 0 .867-.238 1.11-.719q.375-.731.375-2.17c0-.957-.125-1.68-.375-2.16-.242-.476-.609-.719-1.11-.719zm0-.75q1.184 0 1.8.938c.415.617.625 1.51.625 2.69q-.001 1.77-.625 2.7c-.406.625-1.01.937-1.8.937q-1.171 0-1.8-.937c-.407-.625-.61-1.52-.61-2.7s.203-2.07.61-2.69c.414-.625 1.02-.938 1.8-.938z" style="fill:none;stroke-width:.393;stroke:#000" transform="matrix(1.314 0 0 1.28 2.168 3.777)"/><text style="fill:#000;font-family:&quot;DejaVu Sans&quot;;font-size:9.62px" transform="matrix(1.314 0 0 1.28 9.894 41.048)"><tspan x="0" y="0">1</tspan></text><path d="M7.07 28.3h1.55v-5.34l-1.67.344v-.875l1.67-.329h.938v6.2h1.56v.796h-4.05z" style="fill:none;stroke-width:.393;stroke:#000" transform="matrix(1.314 0 0 1.28 2.168 3.777)"/><text style="fill:#000;font-family:&quot;DejaVu Sans&quot;;font-size:9.62px" transform="matrix(1.314 0 0 1.28 17.936 41.048)"><tspan x="0" y="0">1</tspan></text><path d="M13.2 28.3h1.55v-5.34l-1.67.344v-.875l1.67-.329h.938v6.2h1.56v.796h-4.05z" style="fill:none;stroke-width:.393;stroke:#000" transform="matrix(1.314 0 0 1.28 2.168 3.777)"/><text style="fill:#000;font-family:&quot;DejaVu Sans&quot;;font-size:9.62px" transform="matrix(1.314 0 0 1.28 25.952 41.048)"><tspan x="0" y="0">0</tspan></text><path d="M21.2 22.7c-.481 0-.844.243-1.09.719q-.375.72-.375 2.16c0 .961.125 1.68.375 2.17q.375.72 1.09.719c.5 0 .867-.238 1.11-.719q.375-.731.375-2.17c0-.957-.125-1.68-.375-2.16-.242-.476-.609-.719-1.11-.719zm0-.75q1.184 0 1.8.938c.414.617.625 1.51.625 2.69q-.002 1.77-.625 2.7c-.407.625-1.01.937-1.8.937q-1.17 0-1.8-.937c-.406-.625-.609-1.52-.609-2.7s.203-2.07.609-2.69c.414-.625 1.02-.938 1.8-.938z" style="fill:none;stroke-width:.393;stroke:#000" transform="matrix(1.314 0 0 1.28 2.168 3.777)"/><text style="fill:#000;font-family:&quot;DejaVu Sans&quot;;font-size:9.62px" transform="matrix(1.314 0 0 1.28 33.968 41.048)"><tspan x="0" y="0">0</tspan></text><path d="M27.3 22.7c-.481 0-.844.243-1.09.719q-.375.72-.375 2.16c0 .961.125 1.68.375 2.17q.375.72 1.09.719c.5 0 .867-.238 1.11-.719q.375-.731.375-2.17c0-.957-.125-1.68-.375-2.16-.242-.476-.609-.719-1.11-.719zm0-.75q1.184 0 1.8.938c.414.617.625 1.51.625 2.69s-.211 2.08-.625 2.7c-.406.625-1.01.937-1.8.937q-1.17 0-1.8-.937c-.406-.625-.609-1.52-.609-2.7s.203-2.07.609-2.69c.414-.625 1.02-.938 1.8-.938z" style="fill:none;stroke-width:.393;stroke:#000" transform="matrix(1.314 0 0 1.28 2.168 3.777)"/><text style="fill:#000;font-family:&quot;DejaVu Sans&quot;;font-size:9.62px" transform="matrix(1.314 0 0 1.28 42.115 41.048)"><tspan x="0" y="0">0</tspan></text><path d="M33.4 22.7c-.48 0-.844.243-1.09.719q-.375.72-.375 2.16c0 .961.125 1.68.375 2.17q.375.72 1.09.719c.5 0 .867-.238 1.11-.719q.375-.731.375-2.17c0-.957-.125-1.68-.375-2.16-.242-.476-.609-.719-1.11-.719zm0-.75q1.184 0 1.8.938c.414.617.625 1.51.625 2.69s-.211 2.08-.625 2.7c-.406.625-1.01.937-1.8.937q-1.17 0-1.8-.937c-.406-.625-.609-1.52-.609-2.7s.203-2.07.609-2.69c.414-.625 1.02-.938 1.8-.938z" style="fill:none;stroke-width:.393;stroke:#000" transform="matrix(1.314 0 0 1.28 2.168 3.777)"/><text style="fill:#000;font-family:&quot;DejaVu Sans&quot;;font-size:9.62px" transform="matrix(1.314 0 0 1.28 50.13 41.048)"><tspan x="0" y="0">1</tspan></text><path d="M37.7 28.3h1.55v-5.34l-1.67.344v-.875l1.67-.329h.937v6.2h1.56v.796h-4.05z" style="fill:none;stroke-width:.393;stroke:#000" transform="matrix(1.314 0 0 1.28 2.168 3.777)"/><text style="fill:#000;font-family:&quot;DejaVu Sans&quot;;font-size:9.62px" transform="matrix(1.314 0 0 1.28 58.146 41.048)"><tspan x="0" y="0">0</tspan></text><path d="M45.7 22.7c-.48 0-.844.243-1.09.719q-.375.72-.375 2.16c0 .961.125 1.68.375 2.17q.375.72 1.09.719c.5 0 .867-.238 1.11-.719q.375-.731.375-2.17c0-.957-.125-1.68-.375-2.16-.243-.476-.61-.719-1.11-.719zm0-.75q1.184 0 1.8.938c.414.617.625 1.51.625 2.69q-.002 1.77-.625 2.7c-.406.625-1.01.937-1.8.937q-1.17 0-1.8-.937c-.406-.625-.609-1.52-.609-2.7s.203-2.07.609-2.69c.414-.625 1.02-.938 1.8-.938z" style="fill:none;stroke-width:.393;stroke:#000" transform="matrix(1.314 0 0 1.28 2.168 3.777)"/><text style="fill:#000;font-family:&quot;DejaVu Sans&quot;;font-size:9.62px" transform="matrix(1.314 0 0 1.28 66.162 41.048)"><tspan x="0" y="0">1</tspan></text><path d="M49.9 28.3h1.55v-5.34l-1.67.344v-.875l1.67-.329h.937v6.2h1.56v.796h-4.05z" style="fill:none;stroke-width:.393;stroke:#000" transform="matrix(1.314 0 0 1.28 2.168 3.777)"/><text style="fill:#000;font-family:&quot;DejaVu Sans&quot;;font-size:9.62px" transform="matrix(1.314 0 0 1.28 74.309 41.048)"><tspan x="0" y="0">0</tspan></text><path d="M57.9 22.7c-.48 0-.844.243-1.09.719q-.375.72-.374 2.16c0 .961.124 1.68.374 2.17q.375.72 1.09.719c.5 0 .867-.238 1.11-.719q.375-.731.375-2.17c0-.957-.125-1.68-.375-2.16-.243-.476-.61-.719-1.11-.719zm0-.75q1.184 0 1.8.938c.414.617.625 1.51.625 2.69s-.211 2.08-.625 2.7c-.406.625-1.01.937-1.8.937q-1.17 0-1.8-.937c-.406-.625-.609-1.52-.609-2.7s.203-2.07.609-2.69c.414-.625 1.02-.938 1.8-.938z" style="fill:none;stroke-width:.393;stroke:#000" transform="matrix(1.314 0 0 1.28 2.168 3.777)"/><text style="fill:#000;font-family:&quot;DejaVu Sans&quot;;font-size:9.62px" transform="matrix(1.314 0 0 1.28 82.324 41.048)"><tspan x="0" y="0">1</tspan></text><path d="M62.2 28.3h1.55v-5.34l-1.67.344v-.875l1.67-.329h.937v6.2h1.56v.796h-4.05z" style="fill:none;stroke-width:.393;stroke:#000" transform="matrix(1.314 0 0 1.28 2.168 3.777)"/><text style="fill:#000;font-family:&quot;DejaVu Sans&quot;;font-size:9.62px" transform="matrix(1.314 0 0 1.28 90.34 41.048)"><tspan x="0" y="0">0</tspan></text><path d="M70.2 22.7c-.48 0-.843.243-1.09.719q-.375.72-.375 2.16c0 .961.125 1.68.375 2.17q.375.72 1.09.719.749.001 1.11-.719.375-.731.375-2.17c0-.957-.125-1.68-.375-2.16-.242-.476-.61-.719-1.11-.719zm0-.75q1.185 0 1.8.938c.414.617.625 1.51.625 2.69q-.002 1.77-.625 2.7c-.406.625-1.01.937-1.8.937q-1.17 0-1.8-.937c-.407-.625-.61-1.52-.61-2.7s.203-2.07.61-2.69c.414-.625 1.02-.938 1.8-.938z" style="fill:none;stroke-width:.393;stroke:#000" transform="matrix(1.314 0 0 1.28 2.168 3.777)"/><text style="fill:#000;font-family:&quot;DejaVu Sans&quot;;font-size:9.62px" transform="matrix(1.314 0 0 1.28 98.356 41.048)"><tspan x="0" y="0">0</tspan></text><path d="M76.3 22.7c-.48 0-.843.243-1.09.719q-.375.72-.375 2.16c0 .961.125 1.68.375 2.17q.375.72 1.09.719.748.001 1.11-.719.375-.731.375-2.17c0-.957-.125-1.68-.375-2.16-.242-.476-.61-.719-1.11-.719zm0-.75q1.184 0 1.8.938c.414.617.625 1.51.625 2.69s-.211 2.08-.625 2.7c-.406.625-1.01.937-1.8.937q-1.17 0-1.8-.937c-.407-.625-.61-1.52-.61-2.7s.203-2.07.61-2.69c.414-.625 1.02-.938 1.8-.938z" style="fill:none;stroke-width:.393;stroke:#000" transform="matrix(1.314 0 0 1.28 2.168 3.777)"/><text style="fill:#000;font-family:&quot;DejaVu Sans&quot;;font-size:9.62px" transform="matrix(1.314 0 0 1.28 106.503 41.048)"><tspan x="0" y="0">1</tspan></text><path d="M80.5 28.3h1.55v-5.34l-1.67.344v-.875l1.67-.329h.938v6.2h1.56v.796h-4.05z" style="fill:none;stroke-width:.393;stroke:#000" transform="matrix(1.314 0 0 1.28 2.168 3.777)"/><text style="fill:#000;font-family:&quot;DejaVu Sans&quot;;font-size:9.62px" transform="matrix(1.314 0 0 1.28 114.518 41.048)"><tspan x="0" y="0">0</tspan></text><path d="M88.5 22.7c-.481 0-.844.243-1.09.719q-.375.72-.375 2.16c0 .961.125 1.68.375 2.17q.375.72 1.09.719c.5 0 .867-.238 1.11-.719q.375-.731.375-2.17c0-.957-.125-1.68-.375-2.16-.242-.476-.609-.719-1.11-.719zm0-.75q1.184 0 1.8.938c.415.617.626 1.51.626 2.69q-.002 1.77-.626 2.7c-.406.625-1.01.937-1.8.937q-1.171 0-1.8-.937c-.407-.625-.61-1.52-.61-2.7s.203-2.07.61-2.69c.414-.625 1.02-.938 1.8-.938z" style="fill:none;stroke-width:.393;stroke:#000" transform="matrix(1.314 0 0 1.28 2.168 3.777)"/><text style="fill:#000;font-family:&quot;DejaVu Sans&quot;;font-size:9.62px" transform="matrix(1.314 0 0 1.28 122.534 41.048)"><tspan x="0" y="0">0</tspan></text><path d="M94.6 22.7c-.481 0-.844.243-1.09.719q-.375.72-.375 2.16c0 .961.125 1.68.375 2.17q.375.72 1.09.719c.5 0 .867-.238 1.11-.719q.375-.731.375-2.17c0-.957-.125-1.68-.375-2.16-.242-.476-.609-.719-1.11-.719zm0-.75q1.184 0 1.8.938c.414.617.625 1.51.625 2.69q-.002 1.77-.625 2.7c-.407.625-1.01.937-1.8.937q-1.172 0-1.8-.937c-.406-.625-.61-1.52-.61-2.7s.204-2.07.61-2.69c.414-.625 1.02-.938 1.8-.938z" style="fill:none;stroke-width:.393;stroke:#000" transform="matrix(1.314 0 0 1.28 2.168 3.777)"/><text style="fill:#000;font-family:&quot;DejaVu Sans&quot;;font-size:9.62px" transform="matrix(1.314 0 0 1.28 1.853 55.265)"><tspan x="0" y="0">1</tspan></text><path d="M.949 39.4h1.55v-5.34l-1.67.344v-.875l1.67-.328h.938v6.2h1.56v.797H.947z" style="fill:none;stroke-width:.393;stroke:#000" transform="matrix(1.314 0 0 1.28 2.168 3.777)"/><text style="fill:#000;font-family:&quot;DejaVu Sans&quot;;font-size:9.62px" transform="matrix(1.314 0 0 1.28 9.894 55.265)"><tspan x="0" y="0">1</tspan></text><path d="M7.07 39.4h1.55v-5.34l-1.67.344v-.875l1.67-.328h.938v6.2h1.56v.797h-4.05z" style="fill:none;stroke-width:.393;stroke:#000" transform="matrix(1.314 0 0 1.28 2.168 3.777)"/><text style="fill:#000;font-family:&quot;DejaVu Sans&quot;;font-size:9.62px" transform="matrix(1.314 0 0 1.28 17.936 55.265)"><tspan x="0" y="0">1</tspan></text><path d="M13.2 39.4h1.55v-5.34l-1.67.344v-.875l1.67-.328h.938v6.2h1.56v.797h-4.05z" style="fill:none;stroke-width:.393;stroke:#000" transform="matrix(1.314 0 0 1.28 2.168 3.777)"/><text style="fill:#000;font-family:&quot;DejaVu Sans&quot;;font-size:9.62px" transform="matrix(1.314 0 0 1.28 25.952 55.265)"><tspan x="0" y="0">0</tspan></text><path d="M21.2 33.8q-.721.002-1.09.718-.375.72-.375 2.16c0 .961.125 1.68.375 2.17q.375.719 1.09.718c.5 0 .867-.238 1.11-.718q.375-.732.375-2.17c0-.957-.125-1.68-.375-2.16-.242-.476-.609-.718-1.11-.718zm0-.75q1.184 0 1.8.937c.414.617.625 1.51.625 2.69q-.002 1.77-.625 2.7c-.407.625-1.01.937-1.8.937q-1.17 0-1.8-.937c-.406-.625-.609-1.52-.609-2.7s.203-2.07.609-2.69c.414-.625 1.02-.937 1.8-.937z" style="fill:none;stroke-width:.393;stroke:#000" transform="matrix(1.314 0 0 1.28 2.168 3.777)"/><text style="fill:#000;font-family:&quot;DejaVu Sans&quot;;font-size:9.62px" transform="matrix(1.314 0 0 1.28 33.968 55.265)"><tspan x="0" y="0">0</tspan></text><path d="M27.3 33.8q-.721.002-1.09.718-.375.72-.375 2.16c0 .961.125 1.68.375 2.17q.375.719 1.09.718c.5 0 .867-.238 1.11-.718q.375-.732.375-2.17c0-.957-.125-1.68-.375-2.16-.242-.476-.609-.718-1.11-.718zm0-.75q1.184 0 1.8.937c.414.617.625 1.51.625 2.69s-.211 2.08-.625 2.7c-.406.625-1.01.937-1.8.937q-1.17 0-1.8-.937c-.406-.625-.609-1.52-.609-2.7s.203-2.07.609-2.69c.414-.625 1.02-.937 1.8-.937z" style="fill:none;stroke-width:.393;stroke:#000" transform="matrix(1.314 0 0 1.28 2.168 3.777)"/><text style="fill:#000;font-family:&quot;DejaVu Sans&quot;;font-size:9.62px" transform="matrix(1.314 0 0 1.28 42.115 55.265)"><tspan x="0" y="0">0</tspan></text><path d="M33.4 33.8q-.72.002-1.09.718-.375.72-.375 2.16c0 .961.125 1.68.375 2.17q.375.719 1.09.718c.5 0 .867-.238 1.11-.718q.375-.732.375-2.17c0-.957-.125-1.68-.375-2.16-.242-.476-.609-.718-1.11-.718zm0-.75q1.184 0 1.8.937c.414.617.625 1.51.625 2.69s-.211 2.08-.625 2.7c-.406.625-1.01.937-1.8.937q-1.17 0-1.8-.937c-.406-.625-.609-1.52-.609-2.7s.203-2.07.609-2.69c.414-.625 1.02-.937 1.8-.937z" style="fill:none;stroke-width:.393;stroke:#000" transform="matrix(1.314 0 0 1.28 2.168 3.777)"/><text style="fill:#000;font-family:&quot;DejaVu Sans&quot;;font-size:9.62px" transform="matrix(1.314 0 0 1.28 50.13 55.265)"><tspan x="0" y="0">0</tspan></text><path d="M39.5 33.8q-.72.002-1.09.718-.375.72-.375 2.16c0 .961.125 1.68.375 2.17q.375.719 1.09.718c.5 0 .867-.238 1.11-.718q.375-.732.375-2.17c0-.957-.125-1.68-.375-2.16-.242-.476-.609-.718-1.11-.718zm0-.75q1.184 0 1.8.937c.414.617.625 1.51.625 2.69q-.002 1.77-.625 2.7c-.406.625-1.01.937-1.8.937q-1.17 0-1.8-.937c-.406-.625-.609-1.52-.609-2.7s.203-2.07.609-2.69c.414-.625 1.02-.937 1.8-.937z" style="fill:none;stroke-width:.393;stroke:#000" transform="matrix(1.314 0 0 1.28 2.168 3.777)"/><text style="fill:#000;font-family:&quot;DejaVu Sans&quot;;font-size:9.62px" transform="matrix(1.314 0 0 1.28 58.146 55.265)"><tspan x="0" y="0">1</tspan></text><path d="M43.8 39.4h1.55v-5.34l-1.67.344v-.875l1.67-.328h.937v6.2h1.56v.797h-4.05z" style="fill:none;stroke-width:.393;stroke:#000" transform="matrix(1.314 0 0 1.28 2.168 3.777)"/><text style="fill:#000;font-family:&quot;DejaVu Sans&quot;;font-size:9.62px" transform="matrix(1.314 0 0 1.28 66.162 55.265)"><tspan x="0" y="0">1</tspan></text><path d="M49.9 39.4h1.55v-5.34l-1.67.344v-.875l1.67-.328h.937v6.2h1.56v.797h-4.05z" style="fill:none;stroke-width:.393;stroke:#000" transform="matrix(1.314 0 0 1.28 2.168 3.777)"/><text style="fill:#000;font-family:&quot;DejaVu Sans&quot;;font-size:9.62px" transform="matrix(1.314 0 0 1.28 74.309 55.265)"><tspan x="0" y="0">1</tspan></text><path d="M56 39.4h1.55v-5.34l-1.67.344v-.875l1.67-.328h.937v6.2h1.56v.797h-4.05z" style="fill:none;stroke-width:.393;stroke:#000" transform="matrix(1.314 0 0 1.28 2.168 3.777)"/><text style="fill:#000;font-family:&quot;DejaVu Sans&quot;;font-size:9.62px" transform="matrix(1.314 0 0 1.28 82.324 55.265)"><tspan x="0" y="0">0</tspan></text><path d="M64 33.8q-.72.002-1.09.718-.375.72-.375 2.16c0 .961.125 1.68.375 2.17q.375.719 1.09.718.748.001 1.11-.718.375-.732.375-2.17c0-.957-.125-1.68-.375-2.16-.242-.476-.61-.718-1.11-.718zm0-.75q1.184 0 1.8.937c.414.617.625 1.51.625 2.69q-.002 1.77-.625 2.7c-.406.625-1.01.937-1.8.937q-1.17 0-1.8-.937c-.406-.625-.609-1.52-.609-2.7s.203-2.07.609-2.69c.415-.625 1.02-.937 1.8-.937z" style="fill:none;stroke-width:.393;stroke:#000" transform="matrix(1.314 0 0 1.28 2.168 3.777)"/><text style="fill:#000;font-family:&quot;DejaVu Sans&quot;;font-size:9.62px" transform="matrix(1.314 0 0 1.28 90.34 55.265)"><tspan x="0" y="0">1</tspan></text><path d="M68.3 39.4h1.55v-5.34l-1.67.344v-.875l1.67-.328h.937v6.2h1.56v.797h-4.05z" style="fill:none;stroke-width:.393;stroke:#000" transform="matrix(1.314 0 0 1.28 2.168 3.777)"/><text style="fill:#000;font-family:&quot;DejaVu Sans&quot;;font-size:9.62px" transform="matrix(1.314 0 0 1.28 98.356 55.265)"><tspan x="0" y="0">1</tspan></text><path d="M74.4 39.4h1.55v-5.34l-1.67.344v-.875l1.67-.328h.937v6.2h1.56v.797h-4.05z" style="fill:none;stroke-width:.393;stroke:#000" transform="matrix(1.314 0 0 1.28 2.168 3.777)"/><text style="fill:#000;font-family:&quot;DejaVu Sans&quot;;font-size:9.62px" transform="matrix(1.314 0 0 1.28 106.503 55.265)"><tspan x="0" y="0">0</tspan></text><path d="M82.4 33.8q-.721.002-1.09.718-.375.72-.375 2.16c0 .961.125 1.68.375 2.17q.375.719 1.09.718c.5 0 .867-.238 1.11-.718q.375-.732.375-2.17c0-.957-.125-1.68-.375-2.16-.242-.476-.609-.718-1.11-.718zm0-.75q1.184 0 1.8.937c.414.617.625 1.51.625 2.69s-.211 2.08-.625 2.7c-.406.625-1.01.937-1.8.937q-1.171 0-1.8-.937c-.407-.625-.61-1.52-.61-2.7s.203-2.07.61-2.69c.414-.625 1.02-.937 1.8-.937z" style="fill:none;stroke-width:.393;stroke:#000" transform="matrix(1.314 0 0 1.28 2.168 3.777)"/><text style="fill:#000;font-family:&quot;DejaVu Sans&quot;;font-size:9.62px" transform="matrix(1.314 0 0 1.28 114.518 55.265)"><tspan x="0" y="0">1</tspan></text><path d="M86.7 39.4h1.55v-5.34l-1.67.344v-.875l1.67-.328h.938v6.2h1.56v.797h-4.05z" style="fill:none;stroke-width:.393;stroke:#000" transform="matrix(1.314 0 0 1.28 2.168 3.777)"/><text style="fill:#000;font-family:&quot;DejaVu Sans&quot;;font-size:9.62px" transform="matrix(1.314 0 0 1.28 122.534 55.265)"><tspan x="0" y="0">1</tspan></text><path d="M92.8 39.4h1.55v-5.34l-1.67.344v-.875l1.67-.328h.938v6.2h1.56v.797h-4.05z" style="fill:none;stroke-width:.393;stroke:#000" transform="matrix(1.314 0 0 1.28 2.168 3.777)"/><text style="fill:#000;font-family:&quot;DejaVu Sans&quot;;font-size:9.62px" transform="matrix(1.314 0 0 1.28 1.853 69.61)"><tspan x="0" y="0">1</tspan></text><path d="M.949 50.6h1.55v-5.34l-1.67.344v-.875l1.67-.328h.938v6.2h1.56v.797H.947z" style="fill:none;stroke-width:.393;stroke:#000" transform="matrix(1.314 0 0 1.28 2.168 3.777)"/><text style="fill:#000;font-family:&quot;DejaVu Sans&quot;;font-size:9.62px" transform="matrix(1.314 0 0 1.28 9.894 69.61)"><tspan x="0" y="0">1</tspan></text><path d="M7.07 50.6h1.55v-5.34l-1.67.344v-.875l1.67-.328h.938v6.2h1.56v.797h-4.05z" style="fill:none;stroke-width:.393;stroke:#000" transform="matrix(1.314 0 0 1.28 2.168 3.777)"/><text style="fill:#000;font-family:&quot;DejaVu Sans&quot;;font-size:9.62px" transform="matrix(1.314 0 0 1.28 17.936 69.61)"><tspan x="0" y="0">0</tspan></text><path d="M15 45q-.721.002-1.09.719-.375.72-.375 2.16c0 .961.125 1.68.375 2.17q.375.72 1.09.719c.5 0 .867-.239 1.11-.719q.375-.731.375-2.17c0-.957-.125-1.68-.375-2.16-.242-.477-.609-.719-1.11-.719zm0-.75q1.184 0 1.8.938c.414.617.625 1.51.625 2.69q-.002 1.77-.625 2.7c-.407.625-1.01.938-1.8.938q-1.17 0-1.8-.938c-.406-.625-.609-1.52-.609-2.7s.203-2.07.609-2.69c.414-.626 1.02-.938 1.8-.938z" style="fill:none;stroke-width:.393;stroke:#000" transform="matrix(1.314 0 0 1.28 2.168 3.777)"/><text style="fill:#000;font-family:&quot;DejaVu Sans&quot;;font-size:9.62px" transform="matrix(1.314 0 0 1.28 25.952 69.61)"><tspan x="0" y="0">0</tspan></text><path d="M21.2 45q-.721.002-1.09.719-.375.72-.375 2.16c0 .961.125 1.68.375 2.17q.375.72 1.09.719c.5 0 .867-.239 1.11-.719q.375-.731.375-2.17c0-.957-.125-1.68-.375-2.16-.242-.477-.609-.719-1.11-.719zm0-.75q1.184 0 1.8.938c.414.617.625 1.51.625 2.69q-.002 1.77-.625 2.7c-.407.625-1.01.938-1.8.938q-1.17 0-1.8-.938c-.406-.625-.609-1.52-.609-2.7s.203-2.07.609-2.69c.414-.626 1.02-.938 1.8-.938z" style="fill:none;stroke-width:.393;stroke:#000" transform="matrix(1.314 0 0 1.28 2.168 3.777)"/><text style="fill:#000;font-family:&quot;DejaVu Sans&quot;;font-size:9.62px" transform="matrix(1.314 0 0 1.28 33.968 69.61)"><tspan x="0" y="0">0</tspan></text><path d="M27.3 45q-.721.002-1.09.719-.375.72-.375 2.16c0 .961.125 1.68.375 2.17q.375.72 1.09.719c.5 0 .867-.239 1.11-.719q.375-.731.375-2.17c0-.957-.125-1.68-.375-2.16-.242-.477-.609-.719-1.11-.719zm0-.75q1.184 0 1.8.938c.414.617.625 1.51.625 2.69s-.211 2.08-.625 2.7c-.406.625-1.01.938-1.8.938q-1.17 0-1.8-.938c-.406-.625-.609-1.52-.609-2.7s.203-2.07.609-2.69c.414-.626 1.02-.938 1.8-.938z" style="fill:none;stroke-width:.393;stroke:#000" transform="matrix(1.314 0 0 1.28 2.168 3.777)"/><text style="fill:#000;font-family:&quot;DejaVu Sans&quot;;font-size:9.62px" transform="matrix(1.314 0 0 1.28 42.115 69.61)"><tspan x="0" y="0">0</tspan></text><path d="M33.4 45q-.72.002-1.09.719-.375.72-.375 2.16c0 .961.125 1.68.375 2.17q.375.72 1.09.719c.5 0 .867-.239 1.11-.719q.375-.731.375-2.17c0-.957-.125-1.68-.375-2.16-.242-.477-.609-.719-1.11-.719zm0-.75q1.184 0 1.8.938c.414.617.625 1.51.625 2.69s-.211 2.08-.625 2.7c-.406.625-1.01.938-1.8.938q-1.17 0-1.8-.938c-.406-.625-.609-1.52-.609-2.7s.203-2.07.609-2.69c.414-.626 1.02-.938 1.8-.938z" style="fill:none;stroke-width:.393;stroke:#000" transform="matrix(1.314 0 0 1.28 2.168 3.777)"/><text style="fill:#000;font-family:&quot;DejaVu Sans&quot;;font-size:9.62px" transform="matrix(1.314 0 0 1.28 50.13 69.61)"><tspan x="0" y="0">1</tspan></text><path d="M37.7 50.6h1.55v-5.34l-1.67.344v-.875l1.67-.328h.937v6.2h1.56v.797h-4.05z" style="fill:none;stroke-width:.393;stroke:#000" transform="matrix(1.314 0 0 1.28 2.168 3.777)"/><text style="fill:#000;font-family:&quot;DejaVu Sans&quot;;font-size:9.62px" transform="matrix(1.314 0 0 1.28 58.146 69.61)"><tspan x="0" y="0">0</tspan></text><path d="M45.7 45q-.72.002-1.09.719-.375.72-.375 2.16c0 .961.125 1.68.375 2.17q.375.72 1.09.719c.5 0 .867-.239 1.11-.719q.375-.731.375-2.17c0-.957-.125-1.68-.375-2.16-.243-.477-.61-.719-1.11-.719zm0-.75q1.184 0 1.8.938c.414.617.625 1.51.625 2.69q-.002 1.77-.625 2.7c-.406.625-1.01.938-1.8.938q-1.17 0-1.8-.938c-.406-.625-.609-1.52-.609-2.7s.203-2.07.609-2.69c.414-.626 1.02-.938 1.8-.938z" style="fill:none;stroke-width:.393;stroke:#000" transform="matrix(1.314 0 0 1.28 2.168 3.777)"/><text style="fill:#000;font-family:&quot;DejaVu Sans&quot;;font-size:9.62px" transform="matrix(1.314 0 0 1.28 66.162 69.61)"><tspan x="0" y="0">0</tspan></text><path d="M51.8 45q-.72.002-1.09.719-.375.72-.375 2.16c0 .961.125 1.68.375 2.17q.376.72 1.09.719c.5 0 .867-.239 1.11-.719q.375-.731.375-2.17c0-.957-.125-1.68-.375-2.16-.243-.477-.61-.719-1.11-.719zm0-.75q1.184 0 1.8.938c.414.617.625 1.51.625 2.69s-.211 2.08-.625 2.7c-.406.625-1.01.938-1.8.938q-1.17 0-1.8-.938c-.406-.625-.609-1.52-.609-2.7s.203-2.07.609-2.69c.414-.626 1.02-.938 1.8-.938z" style="fill:none;stroke-width:.393;stroke:#000" transform="matrix(1.314 0 0 1.28 2.168 3.777)"/><text style="fill:#000;font-family:&quot;DejaVu Sans&quot;;font-size:9.62px" transform="matrix(1.314 0 0 1.28 74.309 69.61)"><tspan x="0" y="0">0</tspan></text><path d="M57.9 45q-.72.002-1.09.719-.375.72-.374 2.16c0 .961.124 1.68.374 2.17q.375.72 1.09.719c.5 0 .867-.239 1.11-.719q.375-.731.375-2.17c0-.957-.125-1.68-.375-2.16-.243-.477-.61-.719-1.11-.719zm0-.75q1.184 0 1.8.938c.414.617.625 1.51.625 2.69s-.211 2.08-.625 2.7c-.406.625-1.01.938-1.8.938q-1.17 0-1.8-.938c-.406-.625-.609-1.52-.609-2.7s.203-2.07.609-2.69c.414-.626 1.02-.938 1.8-.938z" style="fill:none;stroke-width:.393;stroke:#000" transform="matrix(1.314 0 0 1.28 2.168 3.777)"/><text style="fill:#000;font-family:&quot;DejaVu Sans&quot;;font-size:9.62px" transform="matrix(1.314 0 0 1.28 82.324 69.61)"><tspan x="0" y="0">1</tspan></text><path d="M62.2 50.6h1.55v-5.34l-1.67.344v-.875l1.67-.328h.937v6.2h1.56v.797h-4.05z" style="fill:none;stroke-width:.393;stroke:#000" transform="matrix(1.314 0 0 1.28 2.168 3.777)"/><text style="fill:#000;font-family:&quot;DejaVu Sans&quot;;font-size:9.62px" transform="matrix(1.314 0 0 1.28 90.34 69.61)"><tspan x="0" y="0">0</tspan></text><path d="M70.2 45q-.72.002-1.09.719-.375.72-.375 2.16c0 .961.125 1.68.375 2.17q.375.72 1.09.719.749 0 1.11-.719.375-.731.375-2.17c0-.957-.125-1.68-.375-2.16q-.361-.717-1.11-.719zm0-.75q1.185 0 1.8.938c.414.617.625 1.51.625 2.69q-.002 1.77-.625 2.7c-.406.625-1.01.938-1.8.938q-1.17 0-1.8-.938c-.407-.625-.61-1.52-.61-2.7s.203-2.07.61-2.69c.414-.626 1.02-.938 1.8-.938z" style="fill:none;stroke-width:.393;stroke:#000" transform="matrix(1.314 0 0 1.28 2.168 3.777)"/><text style="fill:#000;font-family:&quot;DejaVu Sans&quot;;font-size:9.62px" transform="matrix(1.314 0 0 1.28 98.356 69.61)"><tspan x="0" y="0">1</tspan></text><path d="M74.4 50.6h1.55v-5.34l-1.67.344v-.875l1.67-.328h.937v6.2h1.56v.797h-4.05z" style="fill:none;stroke-width:.393;stroke:#000" transform="matrix(1.314 0 0 1.28 2.168 3.777)"/><text style="fill:#000;font-family:&quot;DejaVu Sans&quot;;font-size:9.62px" transform="matrix(1.314 0 0 1.28 106.503 69.61)"><tspan x="0" y="0">1</tspan></text><path d="M80.5 50.6h1.55v-5.34l-1.67.344v-.875l1.67-.328h.938v6.2h1.56v.797h-4.05z" style="fill:none;stroke-width:.393;stroke:#000" transform="matrix(1.314 0 0 1.28 2.168 3.777)"/><text style="fill:#000;font-family:&quot;DejaVu Sans&quot;;font-size:9.62px" transform="matrix(1.314 0 0 1.28 114.518 69.61)"><tspan x="0" y="0">0</tspan></text><path d="M88.5 45q-.721.002-1.09.719-.375.72-.375 2.16c0 .961.125 1.68.375 2.17q.375.72 1.09.719c.5 0 .867-.239 1.11-.719q.375-.731.375-2.17c0-.957-.125-1.68-.375-2.16-.242-.477-.609-.719-1.11-.719zm0-.75q1.184 0 1.8.938c.415.617.626 1.51.626 2.69q-.002 1.77-.626 2.7c-.406.625-1.01.938-1.8.938q-1.171 0-1.8-.938c-.407-.625-.61-1.52-.61-2.7s.203-2.07.61-2.69c.414-.626 1.02-.938 1.8-.938z" style="fill:none;stroke-width:.393;stroke:#000" transform="matrix(1.314 0 0 1.28 2.168 3.777)"/><text style="fill:#000;font-family:&quot;DejaVu Sans&quot;;font-size:9.62px" transform="matrix(1.314 0 0 1.28 122.534 69.61)"><tspan x="0" y="0">1</tspan></text><path d="M92.8 50.6h1.55v-5.34l-1.67.344v-.875l1.67-.328h.938v6.2h1.56v.797h-4.05z" style="fill:none;stroke-width:.393;stroke:#000" transform="matrix(1.314 0 0 1.28 2.168 3.777)"/><text style="fill:#000;font-family:&quot;DejaVu Sans&quot;;font-size:9.62px" transform="matrix(1.314 0 0 1.28 1.853 83.827)"><tspan x="0" y="0">0</tspan></text><path d="M2.81 56.2c-.481 0-.844.243-1.09.719q-.375.72-.375 2.16c0 .961.125 1.68.375 2.17q.375.72 1.09.719c.5 0 .867-.238 1.11-.719q.375-.731.375-2.17c0-.957-.125-1.68-.375-2.16-.242-.476-.609-.719-1.11-.719zm0-.75q1.184 0 1.8.938c.415.617.625 1.51.625 2.69q-.001 1.77-.625 2.7c-.406.625-1.01.938-1.8.938q-1.171 0-1.8-.938c-.407-.625-.61-1.52-.61-2.7s.203-2.07.61-2.69c.414-.625 1.02-.938 1.8-.938z" style="fill:none;stroke-width:.393;stroke:#000" transform="matrix(1.314 0 0 1.28 2.168 3.777)"/><text style="fill:#000;font-family:&quot;DejaVu Sans&quot;;font-size:9.62px" transform="matrix(1.314 0 0 1.28 9.894 83.827)"><tspan x="0" y="0">1</tspan></text><path d="M7.07 61.7h1.55v-5.34l-1.67.343v-.875l1.67-.328h.938v6.2h1.56v.797h-4.05z" style="fill:none;stroke-width:.393;stroke:#000" transform="matrix(1.314 0 0 1.28 2.168 3.777)"/><text style="fill:#000;font-family:&quot;DejaVu Sans&quot;;font-size:9.62px" transform="matrix(1.314 0 0 1.28 17.936 83.827)"><tspan x="0" y="0">1</tspan></text><path d="M13.2 61.7h1.55v-5.34l-1.67.343v-.875l1.67-.328h.938v6.2h1.56v.797h-4.05z" style="fill:none;stroke-width:.393;stroke:#000" transform="matrix(1.314 0 0 1.28 2.168 3.777)"/><text style="fill:#000;font-family:&quot;DejaVu Sans&quot;;font-size:9.62px" transform="matrix(1.314 0 0 1.28 25.952 83.827)"><tspan x="0" y="0">0</tspan></text><path d="M21.2 56.2c-.481 0-.844.243-1.09.719q-.375.72-.375 2.16c0 .961.125 1.68.375 2.17q.375.72 1.09.719c.5 0 .867-.238 1.11-.719q.375-.731.375-2.17c0-.957-.125-1.68-.375-2.16-.242-.476-.609-.719-1.11-.719zm0-.75q1.184 0 1.8.938c.414.617.625 1.51.625 2.69q-.002 1.77-.625 2.7c-.407.625-1.01.938-1.8.938q-1.17 0-1.8-.938c-.406-.625-.609-1.52-.609-2.7s.203-2.07.609-2.69c.414-.625 1.02-.938 1.8-.938z" style="fill:none;stroke-width:.393;stroke:#000" transform="matrix(1.314 0 0 1.28 2.168 3.777)"/><text style="fill:#000;font-family:&quot;DejaVu Sans&quot;;font-size:9.62px" transform="matrix(1.314 0 0 1.28 33.968 83.827)"><tspan x="0" y="0">0</tspan></text><path d="M27.3 56.2c-.481 0-.844.243-1.09.719q-.375.72-.375 2.16c0 .961.125 1.68.375 2.17q.375.72 1.09.719c.5 0 .867-.238 1.11-.719q.375-.731.375-2.17c0-.957-.125-1.68-.375-2.16-.242-.476-.609-.719-1.11-.719zm0-.75q1.184 0 1.8.938c.414.617.625 1.51.625 2.69s-.211 2.08-.625 2.7c-.406.625-1.01.938-1.8.938q-1.17 0-1.8-.938c-.406-.625-.609-1.52-.609-2.7s.203-2.07.609-2.69c.414-.625 1.02-.938 1.8-.938z" style="fill:none;stroke-width:.393;stroke:#000" transform="matrix(1.314 0 0 1.28 2.168 3.777)"/><text style="fill:#000;font-family:&quot;DejaVu Sans&quot;;font-size:9.62px" transform="matrix(1.314 0 0 1.28 42.115 83.827)"><tspan x="0" y="0">0</tspan></text><path d="M33.4 56.2c-.48 0-.844.243-1.09.719q-.375.72-.375 2.16c0 .961.125 1.68.375 2.17q.375.72 1.09.719c.5 0 .867-.238 1.11-.719q.375-.731.375-2.17c0-.957-.125-1.68-.375-2.16-.242-.476-.609-.719-1.11-.719zm0-.75q1.184 0 1.8.938c.414.617.625 1.51.625 2.69s-.211 2.08-.625 2.7c-.406.625-1.01.938-1.8.938q-1.17 0-1.8-.938c-.406-.625-.609-1.52-.609-2.7s.203-2.07.609-2.69c.414-.625 1.02-.938 1.8-.938z" style="fill:none;stroke-width:.393;stroke:#000" transform="matrix(1.314 0 0 1.28 2.168 3.777)"/><text style="fill:#000;font-family:&quot;DejaVu Sans&quot;;font-size:9.62px" transform="matrix(1.314 0 0 1.28 50.13 83.827)"><tspan x="0" y="0">1</tspan></text><path d="M37.7 61.7h1.55v-5.34l-1.67.343v-.875l1.67-.328h.937v6.2h1.56v.797h-4.05z" style="fill:none;stroke-width:.393;stroke:#000" transform="matrix(1.314 0 0 1.28 2.168 3.777)"/><text style="fill:#000;font-family:&quot;DejaVu Sans&quot;;font-size:9.62px" transform="matrix(1.314 0 0 1.28 58.146 83.827)"><tspan x="0" y="0">1</tspan></text><path d="M43.8 61.7h1.55v-5.34l-1.67.343v-.875l1.67-.328h.937v6.2h1.56v.797h-4.05z" style="fill:none;stroke-width:.393;stroke:#000" transform="matrix(1.314 0 0 1.28 2.168 3.777)"/><text style="fill:#000;font-family:&quot;DejaVu Sans&quot;;font-size:9.62px" transform="matrix(1.314 0 0 1.28 66.162 83.827)"><tspan x="0" y="0">1</tspan></text><path d="M49.9 61.7h1.55v-5.34l-1.67.343v-.875l1.67-.328h.937v6.2h1.56v.797h-4.05z" style="fill:none;stroke-width:.393;stroke:#000" transform="matrix(1.314 0 0 1.28 2.168 3.777)"/><text style="fill:#000;font-family:&quot;DejaVu Sans&quot;;font-size:9.62px" transform="matrix(1.314 0 0 1.28 74.309 83.827)"><tspan x="0" y="0">1</tspan></text><path d="M56 61.7h1.55v-5.34l-1.67.343v-.875l1.67-.328h.937v6.2h1.56v.797h-4.05z" style="fill:none;stroke-width:.393;stroke:#000" transform="matrix(1.314 0 0 1.28 2.168 3.777)"/><text style="fill:#000;font-family:&quot;DejaVu Sans&quot;;font-size:9.62px" transform="matrix(1.314 0 0 1.28 82.324 83.827)"><tspan x="0" y="0">0</tspan></text><path d="M64 56.2c-.48 0-.843.243-1.09.719q-.375.72-.375 2.16c0 .961.125 1.68.375 2.17q.375.72 1.09.719.748.001 1.11-.719.375-.731.375-2.17c0-.957-.125-1.68-.375-2.16-.242-.476-.61-.719-1.11-.719zm0-.75q1.184 0 1.8.938c.414.617.625 1.51.625 2.69q-.002 1.77-.625 2.7c-.406.625-1.01.938-1.8.938q-1.17 0-1.8-.938c-.406-.625-.609-1.52-.609-2.7s.203-2.07.609-2.69c.415-.625 1.02-.938 1.8-.938z" style="fill:none;stroke-width:.393;stroke:#000" transform="matrix(1.314 0 0 1.28 2.168 3.777)"/><text style="fill:#000;font-family:&quot;DejaVu Sans&quot;;font-size:9.62px" transform="matrix(1.314 0 0 1.28 90.34 83.827)"><tspan x="0" y="0">1</tspan></text><path d="M68.3 61.7h1.55v-5.34l-1.67.343v-.875l1.67-.328h.937v6.2h1.56v.797h-4.05z" style="fill:none;stroke-width:.393;stroke:#000" transform="matrix(1.314 0 0 1.28 2.168 3.777)"/><text style="fill:#000;font-family:&quot;DejaVu Sans&quot;;font-size:9.62px" transform="matrix(1.314 0 0 1.28 98.356 83.827)"><tspan x="0" y="0">0</tspan></text><path d="M76.3 56.2c-.48 0-.843.243-1.09.719q-.375.72-.375 2.16c0 .961.125 1.68.375 2.17q.375.72 1.09.719.748.001 1.11-.719.375-.731.375-2.17c0-.957-.125-1.68-.375-2.16-.242-.476-.61-.719-1.11-.719zm0-.75q1.184 0 1.8.938c.414.617.625 1.51.625 2.69s-.211 2.08-.625 2.7c-.406.625-1.01.938-1.8.938q-1.17 0-1.8-.938c-.407-.625-.61-1.52-.61-2.7s.203-2.07.61-2.69c.414-.625 1.02-.938 1.8-.938z" style="fill:none;stroke-width:.393;stroke:#000" transform="matrix(1.314 0 0 1.28 2.168 3.777)"/><text style="fill:#000;font-family:&quot;DejaVu Sans&quot;;font-size:9.62px" transform="matrix(1.314 0 0 1.28 106.503 83.827)"><tspan x="0" y="0">1</tspan></text><path d="M80.5 61.7h1.55v-5.34l-1.67.343v-.875l1.67-.328h.938v6.2h1.56v.797h-4.05z" style="fill:none;stroke-width:.393;stroke:#000" transform="matrix(1.314 0 0 1.28 2.168 3.777)"/><text style="fill:#000;font-family:&quot;DejaVu Sans&quot;;font-size:9.62px" transform="matrix(1.314 0 0 1.28 114.518 83.827)"><tspan x="0" y="0">0</tspan></text><path d="M88.5 56.2c-.481 0-.844.243-1.09.719q-.375.72-.375 2.16c0 .961.125 1.68.375 2.17q.375.72 1.09.719c.5 0 .867-.238 1.11-.719q.375-.731.375-2.17c0-.957-.125-1.68-.375-2.16-.242-.476-.609-.719-1.11-.719zm0-.75q1.184 0 1.8.938c.415.617.626 1.51.626 2.69q-.002 1.77-.626 2.7c-.406.625-1.01.938-1.8.938q-1.171 0-1.8-.938c-.407-.625-.61-1.52-.61-2.7s.203-2.07.61-2.69c.414-.625 1.02-.938 1.8-.938z" style="fill:none;stroke-width:.393;stroke:#000" transform="matrix(1.314 0 0 1.28 2.168 3.777)"/><text style="fill:#000;font-family:&quot;DejaVu Sans&quot;;font-size:9.62px" transform="matrix(1.314 0 0 1.28 122.534 83.827)"><tspan x="0" y="0">0</tspan></text><path d="M94.6 56.2c-.481 0-.844.243-1.09.719q-.375.72-.375 2.16c0 .961.125 1.68.375 2.17q.375.72 1.09.719c.5 0 .867-.238 1.11-.719q.375-.731.375-2.17c0-.957-.125-1.68-.375-2.16-.242-.476-.609-.719-1.11-.719zm0-.75q1.184 0 1.8.938c.414.617.625 1.51.625 2.69q-.002 1.77-.625 2.7c-.407.625-1.01.938-1.8.938q-1.172 0-1.8-.938c-.406-.625-.61-1.52-.61-2.7s.204-2.07.61-2.69c.414-.625 1.02-.938 1.8-.938z" style="fill:none;stroke-width:.393;stroke:#000" transform="matrix(1.314 0 0 1.28 2.168 3.777)"/><text style="fill:#000;font-family:&quot;DejaVu Sans&quot;;font-size:9.62px" transform="matrix(1.314 0 0 1.28 1.853 98.171)"><tspan x="0" y="0">1</tspan></text><path d="M.949 72.9h1.55v-5.34l-1.67.344v-.875l1.67-.328h.938v6.2h1.56v.797H.947z" style="fill:none;stroke-width:.393;stroke:#000" transform="matrix(1.314 0 0 1.28 2.168 3.777)"/><text style="fill:#000;font-family:&quot;DejaVu Sans&quot;;font-size:9.62px" transform="matrix(1.314 0 0 1.28 9.894 98.171)"><tspan x="0" y="0">0</tspan></text><path d="M8.93 67.3c-.481 0-.844.242-1.09.718q-.375.72-.375 2.16c0 .961.125 1.68.375 2.17q.375.719 1.09.718c.5 0 .867-.238 1.11-.718q.375-.732.375-2.17c0-.957-.125-1.68-.375-2.16-.242-.476-.609-.718-1.11-.718zm0-.75q1.184 0 1.8.937c.414.617.625 1.51.625 2.69q-.002 1.77-.625 2.7c-.407.625-1.01.937-1.8.937q-1.171 0-1.8-.937c-.406-.625-.61-1.52-.61-2.7s.204-2.07.61-2.69c.414-.625 1.02-.937 1.8-.937z" style="fill:none;stroke-width:.393;stroke:#000" transform="matrix(1.314 0 0 1.28 2.168 3.777)"/><text style="fill:#000;font-family:&quot;DejaVu Sans&quot;;font-size:9.62px" transform="matrix(1.314 0 0 1.28 17.936 98.171)"><tspan x="0" y="0">1</tspan></text><path d="M13.2 72.9h1.55v-5.34l-1.67.344v-.875l1.67-.328h.938v6.2h1.56v.797h-4.05z" style="fill:none;stroke-width:.393;stroke:#000" transform="matrix(1.314 0 0 1.28 2.168 3.777)"/><text style="fill:#000;font-family:&quot;DejaVu Sans&quot;;font-size:9.62px" transform="matrix(1.314 0 0 1.28 25.952 98.171)"><tspan x="0" y="0">1</tspan></text><path d="M19.3 72.9h1.55v-5.34l-1.67.344v-.875l1.67-.328h.938v6.2h1.56v.797h-4.05z" style="fill:none;stroke-width:.393;stroke:#000" transform="matrix(1.314 0 0 1.28 2.168 3.777)"/><text style="fill:#000;font-family:&quot;DejaVu Sans&quot;;font-size:9.62px" transform="matrix(1.314 0 0 1.28 33.968 98.171)"><tspan x="0" y="0">1</tspan></text><path d="M25.4 72.9h1.55v-5.34l-1.67.344v-.875l1.67-.328h.938v6.2h1.56v.797h-4.05z" style="fill:none;stroke-width:.393;stroke:#000" transform="matrix(1.314 0 0 1.28 2.168 3.777)"/><text style="fill:#000;font-family:&quot;DejaVu Sans&quot;;font-size:9.62px" transform="matrix(1.314 0 0 1.28 42.115 98.171)"><tspan x="0" y="0">1</tspan></text><path d="M31.6 72.9h1.55v-5.34l-1.67.344v-.875l1.67-.328h.938v6.2h1.56v.797h-4.05z" style="fill:none;stroke-width:.393;stroke:#000" transform="matrix(1.314 0 0 1.28 2.168 3.777)"/><text style="fill:#000;font-family:&quot;DejaVu Sans&quot;;font-size:9.62px" transform="matrix(1.314 0 0 1.28 50.13 98.171)"><tspan x="0" y="0">0</tspan></text><path d="M39.5 67.3c-.48 0-.844.242-1.09.718q-.375.72-.375 2.16c0 .961.125 1.68.375 2.17q.375.719 1.09.718c.5 0 .867-.238 1.11-.718q.375-.732.375-2.17c0-.957-.125-1.68-.375-2.16-.242-.476-.609-.718-1.11-.718zm0-.75q1.184 0 1.8.937c.414.617.625 1.51.625 2.69q-.002 1.77-.625 2.7c-.406.625-1.01.937-1.8.937q-1.17 0-1.8-.937c-.406-.625-.609-1.52-.609-2.7s.203-2.07.609-2.69c.414-.625 1.02-.937 1.8-.937z" style="fill:none;stroke-width:.393;stroke:#000" transform="matrix(1.314 0 0 1.28 2.168 3.777)"/><text style="fill:#000;font-family:&quot;DejaVu Sans&quot;;font-size:9.62px" transform="matrix(1.314 0 0 1.28 58.146 98.171)"><tspan x="0" y="0">1</tspan></text><path d="M43.8 72.9h1.55v-5.34l-1.67.344v-.875l1.67-.328h.937v6.2h1.56v.797h-4.05z" style="fill:none;stroke-width:.393;stroke:#000" transform="matrix(1.314 0 0 1.28 2.168 3.777)"/><text style="fill:#000;font-family:&quot;DejaVu Sans&quot;;font-size:9.62px" transform="matrix(1.314 0 0 1.28 66.162 98.171)"><tspan x="0" y="0">1</tspan></text><path d="M49.9 72.9h1.55v-5.34l-1.67.344v-.875l1.67-.328h.937v6.2h1.56v.797h-4.05z" style="fill:none;stroke-width:.393;stroke:#000" transform="matrix(1.314 0 0 1.28 2.168 3.777)"/><text style="fill:#000;font-family:&quot;DejaVu Sans&quot;;font-size:9.62px" transform="matrix(1.314 0 0 1.28 74.309 98.171)"><tspan x="0" y="0">1</tspan></text><path d="M56 72.9h1.55v-5.34l-1.67.344v-.875l1.67-.328h.937v6.2h1.56v.797h-4.05z" style="fill:none;stroke-width:.393;stroke:#000" transform="matrix(1.314 0 0 1.28 2.168 3.777)"/><text style="fill:#000;font-family:&quot;DejaVu Sans&quot;;font-size:9.62px" transform="matrix(1.314 0 0 1.28 82.324 98.171)"><tspan x="0" y="0">0</tspan></text><path d="M64 67.3c-.48 0-.843.242-1.09.718q-.375.72-.375 2.16c0 .961.125 1.68.375 2.17q.375.719 1.09.718.748.001 1.11-.718.375-.732.375-2.17c0-.957-.125-1.68-.375-2.16-.242-.476-.61-.718-1.11-.718zm0-.75q1.184 0 1.8.937c.414.617.625 1.51.625 2.69q-.002 1.77-.625 2.7c-.406.625-1.01.937-1.8.937q-1.17 0-1.8-.937c-.406-.625-.609-1.52-.609-2.7s.203-2.07.609-2.69c.415-.625 1.02-.937 1.8-.937z" style="fill:none;stroke-width:.393;stroke:#000" transform="matrix(1.314 0 0 1.28 2.168 3.777)"/><text style="fill:#000;font-family:&quot;DejaVu Sans&quot;;font-size:9.62px" transform="matrix(1.314 0 0 1.28 90.34 98.171)"><tspan x="0" y="0">1</tspan></text><path d="M68.3 72.9h1.55v-5.34l-1.67.344v-.875l1.67-.328h.937v6.2h1.56v.797h-4.05z" style="fill:none;stroke-width:.393;stroke:#000" transform="matrix(1.314 0 0 1.28 2.168 3.777)"/><text style="fill:#000;font-family:&quot;DejaVu Sans&quot;;font-size:9.62px" transform="matrix(1.314 0 0 1.28 98.356 98.171)"><tspan x="0" y="0">0</tspan></text><path d="M76.3 67.3c-.48 0-.843.242-1.09.718q-.375.72-.375 2.16c0 .961.125 1.68.375 2.17q.375.719 1.09.718.748.001 1.11-.718.375-.732.375-2.17c0-.957-.125-1.68-.375-2.16-.242-.476-.61-.718-1.11-.718zm0-.75q1.184 0 1.8.937c.414.617.625 1.51.625 2.69s-.211 2.08-.625 2.7c-.406.625-1.01.937-1.8.937q-1.17 0-1.8-.937c-.407-.625-.61-1.52-.61-2.7s.203-2.07.61-2.69c.414-.625 1.02-.937 1.8-.937z" style="fill:none;stroke-width:.393;stroke:#000" transform="matrix(1.314 0 0 1.28 2.168 3.777)"/><text style="fill:#000;font-family:&quot;DejaVu Sans&quot;;font-size:9.62px" transform="matrix(1.314 0 0 1.28 106.503 98.171)"><tspan x="0" y="0">1</tspan></text><path d="M80.5 72.9h1.55v-5.34l-1.67.344v-.875l1.67-.328h.938v6.2h1.56v.797h-4.05z" style="fill:none;stroke-width:.393;stroke:#000" transform="matrix(1.314 0 0 1.28 2.168 3.777)"/><text style="fill:#000;font-family:&quot;DejaVu Sans&quot;;font-size:9.62px" transform="matrix(1.314 0 0 1.28 114.518 98.171)"><tspan x="0" y="0">0</tspan></text><path d="M88.5 67.3c-.481 0-.844.242-1.09.718q-.375.72-.375 2.16c0 .961.125 1.68.375 2.17q.375.719 1.09.718c.5 0 .867-.238 1.11-.718q.375-.732.375-2.17c0-.957-.125-1.68-.375-2.16-.242-.476-.609-.718-1.11-.718zm0-.75q1.184 0 1.8.937c.415.617.626 1.51.626 2.69q-.002 1.77-.626 2.7c-.406.625-1.01.937-1.8.937q-1.171 0-1.8-.937c-.407-.625-.61-1.52-.61-2.7s.203-2.07.61-2.69c.414-.625 1.02-.937 1.8-.937z" style="fill:none;stroke-width:.393;stroke:#000" transform="matrix(1.314 0 0 1.28 2.168 3.777)"/><text style="fill:#000;font-family:&quot;DejaVu Sans&quot;;font-size:9.62px" transform="matrix(1.314 0 0 1.28 122.534 98.171)"><tspan x="0" y="0">1</tspan></text><path d="M92.8 72.9h1.55v-5.34l-1.67.344v-.875l1.67-.328h.938v6.2h1.56v.797h-4.05z" style="fill:none;stroke-width:.393;stroke:#000" transform="matrix(1.314 0 0 1.28 2.168 3.777)"/><text style="fill:#000;font-family:&quot;DejaVu Sans&quot;;font-size:9.62px" transform="matrix(1.314 0 0 1.28 1.853 112.388)"><tspan x="0" y="0">0</tspan></text><path d="M2.81 78.5q-.721.002-1.09.719-.375.72-.375 2.16c0 .961.125 1.68.375 2.17q.375.72 1.09.719c.5 0 .867-.239 1.11-.719q.375-.731.375-2.17c0-.957-.125-1.68-.375-2.16-.242-.477-.609-.719-1.11-.719zm0-.75q1.184 0 1.8.938c.415.617.625 1.51.625 2.69q-.001 1.77-.625 2.7c-.406.625-1.01.938-1.8.938q-1.171 0-1.8-.938c-.407-.625-.61-1.52-.61-2.7s.203-2.07.61-2.69c.414-.625 1.02-.938 1.8-.938z" style="fill:none;stroke-width:.393;stroke:#000" transform="matrix(1.314 0 0 1.28 2.168 3.777)"/><text style="fill:#000;font-family:&quot;DejaVu Sans&quot;;font-size:9.62px" transform="matrix(1.314 0 0 1.28 9.894 112.388)"><tspan x="0" y="0">1</tspan></text><path d="M7.07 84h1.55v-5.34l-1.67.344v-.875l1.67-.328h.938v6.2h1.56v.797h-4.05z" style="fill:none;stroke-width:.393;stroke:#000" transform="matrix(1.314 0 0 1.28 2.168 3.777)"/><text style="fill:#000;font-family:&quot;DejaVu Sans&quot;;font-size:9.62px" transform="matrix(1.314 0 0 1.28 17.936 112.388)"><tspan x="0" y="0">0</tspan></text><path d="M15 78.5q-.721.002-1.09.719-.375.72-.375 2.16c0 .961.125 1.68.375 2.17q.375.72 1.09.719c.5 0 .867-.239 1.11-.719q.375-.731.375-2.17c0-.957-.125-1.68-.375-2.16-.242-.477-.609-.719-1.11-.719zm0-.75q1.184 0 1.8.938c.414.617.625 1.51.625 2.69q-.002 1.77-.625 2.7c-.407.625-1.01.938-1.8.938q-1.17 0-1.8-.938c-.406-.625-.609-1.52-.609-2.7s.203-2.07.609-2.69c.414-.625 1.02-.938 1.8-.938z" style="fill:none;stroke-width:.393;stroke:#000" transform="matrix(1.314 0 0 1.28 2.168 3.777)"/><text style="fill:#000;font-family:&quot;DejaVu Sans&quot;;font-size:9.62px" transform="matrix(1.314 0 0 1.28 25.952 112.388)"><tspan x="0" y="0">1</tspan></text><path d="M19.3 84h1.55v-5.34l-1.67.344v-.875l1.67-.328h.938v6.2h1.56v.797h-4.05z" style="fill:none;stroke-width:.393;stroke:#000" transform="matrix(1.314 0 0 1.28 2.168 3.777)"/><text style="fill:#000;font-family:&quot;DejaVu Sans&quot;;font-size:9.62px" transform="matrix(1.314 0 0 1.28 33.968 112.388)"><tspan x="0" y="0">0</tspan></text><path d="M27.3 78.5q-.721.002-1.09.719-.375.72-.375 2.16c0 .961.125 1.68.375 2.17q.375.72 1.09.719c.5 0 .867-.239 1.11-.719q.375-.731.375-2.17c0-.957-.125-1.68-.375-2.16-.242-.477-.609-.719-1.11-.719zm0-.75q1.184 0 1.8.938c.414.617.625 1.51.625 2.69s-.211 2.08-.625 2.7c-.406.625-1.01.938-1.8.938q-1.17 0-1.8-.938c-.406-.625-.609-1.52-.609-2.7s.203-2.07.609-2.69c.414-.625 1.02-.938 1.8-.938z" style="fill:none;stroke-width:.393;stroke:#000" transform="matrix(1.314 0 0 1.28 2.168 3.777)"/><text style="fill:#000;font-family:&quot;DejaVu Sans&quot;;font-size:9.62px" transform="matrix(1.314 0 0 1.28 42.115 112.388)"><tspan x="0" y="0">1</tspan></text><path d="M31.6 84h1.55v-5.34l-1.67.344v-.875l1.67-.328h.938v6.2h1.56v.797h-4.05z" style="fill:none;stroke-width:.393;stroke:#000" transform="matrix(1.314 0 0 1.28 2.168 3.777)"/><text style="fill:#000;font-family:&quot;DejaVu Sans&quot;;font-size:9.62px" transform="matrix(1.314 0 0 1.28 50.13 112.388)"><tspan x="0" y="0">0</tspan></text><path d="M39.5 78.5q-.72.002-1.09.719-.375.72-.375 2.16c0 .961.125 1.68.375 2.17q.375.72 1.09.719c.5 0 .867-.239 1.11-.719q.375-.731.375-2.17c0-.957-.125-1.68-.375-2.16-.242-.477-.609-.719-1.11-.719zm0-.75q1.184 0 1.8.938c.414.617.625 1.51.625 2.69q-.002 1.77-.625 2.7c-.406.625-1.01.938-1.8.938q-1.17 0-1.8-.938c-.406-.625-.609-1.52-.609-2.7s.203-2.07.609-2.69c.414-.625 1.02-.938 1.8-.938z" style="fill:none;stroke-width:.393;stroke:#000" transform="matrix(1.314 0 0 1.28 2.168 3.777)"/><text style="fill:#000;font-family:&quot;DejaVu Sans&quot;;font-size:9.62px" transform="matrix(1.314 0 0 1.28 58.146 112.388)"><tspan x="0" y="0">1</tspan></text><path d="M43.8 84h1.55v-5.34l-1.67.344v-.875l1.67-.328h.937v6.2h1.56v.797h-4.05z" style="fill:none;stroke-width:.393;stroke:#000" transform="matrix(1.314 0 0 1.28 2.168 3.777)"/><text style="fill:#000;font-family:&quot;DejaVu Sans&quot;;font-size:9.62px" transform="matrix(1.314 0 0 1.28 66.162 112.388)"><tspan x="0" y="0">0</tspan></text><path d="M51.8 78.5q-.72.002-1.09.719-.375.72-.375 2.16c0 .961.125 1.68.375 2.17q.376.72 1.09.719c.5 0 .867-.239 1.11-.719q.375-.731.375-2.17c0-.957-.125-1.68-.375-2.16-.243-.477-.61-.719-1.11-.719zm0-.75q1.184 0 1.8.938c.414.617.625 1.51.625 2.69s-.211 2.08-.625 2.7c-.406.625-1.01.938-1.8.938q-1.17 0-1.8-.938c-.406-.625-.609-1.52-.609-2.7s.203-2.07.609-2.69c.414-.625 1.02-.938 1.8-.938z" style="fill:none;stroke-width:.393;stroke:#000" transform="matrix(1.314 0 0 1.28 2.168 3.777)"/><text style="fill:#000;font-family:&quot;DejaVu Sans&quot;;font-size:9.62px" transform="matrix(1.314 0 0 1.28 74.309 112.388)"><tspan x="0" y="0">0</tspan></text><path d="M57.9 78.5q-.72.002-1.09.719-.375.72-.374 2.16c0 .961.124 1.68.374 2.17q.375.72 1.09.719c.5 0 .867-.239 1.11-.719q.375-.731.375-2.17c0-.957-.125-1.68-.375-2.16-.243-.477-.61-.719-1.11-.719zm0-.75q1.184 0 1.8.938c.414.617.625 1.51.625 2.69s-.211 2.08-.625 2.7c-.406.625-1.01.938-1.8.938q-1.17 0-1.8-.938c-.406-.625-.609-1.52-.609-2.7s.203-2.07.609-2.69c.414-.625 1.02-.938 1.8-.938z" style="fill:none;stroke-width:.393;stroke:#000" transform="matrix(1.314 0 0 1.28 2.168 3.777)"/><text style="fill:#000;font-family:&quot;DejaVu Sans&quot;;font-size:9.62px" transform="matrix(1.314 0 0 1.28 82.324 112.388)"><tspan x="0" y="0">0</tspan></text><path d="M64 78.5q-.72.002-1.09.719-.375.72-.375 2.16c0 .961.125 1.68.375 2.17q.375.72 1.09.719.748 0 1.11-.719.375-.731.375-2.17c0-.957-.125-1.68-.375-2.16q-.362-.717-1.11-.719zm0-.75q1.184 0 1.8.938c.414.617.625 1.51.625 2.69q-.002 1.77-.625 2.7c-.406.625-1.01.938-1.8.938q-1.17 0-1.8-.938c-.406-.625-.609-1.52-.609-2.7s.203-2.07.609-2.69c.415-.625 1.02-.938 1.8-.938z" style="fill:none;stroke-width:.393;stroke:#000" transform="matrix(1.314 0 0 1.28 2.168 3.777)"/><text style="fill:#000;font-family:&quot;DejaVu Sans&quot;;font-size:9.62px" transform="matrix(1.314 0 0 1.28 90.34 112.388)"><tspan x="0" y="0">1</tspan></text><path d="M68.3 84h1.55v-5.34l-1.67.344v-.875l1.67-.328h.937v6.2h1.56v.797h-4.05z" style="fill:none;stroke-width:.393;stroke:#000" transform="matrix(1.314 0 0 1.28 2.168 3.777)"/><text style="fill:#000;font-family:&quot;DejaVu Sans&quot;;font-size:9.62px" transform="matrix(1.314 0 0 1.28 98.356 112.388)"><tspan x="0" y="0">1</tspan></text><path d="M74.4 84h1.55v-5.34l-1.67.344v-.875l1.67-.328h.937v6.2h1.56v.797h-4.05z" style="fill:none;stroke-width:.393;stroke:#000" transform="matrix(1.314 0 0 1.28 2.168 3.777)"/><text style="fill:#000;font-family:&quot;DejaVu Sans&quot;;font-size:9.62px" transform="matrix(1.314 0 0 1.28 106.503 112.388)"><tspan x="0" y="0">0</tspan></text><path d="M82.4 78.5q-.721.002-1.09.719-.375.72-.375 2.16c0 .961.125 1.68.375 2.17q.375.72 1.09.719c.5 0 .867-.239 1.11-.719q.375-.731.375-2.17c0-.957-.125-1.68-.375-2.16-.242-.477-.609-.719-1.11-.719zm0-.75q1.184 0 1.8.938c.414.617.625 1.51.625 2.69s-.211 2.08-.625 2.7c-.406.625-1.01.938-1.8.938q-1.171 0-1.8-.938c-.407-.625-.61-1.52-.61-2.7s.203-2.07.61-2.69c.414-.625 1.02-.938 1.8-.938z" style="fill:none;stroke-width:.393;stroke:#000" transform="matrix(1.314 0 0 1.28 2.168 3.777)"/><text style="fill:#000;font-family:&quot;DejaVu Sans&quot;;font-size:9.62px" transform="matrix(1.314 0 0 1.28 114.518 112.388)"><tspan x="0" y="0">1</tspan></text><path d="M86.7 84h1.55v-5.34l-1.67.344v-.875l1.67-.328h.938v6.2h1.56v.797h-4.05z" style="fill:none;stroke-width:.393;stroke:#000" transform="matrix(1.314 0 0 1.28 2.168 3.777)"/><text style="fill:#000;font-family:&quot;DejaVu Sans&quot;;font-size:9.62px" transform="matrix(1.314 0 0 1.28 122.534 112.388)"><tspan x="0" y="0">0</tspan></text><path d="M94.6 78.5q-.721.002-1.09.719-.375.72-.375 2.16c0 .961.125 1.68.375 2.17q.375.72 1.09.719c.5 0 .867-.239 1.11-.719q.375-.731.375-2.17c0-.957-.125-1.68-.375-2.16-.242-.477-.609-.719-1.11-.719zm0-.75q1.184 0 1.8.938c.414.617.625 1.51.625 2.69q-.002 1.77-.625 2.7c-.407.625-1.01.938-1.8.938q-1.172 0-1.8-.938c-.406-.625-.61-1.52-.61-2.7s.204-2.07.61-2.69c.414-.625 1.02-.938 1.8-.938z" style="fill:none;stroke-width:.393;stroke:#000" transform="matrix(1.314 0 0 1.28 2.168 3.777)"/><text style="fill:#000;font-family:&quot;DejaVu Sans&quot;;font-size:9.62px" transform="matrix(1.314 0 0 1.28 1.853 126.733)"><tspan x="0" y="0">0</tspan></text><path d="M2.81 89.6q-.721.002-1.09.719-.375.72-.375 2.16c0 .961.125 1.68.375 2.17q.375.72 1.09.719c.5 0 .867-.238 1.11-.719q.375-.731.375-2.17c0-.957-.125-1.68-.375-2.16-.242-.477-.609-.719-1.11-.719zm0-.75q1.184 0 1.8.938c.415.617.625 1.51.625 2.69q-.001 1.77-.625 2.7c-.406.625-1.01.938-1.8.938q-1.171 0-1.8-.938c-.407-.625-.61-1.52-.61-2.7s.203-2.07.61-2.69c.414-.625 1.02-.938 1.8-.938z" style="fill:none;stroke-width:.393;stroke:#000" transform="matrix(1.314 0 0 1.28 2.168 3.777)"/><text style="fill:#000;font-family:&quot;DejaVu Sans&quot;;font-size:9.62px" transform="matrix(1.314 0 0 1.28 9.894 126.733)"><tspan x="0" y="0">1</tspan></text><path d="M7.07 95.2h1.55v-5.34l-1.67.343v-.875L8.62 89h.938v6.2h1.56v.797h-4.05z" style="fill:none;stroke-width:.393;stroke:#000" transform="matrix(1.314 0 0 1.28 2.168 3.777)"/><text style="fill:#000;font-family:&quot;DejaVu Sans&quot;;font-size:9.62px" transform="matrix(1.314 0 0 1.28 17.936 126.733)"><tspan x="0" y="0">1</tspan></text><path d="M13.2 95.2h1.55v-5.34l-1.67.343v-.875L14.75 89h.938v6.2h1.56v.797h-4.05z" style="fill:none;stroke-width:.393;stroke:#000" transform="matrix(1.314 0 0 1.28 2.168 3.777)"/><text style="fill:#000;font-family:&quot;DejaVu Sans&quot;;font-size:9.62px" transform="matrix(1.314 0 0 1.28 25.952 126.733)"><tspan x="0" y="0">1</tspan></text><path d="M19.3 95.2h1.55v-5.34l-1.67.343v-.875L20.85 89h.938v6.2h1.56v.797h-4.05z" style="fill:none;stroke-width:.393;stroke:#000" transform="matrix(1.314 0 0 1.28 2.168 3.777)"/><text style="fill:#000;font-family:&quot;DejaVu Sans&quot;;font-size:9.62px" transform="matrix(1.314 0 0 1.28 33.968 126.733)"><tspan x="0" y="0">0</tspan></text><path d="M27.3 89.6q-.721.002-1.09.719-.375.72-.375 2.16c0 .961.125 1.68.375 2.17q.375.72 1.09.719c.5 0 .867-.238 1.11-.719q.375-.731.375-2.17c0-.957-.125-1.68-.375-2.16-.242-.477-.609-.719-1.11-.719zm0-.75q1.184 0 1.8.938c.414.617.625 1.51.625 2.69s-.211 2.08-.625 2.7c-.406.625-1.01.938-1.8.938q-1.17 0-1.8-.938c-.406-.625-.609-1.52-.609-2.7s.203-2.07.609-2.69c.414-.625 1.02-.938 1.8-.938z" style="fill:none;stroke-width:.393;stroke:#000" transform="matrix(1.314 0 0 1.28 2.168 3.777)"/><text style="fill:#000;font-family:&quot;DejaVu Sans&quot;;font-size:9.62px" transform="matrix(1.314 0 0 1.28 42.115 126.733)"><tspan x="0" y="0">0</tspan></text><path d="M33.4 89.6q-.72.002-1.09.719-.375.72-.375 2.16c0 .961.125 1.68.375 2.17q.375.72 1.09.719c.5 0 .867-.238 1.11-.719q.375-.731.375-2.17c0-.957-.125-1.68-.375-2.16-.242-.477-.609-.719-1.11-.719zm0-.75q1.184 0 1.8.938c.414.617.625 1.51.625 2.69s-.211 2.08-.625 2.7c-.406.625-1.01.938-1.8.938q-1.17 0-1.8-.938c-.406-.625-.609-1.52-.609-2.7s.203-2.07.609-2.69c.414-.625 1.02-.938 1.8-.938z" style="fill:none;stroke-width:.393;stroke:#000" transform="matrix(1.314 0 0 1.28 2.168 3.777)"/><text style="fill:#000;font-family:&quot;DejaVu Sans&quot;;font-size:9.62px" transform="matrix(1.314 0 0 1.28 50.13 126.733)"><tspan x="0" y="0">0</tspan></text><path d="M39.5 89.6q-.72.002-1.09.719-.375.72-.375 2.16c0 .961.125 1.68.375 2.17q.375.72 1.09.719c.5 0 .867-.238 1.11-.719q.375-.731.375-2.17c0-.957-.125-1.68-.375-2.16-.242-.477-.609-.719-1.11-.719zm0-.75q1.184 0 1.8.938c.414.617.625 1.51.625 2.69q-.002 1.77-.625 2.7c-.406.625-1.01.938-1.8.938q-1.17 0-1.8-.938c-.406-.625-.609-1.52-.609-2.7s.203-2.07.609-2.69c.414-.625 1.02-.938 1.8-.938z" style="fill:none;stroke-width:.393;stroke:#000" transform="matrix(1.314 0 0 1.28 2.168 3.777)"/><text style="fill:#000;font-family:&quot;DejaVu Sans&quot;;font-size:9.62px" transform="matrix(1.314 0 0 1.28 58.146 126.733)"><tspan x="0" y="0">0</tspan></text><path d="M45.7 89.6q-.72.002-1.09.719-.375.72-.375 2.16c0 .961.125 1.68.375 2.17q.375.72 1.09.719c.5 0 .867-.238 1.11-.719q.375-.731.375-2.17c0-.957-.125-1.68-.375-2.16-.243-.477-.61-.719-1.11-.719zm0-.75q1.184 0 1.8.938c.414.617.625 1.51.625 2.69q-.002 1.77-.625 2.7c-.406.625-1.01.938-1.8.938q-1.17 0-1.8-.938c-.406-.625-.609-1.52-.609-2.7s.203-2.07.609-2.69c.414-.625 1.02-.938 1.8-.938z" style="fill:none;stroke-width:.393;stroke:#000" transform="matrix(1.314 0 0 1.28 2.168 3.777)"/><text style="fill:#000;font-family:&quot;DejaVu Sans&quot;;font-size:9.62px" transform="matrix(1.314 0 0 1.28 66.162 126.733)"><tspan x="0" y="0">0</tspan></text><path d="M51.8 89.6q-.72.002-1.09.719-.375.72-.375 2.16c0 .961.125 1.68.375 2.17q.376.72 1.09.719c.5 0 .867-.238 1.11-.719q.375-.731.375-2.17c0-.957-.125-1.68-.375-2.16-.243-.477-.61-.719-1.11-.719zm0-.75q1.184 0 1.8.938c.414.617.625 1.51.625 2.69s-.211 2.08-.625 2.7c-.406.625-1.01.938-1.8.938q-1.17 0-1.8-.938c-.406-.625-.609-1.52-.609-2.7s.203-2.07.609-2.69c.414-.625 1.02-.938 1.8-.938z" style="fill:none;stroke-width:.393;stroke:#000" transform="matrix(1.314 0 0 1.28 2.168 3.777)"/><text style="fill:#000;font-family:&quot;DejaVu Sans&quot;;font-size:9.62px" transform="matrix(1.314 0 0 1.28 74.309 126.733)"><tspan x="0" y="0">0</tspan></text><path d="M57.9 89.6q-.72.002-1.09.719-.375.72-.374 2.16c0 .961.124 1.68.374 2.17q.375.72 1.09.719c.5 0 .867-.238 1.11-.719q.375-.731.375-2.17c0-.957-.125-1.68-.375-2.16-.243-.477-.61-.719-1.11-.719zm0-.75q1.184 0 1.8.938c.414.617.625 1.51.625 2.69s-.211 2.08-.625 2.7c-.406.625-1.01.938-1.8.938q-1.17 0-1.8-.938c-.406-.625-.609-1.52-.609-2.7s.203-2.07.609-2.69c.414-.625 1.02-.938 1.8-.938z" style="fill:none;stroke-width:.393;stroke:#000" transform="matrix(1.314 0 0 1.28 2.168 3.777)"/><text style="fill:#000;font-family:&quot;DejaVu Sans&quot;;font-size:9.62px" transform="matrix(1.314 0 0 1.28 82.324 126.733)"><tspan x="0" y="0">0</tspan></text><path d="M64 89.6q-.72.002-1.09.719-.375.72-.375 2.16c0 .961.125 1.68.375 2.17q.375.72 1.09.719.748.001 1.11-.719.375-.731.375-2.17c0-.957-.125-1.68-.375-2.16q-.362-.717-1.11-.719zm0-.75q1.184 0 1.8.938c.414.617.625 1.51.625 2.69q-.002 1.77-.625 2.7c-.406.625-1.01.938-1.8.938q-1.17 0-1.8-.938c-.406-.625-.609-1.52-.609-2.7s.203-2.07.609-2.69c.415-.625 1.02-.938 1.8-.938z" style="fill:none;stroke-width:.393;stroke:#000" transform="matrix(1.314 0 0 1.28 2.168 3.777)"/><text style="fill:#000;font-family:&quot;DejaVu Sans&quot;;font-size:9.62px" transform="matrix(1.314 0 0 1.28 90.34 126.733)"><tspan x="0" y="0">1</tspan></text><path d="M68.3 95.2h1.55v-5.34l-1.67.343v-.875L69.85 89h.937v6.2h1.56v.797h-4.05z" style="fill:none;stroke-width:.393;stroke:#000" transform="matrix(1.314 0 0 1.28 2.168 3.777)"/><text style="fill:#000;font-family:&quot;DejaVu Sans&quot;;font-size:9.62px" transform="matrix(1.314 0 0 1.28 98.356 126.733)"><tspan x="0" y="0">1</tspan></text><path d="M74.4 95.2h1.55v-5.34l-1.67.343v-.875L75.95 89h.937v6.2h1.56v.797h-4.05z" style="fill:none;stroke-width:.393;stroke:#000" transform="matrix(1.314 0 0 1.28 2.168 3.777)"/><text style="fill:#000;font-family:&quot;DejaVu Sans&quot;;font-size:9.62px" transform="matrix(1.314 0 0 1.28 106.503 126.733)"><tspan x="0" y="0">0</tspan></text><path d="M82.4 89.6q-.721.002-1.09.719-.375.72-.375 2.16c0 .961.125 1.68.375 2.17q.375.72 1.09.719c.5 0 .867-.238 1.11-.719q.375-.731.375-2.17c0-.957-.125-1.68-.375-2.16-.242-.477-.609-.719-1.11-.719zm0-.75q1.184 0 1.8.938c.414.617.625 1.51.625 2.69s-.211 2.08-.625 2.7c-.406.625-1.01.938-1.8.938q-1.171 0-1.8-.938c-.407-.625-.61-1.52-.61-2.7s.203-2.07.61-2.69c.414-.625 1.02-.938 1.8-.938z" style="fill:none;stroke-width:.393;stroke:#000" transform="matrix(1.314 0 0 1.28 2.168 3.777)"/><text style="fill:#000;font-family:&quot;DejaVu Sans&quot;;font-size:9.62px" transform="matrix(1.314 0 0 1.28 114.518 126.733)"><tspan x="0" y="0">1</tspan></text><path d="M86.7 95.2h1.55v-5.34l-1.67.343v-.875L88.25 89h.938v6.2h1.56v.797h-4.05z" style="fill:none;stroke-width:.393;stroke:#000" transform="matrix(1.314 0 0 1.28 2.168 3.777)"/><text style="fill:#000;font-family:&quot;DejaVu Sans&quot;;font-size:9.62px" transform="matrix(1.314 0 0 1.28 122.534 126.733)"><tspan x="0" y="0">0</tspan></text><path d="M94.6 89.6q-.721.002-1.09.719-.375.72-.375 2.16c0 .961.125 1.68.375 2.17q.375.72 1.09.719c.5 0 .867-.238 1.11-.719q.375-.731.375-2.17c0-.957-.125-1.68-.375-2.16-.242-.477-.609-.719-1.11-.719zm0-.75q1.184 0 1.8.938c.414.617.625 1.51.625 2.69q-.002 1.77-.625 2.7c-.407.625-1.01.938-1.8.938q-1.172 0-1.8-.938c-.406-.625-.61-1.52-.61-2.7s.204-2.07.61-2.69c.414-.625 1.02-.938 1.8-.938z" style="fill:none;stroke-width:.393;stroke:#000" transform="matrix(1.314 0 0 1.28 2.168 3.777)"/><path d="M67.5 1.67c-1.46.863-3.9 3.31-6.8 6.86l2.66 5.04c1.88-2.68 3.78-5.09 5.7-7.15l.222-.238-.222.238c-.621.68-2.51 2.88-5.35 7.25 2.74-.137 6.94-.695 10.4-1.28 1.03-5.72-.996-8.34-.996-8.34s-2.57-4.16-5.59-2.38z" style="fill:url(#a)" transform="matrix(1.314 0 0 1.28 2.168 3.777)"/><path d="M58.5 44c-.339.058-.687.125-1.05.183 0 0-.004 0-.004.004l.539-.082z" style="fill:#bd202e" transform="matrix(1.314 0 0 1.28 2.168 3.777)"/><g clip-path="url(#b)" opacity=".35" transform="matrix(1.314 0 0 1.28 2.168 3.777)"><path d="M58.5 44c-.339.058-.687.125-1.05.183 0 0-.004 0-.004.004l.539-.082z" style="fill:#bd202e"/></g><path d="M59.4 39.6c-.004 0-.004 0-.004.008.051-.008.113-.015.164-.027.231-.031.449-.07.668-.125-.273.051-.543.098-.828.144" style="fill:#bd202e" transform="matrix(1.314 0 0 1.28 2.168 3.777)"/><g clip-path="url(#c)" opacity=".35" transform="matrix(1.314 0 0 1.28 2.168 3.777)"><path d="M59.4 39.6c-.004 0-.004 0-.004.008.051-.008.113-.015.164-.027.231-.031.449-.07.668-.125-.273.051-.543.098-.828.144" style="fill:#bd202e"/></g><path d="M55.5 26.6c.813-1.52 1.63-3 2.46-4.44.86-1.5 1.74-2.95 2.61-4.36.051-.078.11-.164.157-.246.871-1.38 1.75-2.71 2.63-3.97l-2.66-5.04c-.2.242-.399.492-.606.75-.773.965-1.57 1.99-2.39 3.09a152 152 0 0 0-5.54 7.93 178 178 0 0 0-2.31 3.63c-.028.042-.051.093-.078.14l3.47 6.86c.735-1.49 1.49-2.94 2.25-4.36z" style="fill:url(#d)" transform="matrix(1.314 0 0 1.28 2.168 3.777)"/><path d="M39.7 65.2c-.461 1.26-.926 2.55-1.39 3.86-.004.015-.008.039-.019.055-.067.183-.137.371-.196.554-.312.887-.582 1.69-1.2 3.5 1.02.465 1.84 1.7 2.62 3.09a5.57 5.57 0 0 0-1.82-3.85c5.04.23 9.38-1.05 11.6-4.73.199-.332.383-.672.55-1.04-1.02 1.3-2.29 1.84-4.68 1.71-.004 0-.008.008-.016.008.008 0 .012-.008.016-.008 3.51-1.57 5.27-3.08 6.83-5.57a26 26 0 0 0 1.09-1.96c-3.07 3.15-6.62 4.05-10.4 3.37l-2.81.309c-.09.238-.172.468-.262.707z" style="fill:url(#e)" transform="matrix(1.314 0 0 1.28 2.168 3.777)"/><path d="M41 58.9a421 421 0 0 1 1.87-4.75c.617-1.54 1.24-3.08 1.89-4.63.649-1.54 1.31-3.1 1.98-4.66.679-1.59 1.38-3.16 2.1-4.73.707-1.56 1.42-3.1 2.15-4.62.257-.551.531-1.1.793-1.65.461-.946.925-1.89 1.39-2.81.028-.051.051-.105.078-.152l-3.48-6.86a5 5 0 0 1-.172.278c-.809 1.32-1.62 2.67-2.4 4.05-.801 1.39-1.59 2.82-2.35 4.26-.645 1.22-1.28 2.44-1.9 3.68-.122.25-.243.504-.368.75-.754 1.56-1.44 3.06-2.06 4.51-.7 1.64-1.32 3.2-1.85 4.69-.355.977-.676 1.92-.972 2.82-.243.774-.469 1.55-.696 2.32a75 75 0 0 0-1.34 5.43l3.49 6.89c.46-1.24.937-2.48 1.42-3.75.149-.363.278-.719.418-1.07z" style="fill:url(#f)" transform="matrix(1.314 0 0 1.28 2.168 3.777)"/><path d="M35.6 57.1a53 53 0 0 0-.906 6.58q-.011.116-.016.226c-1.09-1.74-4-3.44-4-3.43 2.09 3.03 3.68 6.03 3.91 8.98-1.12.227-2.65-.102-4.41-.75 1.84 1.7 3.23 2.16 3.77 2.29-1.7.109-3.46 1.27-5.24 2.61 2.6-1.06 4.7-1.48 6.2-1.14-2.39 6.75-4.78 14.2-7.17 22.1.734-.219 1.17-.715 1.41-1.38.426-1.43 3.25-10.8 7.69-23.2.133-.352.254-.708.387-1.06.031-.106.07-.199.106-.293.464-1.3.957-2.62 1.45-3.97.113-.304.226-.613.347-.922 0-.003.004-.011.004-.015l-3.5-6.89c-.008.071-.027.153-.043.235z" style="fill:url(#g)" transform="matrix(1.314 0 0 1.28 2.168 3.777)"/><path d="M53.8 31.5c-.101.207-.199.414-.304.617-.301.621-.602 1.25-.918 1.9-.332.703-.668 1.41-1.01 2.15q-.263.552-.52 1.12c-.519 1.13-1.04 2.3-1.58 3.5-.652 1.48-1.33 3.02-2 4.61-.644 1.52-1.31 3.1-1.97 4.73a501 501 0 0 0-1.92 4.79c-.579 1.46-1.16 2.98-1.74 4.53-.027.071-.054.153-.082.223q-.874 2.31-1.76 4.74c-.012.039-.028.07-.039.113l2.81-.308q-.084-.011-.168-.027c3.36-.415 7.82-2.93 10.7-6.02 1.33-1.43 2.53-3.11 3.64-5.08.828-1.46 1.61-3.1 2.36-4.89.649-1.58 1.27-3.28 1.87-5.13-.773.407-1.65.711-2.62.915-.175.039-.347.07-.523.101q-.268.053-.543.082s.008 0 .008-.004c3.13-1.21 5.1-3.53 6.54-6.38-.82.559-2.16 1.3-3.77 1.64-.215.051-.437.09-.664.125-.054.008-.113.015-.168.027h.012c1.09-.453 2-.965 2.8-1.57.176-.129.344-.258.492-.399.246-.211.473-.433.699-.66.141-.152.274-.301.41-.461q.47-.555.875-1.2c.082-.137.168-.266.243-.406.109-.199.207-.399.304-.59q.655-1.314 1.06-2.35a28 28 0 0 0 .488-1.308c.113-.328.199-.621.27-.879q.156-.588.203-.918a4 4 0 0 1-.367.246c-.946.566-2.57 1.07-3.88 1.32l2.58-.281-2.58.281-.059.008c-.133.024-.258.043-.395.063l.067-.036-8.82.969c0 .02-.016.059-.032.09z" style="fill:url(#h)" transform="matrix(1.314 0 0 1.28 2.168 3.777)"/><path d="M63.7 13.7c-.781 1.2-1.64 2.57-2.57 4.12-.047.078-.102.168-.145.246-.797 1.34-1.64 2.81-2.54 4.42a203 203 0 0 0-2.4 4.49c-.722 1.4-1.47 2.88-2.24 4.46l8.82-.969c2.57-1.18 3.71-2.25 4.83-3.8.293-.426.593-.872.886-1.34.907-1.41 1.79-2.97 2.59-4.52a48 48 0 0 0 1.96-4.32c.328-.852.594-1.64.778-2.34.16-.61.285-1.2.382-1.75-3.42.59-7.63 1.15-10.4 1.28z" style="fill:url(#i)" transform="matrix(1.314 0 0 1.28 2.168 3.777)"/><path d="M59.4 39.6c.051-.008.113-.015.164-.027-.051.004-.105.019-.164.027" style="fill:#bd202e" transform="matrix(1.314 0 0 1.28 2.168 3.777)"/><g clip-path="url(#j)" opacity=".35" transform="matrix(1.314 0 0 1.28 2.168 3.777)"><path d="M59.4 39.6c.051-.008.113-.015.164-.027-.051.004-.105.019-.164.027" style="fill:#bd202e"/></g><path d="M59.4 39.6c.051-.008.113-.015.164-.027-.051.004-.105.019-.164.027" style="fill:url(#k)" transform="matrix(1.314 0 0 1.28 2.168 3.777)"/><path d="M59.4 39.6c.004 0 .004-.008 0 0 .004-.008.004 0 0 0" style="fill:#bd202e" transform="matrix(1.314 0 0 1.28 2.168 3.777)"/><g clip-path="url(#l)" opacity=".35" transform="matrix(1.314 0 0 1.28 2.168 3.777)"><path d="M59.4 39.6c.004 0 .004-.008 0 0 .004-.008.004 0 0 0" style="fill:#bd202e"/></g><path d="M59.4 39.6c.004 0 .004-.008 0 0 .004-.008.004 0 0 0" style="fill:url(#m)" transform="matrix(1.314 0 0 1.28 2.168 3.777)"/><path d="M343.818 5.16v7.57h-1.55V5.16h-2.786V3.777h7.122V5.16zm5.256 7.57h-1.55V3.777h2.418l2.772 5.623 2.773-5.623h2.405v8.953h-1.55V5.737l-3.207 6.212h-.867l-3.194-6.212z"/></svg>