<svg xmlns="http://www.w3.org/2000/svg" width="200" height="200" class="icon" viewBox="0 0 1024 1024"><path fill="#3762ff" d="M160.512 672c0-49.152 32.512-98.432 96.128-137.344C320 495.872 410.112 470.4 512 470.4c102.016 0 192.192 25.408 255.488 64.192 32.064 19.584 56.256 41.856 72.32 65.408 19.52-32.256 27.968-66.56 23.424-100.672a14.66 14.66 0 0 1 .64-6.592 383 383 0 0 0-41.856-29.568C740.672 413.44 630.912 384 512.128 384s-228.544 29.44-309.888 79.232C120.96 512.96 64 586.048 64 672c0 86.016 56.96 159.104 138.112 208.768C283.456 930.56 393.216 960 512 960s228.608-29.44 309.888-79.232C903.04 831.104 960 758.08 960 672c0-54.656-23.04-104.128-60.672-145.6-1.92 38.272-17.024 75.008-42.048 108.544 4.096 12.032 6.144 24.512 6.208 37.12 0 49.152-32.512 98.432-96.128 137.344C704 848.192 613.888 873.6 512 873.6c-102.016 0-192.192-25.408-255.488-64.192-63.552-38.912-96.128-88.192-96.128-137.408z"/><path fill="#1041f3" d="M178.624 528.704c-25.792 74.688-19.712 142.08 13.888 190.336 33.664 48.32 94.08 76.544 171.904 76.544 77.632 0 168.192-28.672 251.392-88.64 83.2-59.904 139.84-137.216 165.632-211.712 25.856-74.688 19.712-142.08-13.888-190.336-33.664-48.32-94.08-76.544-171.904-76.544-77.632 0-168.192 28.672-251.392 88.64-83.2 59.904-139.84 137.216-165.632 211.712m-92.992-33.28c33.408-96.32 103.872-189.888 201.728-260.352C385.088 164.544 495.36 128 595.584 128 695.872 128 790.912 164.864 848 246.912c57.088 81.984 59.776 185.472 26.432 281.664-33.408 96.32-103.808 189.888-201.664 260.352-97.856 70.4-208 107.008-308.352 107.072C264.128 896 169.088 859.136 112 777.088c-57.088-81.984-59.776-185.536-26.368-281.664"/></svg>